<svg width="136" height="81" viewBox="0 0 136 81" fill="none" xmlns="http://www.w3.org/2000/svg">
<path d="M38.289 29.4177C38.289 31.0845 38.4692 32.436 38.7845 33.4271C39.1449 34.4182 39.5954 35.4994 40.2261 36.6707C40.4514 37.0311 40.5415 37.3915 40.5415 37.7069C40.5415 38.1574 40.2712 38.6079 39.6855 39.0584L36.8474 40.9505C36.4419 41.2208 36.0365 41.356 35.6761 41.356C35.2256 41.356 34.7751 41.1307 34.3246 40.7252C33.6939 40.0945 33.1533 39.4188 32.7028 38.653C32.2523 37.8871 31.8018 37.0311 31.3062 35.995C27.7923 40.1396 23.3774 42.2119 18.0615 42.2119C14.2773 42.2119 11.2589 41.1307 9.05148 38.9683C6.84403 36.8059 5.71777 33.9227 5.71777 30.3187C5.71777 26.4894 7.06928 23.381 9.81733 21.0384C12.5654 18.6958 16.2144 17.5245 20.8546 17.5245C22.3863 17.5245 23.963 17.6596 25.6299 17.8849C27.2967 18.1101 29.0087 18.4705 30.8107 18.876V15.5873C30.8107 12.1635 30.0899 9.77586 28.6933 8.37931C27.2517 6.98276 24.819 6.30701 21.3501 6.30701C19.7734 6.30701 18.1516 6.48721 16.4847 6.89266C14.8179 7.29811 13.1961 7.79366 11.6193 8.42437C10.8985 8.73972 10.3579 8.91991 10.0426 9.01001C9.72723 9.10011 9.50198 9.14516 9.32178 9.14516C8.69108 9.14516 8.37573 8.69467 8.37573 7.74861V5.54116C8.37573 4.82036 8.46583 4.27976 8.69108 3.96441C8.91633 3.64906 9.32178 3.33371 9.95248 3.01836C11.5292 2.20746 13.4213 1.53171 15.6288 0.991107C17.8362 0.405456 20.1788 0.135152 22.6566 0.135152C28.0176 0.135152 31.9369 1.35151 34.4597 3.78421C36.9375 6.21691 38.1989 9.91101 38.1989 14.8665V29.4177H38.289ZM19.9986 36.2653C21.4853 36.2653 23.017 35.995 24.6388 35.4544C26.2606 34.9138 27.7022 33.9227 28.9186 32.5712C29.6394 31.7152 30.18 30.7692 30.4503 29.688C30.7206 28.6068 30.9008 27.3003 30.9008 25.7686V23.8765C29.5943 23.5612 28.1977 23.2909 26.7561 23.1107C25.3145 22.9305 23.918 22.8404 22.5214 22.8404C19.5031 22.8404 17.2956 23.426 15.809 24.6424C14.3223 25.8587 13.6015 27.5706 13.6015 29.8231C13.6015 31.9405 14.1421 33.5172 15.2684 34.5984C16.3496 35.7247 17.9263 36.2653 19.9986 36.2653ZM56.1738 41.1757C55.3629 41.1757 54.8223 41.0406 54.4619 40.7252C54.1015 40.4549 53.7862 39.8242 53.5159 38.9683L42.9742 4.14461C42.7039 3.24361 42.5687 2.65796 42.5687 2.34261C42.5687 1.62181 42.9291 1.21636 43.6499 1.21636H48.0648C48.9208 1.21636 49.5064 1.35151 49.8218 1.66686C50.1822 1.93716 50.4525 2.56786 50.7228 3.42381L58.2912 33.2469L65.319 3.42381C65.5442 2.52281 65.8145 1.93716 66.1749 1.66686C66.5353 1.39656 67.166 1.21636 67.9769 1.21636H71.581C72.4369 1.21636 73.0226 1.35151 73.383 1.66686C73.7434 1.93716 74.0587 2.56786 74.2389 3.42381L81.3568 33.6073L89.1505 3.42381C89.4208 2.52281 89.7361 1.93716 90.0515 1.66686C90.4119 1.39656 90.9975 1.21636 91.8084 1.21636H95.9981C96.7189 1.21636 97.1243 1.57676 97.1243 2.34261C97.1243 2.56786 97.0793 2.7931 97.0342 3.0634C96.9892 3.33371 96.8991 3.69411 96.7189 4.18966L85.8618 39.0133C85.5915 39.9143 85.2762 40.5 84.9158 40.7703C84.5554 41.0406 83.9697 41.2208 83.2039 41.2208H79.3296C78.4736 41.2208 77.888 41.0856 77.5276 40.7703C77.1672 40.4549 76.8518 39.8693 76.6716 38.9683L69.6438 9.95606L62.7061 38.9683C62.4808 39.8693 62.2105 40.4549 61.8501 40.7703C61.4897 41.0856 60.859 41.2208 60.0481 41.2208H56.1738V41.1757ZM114.063 42.347C111.721 42.347 109.378 42.0768 107.125 41.5362C104.873 40.9956 103.116 40.4099 101.945 39.7342C101.224 39.3287 100.728 38.8782 100.548 38.4727C100.368 38.0673 100.278 37.6168 100.278 37.2113V34.9588C100.278 34.0128 100.638 33.5623 101.314 33.5623C101.584 33.5623 101.855 33.6073 102.125 33.6974C102.395 33.7875 102.801 33.9677 103.251 34.1479C104.783 34.8237 106.45 35.3643 108.207 35.7247C110.009 36.0851 111.766 36.2653 113.568 36.2653C116.406 36.2653 118.613 35.7697 120.145 34.7786C121.677 33.7875 122.488 32.3459 122.488 30.4989C122.488 29.2375 122.082 28.2013 121.271 27.3454C120.46 26.4894 118.929 25.7236 116.721 25.0028L110.189 22.9755C106.9 21.9394 104.467 20.4077 102.981 18.3804C101.494 16.3982 100.728 14.1908 100.728 11.8482C100.728 9.95606 101.134 8.28922 101.945 6.84761C102.756 5.40601 103.837 4.1446 105.188 3.1535C106.54 2.11735 108.071 1.3515 109.873 0.810902C111.676 0.270302 113.568 0 115.55 0C116.541 0 117.577 0.0450542 118.568 0.180204C119.604 0.315354 120.55 0.495551 121.496 0.675751C122.397 0.901001 123.253 1.12625 124.064 1.39655C124.875 1.66685 125.506 1.93716 125.956 2.20746C126.587 2.56786 127.038 2.92826 127.308 3.33371C127.578 3.69411 127.713 4.18966 127.713 4.82036V6.93771C127.713 7.88376 127.353 8.37931 126.677 8.37931C126.317 8.37931 125.731 8.19911 124.965 7.83871C122.397 6.66741 119.514 6.08176 116.316 6.08176C113.748 6.08176 111.721 6.48721 110.324 7.34316C108.927 8.19911 108.207 9.50557 108.207 11.3526C108.207 12.614 108.657 13.6952 109.558 14.5512C110.459 15.4071 112.126 16.2631 114.514 17.0289L120.911 19.0562C124.154 20.0923 126.497 21.5339 127.894 23.381C129.29 25.228 129.966 27.3454 129.966 29.688C129.966 31.6251 129.56 33.3821 128.795 34.9138C127.984 36.4455 126.902 37.797 125.506 38.8782C124.109 40.0045 122.442 40.8153 120.505 41.401C118.478 42.0767 116.361 42.347 114.063 42.347Z" fill="#555"/>
<path fill-rule="evenodd" clip-rule="evenodd" d="M122.578 64.2417C107.756 75.1888 86.2223 81.0003 67.7067 81.0003C41.7579 81.0003 18.3769 71.4046 0.717263 55.4569C-0.679289 54.1955 0.58211 52.4836 2.24896 53.4747C21.3502 64.557 44.9114 71.2695 69.2834 71.2695C85.7267 71.2695 103.792 67.8457 120.415 60.8179C122.938 59.7367 125.01 62.4397 122.578 64.2417Z" fill="#555"/>
<path fill-rule="evenodd" clip-rule="evenodd" d="M128.749 57.214C126.857 54.7813 116.225 56.0427 111.405 56.6283C109.963 56.8085 109.738 55.5471 111.045 54.6011C119.514 48.6545 133.434 50.3664 135.056 52.3486C136.678 54.3758 134.606 68.2963 126.677 74.9637C125.461 75.9999 124.289 75.4593 124.83 74.1078C126.632 69.6478 130.641 59.6467 128.749 57.214Z" fill="#555"/>
</svg>
