<svg width="733" height="195" viewBox="0 0 733 195" fill="none" xmlns="http://www.w3.org/2000/svg">
<rect width="44" height="26" fill="#B86538"/>
<rect y="36" width="58" height="26" fill="#B86538"/>
<rect x="43" y="72" width="30" height="26" fill="#B86538"/>
<rect y="72" width="29" height="26" fill="#B86538"/>
<rect y="108" width="29" height="26" fill="#B86538"/>
<rect x="58" y="108" width="29" height="26" fill="#B86538"/>
<rect x="101" y="108" width="30" height="26" fill="#B86538"/>
<rect x="144" y="108" width="30" height="26" fill="#B86538"/>
<rect x="216" y="108" width="30" height="26" fill="#B86538"/>
<rect x="216" y="144" width="30" height="26" fill="#B86538"/>
<rect x="144" y="144" width="30" height="26" fill="#B86538"/>
<rect x="101" y="72" width="30" height="26" fill="#B86538"/>
<rect x="101" y="36" width="30" height="26" fill="#B86538"/>
<rect x="101" width="30" height="26" fill="#B86538"/>
<rect x="144" y="36" width="30" height="26" fill="#B86538"/>
<rect x="217" y="36" width="30" height="26" fill="#B86538"/>
<rect x="303" y="36" width="30" height="26" fill="#B86538"/>
<rect x="389" y="36" width="30" height="26" fill="#B86538"/>
<rect x="506" y="36" width="30" height="26" fill="#B86538"/>
<rect x="303" y="72" width="30" height="26" fill="#B86538"/>
<rect x="303" y="108" width="30" height="26" fill="#B86538"/>
<rect x="390" y="108" width="30" height="26" fill="#B86538"/>
<rect x="462" y="144" width="30" height="26" fill="#B86538"/>
<rect x="506" y="144" width="30" height="26" fill="#B86538"/>
<rect x="506" y="108" width="30" height="26" fill="#B86538"/>
<rect x="577" y="108" width="30" height="26" fill="#B86538"/>
<rect x="621" y="108" width="30" height="26" fill="#B86538"/>
<rect x="693" y="108" width="30" height="26" fill="#B86538"/>
<rect x="693" y="72" width="30" height="26" fill="#B86538"/>
<rect x="693" y="36" width="30" height="26" fill="#B86538"/>
<rect x="693" width="30" height="26" fill="#B86538"/>
<rect x="577" y="144" width="30" height="26" fill="#B86538"/>
<rect x="636" y="144" width="73" height="26" fill="#B86538"/>
<rect x="390" y="144" width="30" height="26" fill="#B86538"/>
<rect x="303" y="144" width="30" height="26" fill="#B86538"/>
<rect x="159" width="72" height="26" fill="#B86538"/>
<rect x="391" width="86" height="26" fill="#B86538"/>
<rect x="391" y="72" width="86" height="26" fill="#B86538"/>
<rect x="520" width="73" height="26" fill="#B86538"/>
<rect x="506" y="72" width="101" height="26" fill="#B86538"/>
<rect x="260" width="117" height="26" fill="#B86538"/>
<rect x="144" y="72" width="101" height="26" fill="#B86538"/>
<rect y="144" width="29" height="26" fill="#B86538"/>
<rect x="72" y="144" width="58" height="26" fill="#B86538"/>
<rect x="4" y="175" width="2" height="20" fill="#B86538"/>
<rect x="37" y="175" width="2" height="20" fill="#B86538"/>
<rect x="4" y="195" width="2" height="35" transform="rotate(-90 4 195)" fill="#B86538"/>
<rect x="8" y="191" width="2" height="27" transform="rotate(-90 8 191)" fill="#B86538"/>
<rect x="8" y="175" width="2" height="16" fill="#B86538"/>
<path d="M33 175H35V191H33V175Z" fill="#B86538"/>
<rect x="149" y="175" width="2" height="20" fill="#B86538"/>
<rect x="182" y="175" width="2" height="20" fill="#B86538"/>
<rect x="149" y="195" width="2" height="35" transform="rotate(-90 149 195)" fill="#B86538"/>
<rect x="153" y="191" width="2" height="27" transform="rotate(-90 153 191)" fill="#B86538"/>
<rect x="153" y="175" width="2" height="16" fill="#B86538"/>
<path d="M178 175H180V191H178V175Z" fill="#B86538"/>
<rect x="221" y="175" width="2" height="20" fill="#B86538"/>
<rect x="254" y="175" width="2" height="20" fill="#B86538"/>
<rect x="221" y="195" width="2" height="35" transform="rotate(-90 221 195)" fill="#B86538"/>
<rect x="225" y="191" width="2" height="27" transform="rotate(-90 225 191)" fill="#B86538"/>
<rect x="225" y="175" width="2" height="16" fill="#B86538"/>
<path d="M250 175H252V191H250V175Z" fill="#B86538"/>
<rect x="308" y="175" width="2" height="20" fill="#B86538"/>
<rect x="341" y="175" width="2" height="20" fill="#B86538"/>
<rect x="308" y="195" width="2" height="35" transform="rotate(-90 308 195)" fill="#B86538"/>
<rect x="312" y="191" width="2" height="27" transform="rotate(-90 312 191)" fill="#B86538"/>
<rect x="312" y="175" width="2" height="16" fill="#B86538"/>
<path d="M337 175H339V191H337V175Z" fill="#B86538"/>
<rect x="394" y="175" width="2" height="20" fill="#B86538"/>
<rect x="427" y="175" width="2" height="20" fill="#B86538"/>
<rect x="394" y="195" width="2" height="35" transform="rotate(-90 394 195)" fill="#B86538"/>
<rect x="398" y="191" width="2" height="27" transform="rotate(-90 398 191)" fill="#B86538"/>
<rect x="398" y="175" width="2" height="16" fill="#B86538"/>
<path d="M423 175H425V191H423V175Z" fill="#B86538"/>
<rect x="467" y="175" width="2" height="20" fill="#B86538"/>
<rect x="500" y="175" width="2" height="20" fill="#B86538"/>
<rect x="467" y="195" width="2" height="35" transform="rotate(-90 467 195)" fill="#B86538"/>
<rect x="471" y="191" width="2" height="27" transform="rotate(-90 471 191)" fill="#B86538"/>
<rect x="471" y="175" width="2" height="16" fill="#B86538"/>
<path d="M496 175H498V191H496V175Z" fill="#B86538"/>
<rect x="510" y="175" width="2" height="20" fill="#B86538"/>
<rect x="543" y="175" width="2" height="20" fill="#B86538"/>
<rect x="510" y="195" width="2" height="35" transform="rotate(-90 510 195)" fill="#B86538"/>
<rect x="514" y="191" width="2" height="27" transform="rotate(-90 514 191)" fill="#B86538"/>
<rect x="514" y="175" width="2" height="16" fill="#B86538"/>
<path d="M539 175H541V191H539V175Z" fill="#B86538"/>
<rect x="582" y="175" width="2" height="20" fill="#B86538"/>
<rect x="615" y="175" width="2" height="20" fill="#B86538"/>
<rect x="582" y="195" width="2" height="35" transform="rotate(-90 582 195)" fill="#B86538"/>
<rect x="586" y="191" width="2" height="27" transform="rotate(-90 586 191)" fill="#B86538"/>
<rect x="586" y="175" width="2" height="16" fill="#B86538"/>
<path d="M611 175H613V191H611V175Z" fill="#B86538"/>
<rect x="77" y="175" width="2" height="20" fill="#B86538"/>
<rect x="138" y="175" width="2" height="20" fill="#B86538"/>
<rect x="77" y="195" width="2" height="61" transform="rotate(-90 77 195)" fill="#B86538"/>
<rect x="81" y="191" width="2" height="54" transform="rotate(-90 81 191)" fill="#B86538"/>
<rect x="81" y="175" width="2" height="16" fill="#B86538"/>
<path d="M134 175H136V191H134V175Z" fill="#B86538"/>
<rect x="640" y="175" width="2" height="20" fill="#B86538"/>
<rect x="716" y="175" width="2" height="20" fill="#B86538"/>
<rect x="640" y="195" width="2" height="76" transform="rotate(-90 640 195)" fill="#B86538"/>
<rect x="644" y="191" width="2" height="68" transform="rotate(-90 644 191)" fill="#B86538"/>
<rect x="644" y="175" width="2" height="16" fill="#B86538"/>
<path d="M712 175H714V191H712V175Z" fill="#B86538"/>
<path d="M712 153H714V170H712V153Z" fill="#B86538"/>
<path d="M731 140H733V159H731V140Z" fill="#B86538"/>
<path d="M727 140H729V155H727V140Z" fill="#B86538"/>
<path d="M712 153V155H727V153H712Z" fill="#B86538"/>
<path d="M717 157V159H732V157H717Z" fill="#B86538"/>
<path d="M716 157H718V170H716V157Z" fill="#B86538"/>
<rect width="2" height="17" transform="matrix(1 0 0 -1 178 62)" fill="#B86538"/>
<rect width="2" height="17" transform="matrix(1 0 0 -1 254 62)" fill="#B86538"/>
<rect width="2" height="76" transform="matrix(0 1 1 0 178 45)" fill="#B86538"/>
<rect width="2" height="70" transform="matrix(0 1 1 0 182 49)" fill="#B86538"/>
<rect width="2" height="13" transform="matrix(1 0 0 -1 182 62)" fill="#B86538"/>
<path d="M250 62H252V51H250V62Z" fill="#B86538"/>
<rect width="2" height="17" transform="matrix(1 0 0 -1 423 134)" fill="#B86538"/>
<rect width="2" height="17" transform="matrix(1 0 0 -1 500 134)" fill="#B86538"/>
<rect width="2" height="77" transform="matrix(0 1 1 0 423 117)" fill="#B86538"/>
<rect width="2" height="71" transform="matrix(0 1 1 0 427 121)" fill="#B86538"/>
<rect width="2" height="13" transform="matrix(1 0 0 -1 427 134)" fill="#B86538"/>
<path d="M496 134H498V123H496V134Z" fill="#B86538"/>
<rect x="35" y="98" width="2" height="17" transform="rotate(180 35 98)" fill="#B86538"/>
<rect x="43" y="81" width="2" height="10" transform="rotate(90 43 81)" fill="#B86538"/>
<rect x="43" y="85" width="2" height="6" transform="rotate(90 43 85)" fill="#B86538"/>
<path d="M39 98H37V85H39V98Z" fill="#B86538"/>
<rect width="2" height="17" transform="matrix(1 0 0 -1 81 98)" fill="#B86538"/>
<rect width="2" height="10" transform="matrix(0 1 1 0 73 81)" fill="#B86538"/>
<rect width="2" height="6" transform="matrix(0 1 1 0 73 85)" fill="#B86538"/>
<path d="M77 98H79V85H77V98Z" fill="#B86538"/>
<rect width="2" height="17" transform="matrix(1 0 0 -1 66 62)" fill="#B86538"/>
<rect width="2" height="10" transform="matrix(0 1 1 0 58 45)" fill="#B86538"/>
<rect width="2" height="6" transform="matrix(0 1 1 0 58 49)" fill="#B86538"/>
<path d="M62 62H64V49H62V62Z" fill="#B86538"/>
<rect width="2" height="17" transform="matrix(1 0 0 -1 138 26)" fill="#B86538"/>
<rect width="2" height="10" transform="matrix(0 1 1 0 130 9)" fill="#B86538"/>
<rect width="2" height="6" transform="matrix(0 1 1 0 130 13)" fill="#B86538"/>
<path d="M134 26H136V13H134V26Z" fill="#B86538"/>
<rect width="2" height="17" transform="matrix(1 0 0 -1 239 26)" fill="#B86538"/>
<rect width="2" height="10" transform="matrix(0 1 1 0 231 9)" fill="#B86538"/>
<rect width="2" height="6" transform="matrix(0 1 1 0 231 13)" fill="#B86538"/>
<path d="M235 26H237V13H235V26Z" fill="#B86538"/>
<rect width="2" height="17" transform="matrix(1 0 0 -1 52 26)" fill="#B86538"/>
<rect width="2" height="10" transform="matrix(0 1 1 0 44 9)" fill="#B86538"/>
<rect width="2" height="6" transform="matrix(0 1 1 0 44 13)" fill="#B86538"/>
<path d="M48 26H50V13H48V26Z" fill="#B86538"/>
<rect width="2" height="17" transform="matrix(1 0 0 -1 384 26)" fill="#B86538"/>
<rect width="2" height="10" transform="matrix(0 1 1 0 376 9)" fill="#B86538"/>
<rect width="2" height="6" transform="matrix(0 1 1 0 376 13)" fill="#B86538"/>
<path d="M380 26H382V13H380V26Z" fill="#B86538"/>
<rect width="2" height="17" transform="matrix(1 0 0 -1 485 26)" fill="#B86538"/>
<rect width="2" height="10" transform="matrix(0 1 1 0 477 9)" fill="#B86538"/>
<rect width="2" height="6" transform="matrix(0 1 1 0 477 13)" fill="#B86538"/>
<path d="M481 26H483V13H481V26Z" fill="#B86538"/>
<rect x="483" y="98" width="2" height="17" transform="rotate(180 483 98)" fill="#B86538"/>
<rect x="496" y="81" width="2" height="15" transform="rotate(90 496 81)" fill="#B86538"/>
<rect x="500" y="85" width="2" height="15" transform="rotate(90 500 85)" fill="#B86538"/>
<path d="M487 98H485V85H487V98Z" fill="#B86538"/>
<path d="M502 87H500V68H502V87Z" fill="#B86538"/>
<path d="M498 83H496V68H498V83Z" fill="#B86538"/>
<rect width="2" height="17" transform="matrix(1 0 0 -1 601 26)" fill="#B86538"/>
<rect width="2" height="10" transform="matrix(0 1 1 0 593 9)" fill="#B86538"/>
<rect width="2" height="6" transform="matrix(0 1 1 0 593 13)" fill="#B86538"/>
<path d="M597 26H599V13H597V26Z" fill="#B86538"/>
<rect width="2" height="17" transform="matrix(1 0 0 -1 731 26)" fill="#B86538"/>
<rect width="2" height="10" transform="matrix(0 1 1 0 723 9)" fill="#B86538"/>
<rect width="2" height="6" transform="matrix(0 1 1 0 723 13)" fill="#B86538"/>
<path d="M727 26H729V13H727V26Z" fill="#B86538"/>
<rect width="2" height="17" transform="matrix(1 0 0 -1 95 134)" fill="#B86538"/>
<rect width="2" height="10" transform="matrix(0 1 1 0 87 117)" fill="#B86538"/>
<rect width="2" height="6" transform="matrix(0 1 1 0 87 121)" fill="#B86538"/>
<path d="M91 134H93V121H91V134Z" fill="#B86538"/>
<rect width="2" height="19" transform="matrix(-1 0 0 1 50 104)" fill="#B86538"/>
<rect width="2" height="10" transform="matrix(0 -1 -1 0 58 123)" fill="#B86538"/>
<rect width="2" height="6" transform="matrix(0 -1 -1 0 58 119)" fill="#B86538"/>
<path d="M54 104H52V119H54V104Z" fill="#B86538"/>
<rect width="2" height="19" transform="matrix(-1 0 0 1 628 140)" fill="#B86538"/>
<rect width="2" height="10" transform="matrix(0 -1 -1 0 636 159)" fill="#B86538"/>
<rect width="2" height="6" transform="matrix(0 -1 -1 0 636 155)" fill="#B86538"/>
<path d="M632 140H630V155H632V140Z" fill="#B86538"/>
<rect width="2" height="19" transform="matrix(-1 0 0 1 267 32)" fill="#B86538"/>
<rect width="2" height="38" transform="matrix(0 -1 -1 0 303 51)" fill="#B86538"/>
<rect width="2" height="32" transform="matrix(0 -1 -1 0 303 47)" fill="#B86538"/>
<path d="M271 32H269V47H271V32Z" fill="#B86538"/>
<rect x="384" y="32" width="2" height="19" fill="#B86538"/>
<rect x="341" y="51" width="2" height="45" transform="rotate(-90 341 51)" fill="#B86538"/>
<rect x="337" y="47" width="2" height="43" transform="rotate(-90 337 47)" fill="#B86538"/>
<path d="M380 32H382V47H380V32Z" fill="#B86538"/>
<rect x="180" y="134" width="2" height="17" transform="rotate(180 180 134)" fill="#B86538"/>
<rect x="216" y="117" width="2" height="38" transform="rotate(90 216 117)" fill="#B86538"/>
<rect x="216" y="121" width="2" height="32" transform="rotate(90 216 121)" fill="#B86538"/>
<path d="M184 134H182V121H184V134Z" fill="#B86538"/>
<rect x="541" y="134" width="2" height="17" transform="rotate(180 541 134)" fill="#B86538"/>
<rect x="577" y="117" width="2" height="38" transform="rotate(90 577 117)" fill="#B86538"/>
<rect x="577" y="121" width="2" height="32" transform="rotate(90 577 121)" fill="#B86538"/>
<path d="M545 134H543V121H545V134Z" fill="#B86538"/>
<rect width="2" height="19" transform="matrix(-1 0 0 1 64 140)" fill="#B86538"/>
<rect width="2" height="10" transform="matrix(0 -1 -1 0 72 159)" fill="#B86538"/>
<rect width="2" height="6" transform="matrix(0 -1 -1 0 72 155)" fill="#B86538"/>
<path d="M68 140H66V155H68V140Z" fill="#B86538"/>
<path d="M33 140H35V170H33V140Z" fill="#B86538"/>
<path d="M37 140H39V170H37V140Z" fill="#B86538"/>
<path d="M134 140H136V170H134V140Z" fill="#B86538"/>
<path d="M138 140H140V170H138V140Z" fill="#B86538"/>
<path d="M134 104H136V134H134V104Z" fill="#B86538"/>
<path d="M138 104H140V134H138V104Z" fill="#B86538"/>
<path d="M134 68H136V98H134V68Z" fill="#B86538"/>
<path d="M138 68H140V98H138V68Z" fill="#B86538"/>
<path d="M250 68H252V98H250V68Z" fill="#B86538"/>
<path d="M254 68H256V98H254V68Z" fill="#B86538"/>
<path d="M337 47H339V62H337V47Z" fill="#B86538"/>
<path d="M341 51H343V62H341V51Z" fill="#B86538"/>
<path d="M337 68H339V98H337V68Z" fill="#B86538"/>
<path d="M341 68H343V98H341V68Z" fill="#B86538"/>
<path d="M337 104H339V134H337V104Z" fill="#B86538"/>
<path d="M341 104H343V134H341V104Z" fill="#B86538"/>
<path d="M337 140H339V170H337V140Z" fill="#B86538"/>
<path d="M341 140H343V170H341V140Z" fill="#B86538"/>
<path d="M423 140H425V170H423V140Z" fill="#B86538"/>
<path d="M427 140H429V170H427V140Z" fill="#B86538"/>
<path d="M496 140H498V170H496V140Z" fill="#B86538"/>
<path d="M500 140H502V170H500V140Z" fill="#B86538"/>
<path d="M727 32H729V62H727V32Z" fill="#B86538"/>
<path d="M731 32H733V62H731V32Z" fill="#B86538"/>
<path d="M727 68H729V98H727V68Z" fill="#B86538"/>
<path d="M731 68H733V98H731V68Z" fill="#B86538"/>
<path d="M727 104H729V134H727V104Z" fill="#B86538"/>
<path d="M731 104H733V134H731V104Z" fill="#B86538"/>
<path d="M539 140H541V170H539V140Z" fill="#B86538"/>
<path d="M543 140H545V170H543V140Z" fill="#B86538"/>
<path d="M250 104H252V134H250V104Z" fill="#B86538"/>
<path d="M254 104H256V134H254V104Z" fill="#B86538"/>
<path d="M250 140H252V170H250V140Z" fill="#B86538"/>
<path d="M254 140H256V170H254V140Z" fill="#B86538"/>
<path d="M178 140H180V170H178V140Z" fill="#B86538"/>
<path d="M182 140H184V170H182V140Z" fill="#B86538"/>
<path d="M611 68H613V98H611V68Z" fill="#B86538"/>
<path d="M615 68H617V98H615V68Z" fill="#B86538"/>
<path d="M611 104H613V134H611V104Z" fill="#B86538"/>
<path d="M615 104H617V134H615V104Z" fill="#B86538"/>
<path d="M611 140H613V170H611V140Z" fill="#B86538"/>
<path d="M615 140H617V170H615V140Z" fill="#B86538"/>
<path d="M134 32H136V62H134V32Z" fill="#B86538"/>
<path d="M138 32H140V62H138V32Z" fill="#B86538"/>
<path d="M33 104H35V134H33V104Z" fill="#B86538"/>
<path d="M37 104H39V134H37V104Z" fill="#B86538"/>
<rect width="2" height="17" transform="matrix(1 0 0 -1 424 62)" fill="#B86538"/>
<rect width="2" height="17" transform="matrix(1 0 0 -1 500 62)" fill="#B86538"/>
<rect width="2" height="76" transform="matrix(0 1 1 0 424 45)" fill="#B86538"/>
<rect width="2" height="70" transform="matrix(0 1 1 0 428 49)" fill="#B86538"/>
<rect width="2" height="13" transform="matrix(1 0 0 -1 428 62)" fill="#B86538"/>
<path d="M496 62H498V51H496V62Z" fill="#B86538"/>
<rect width="2" height="17" transform="matrix(1 0 0 -1 539 62)" fill="#B86538"/>
<rect width="2" height="17" transform="matrix(1 0 0 -1 615 62)" fill="#B86538"/>
<rect width="2" height="76" transform="matrix(0 1 1 0 539 45)" fill="#B86538"/>
<rect width="2" height="70" transform="matrix(0 1 1 0 543 49)" fill="#B86538"/>
<rect width="2" height="13" transform="matrix(1 0 0 -1 543 62)" fill="#B86538"/>
<path d="M611 62H613V51H611V62Z" fill="#B86538"/>
<rect x="462" y="36" width="30" height="26" fill="#B86538"/>
<rect x="462" y="108" width="30" height="26" fill="#B86538"/>
<rect x="577" y="36" width="30" height="26" fill="#B86538"/>
</svg>
