<svg width="740" height="204" viewBox="0 0 740 204" fill="none" xmlns="http://www.w3.org/2000/svg">
<path d="M81.5 71.5L57 48L47 59L44.5 61.5L41.5 64L38 66.5L35 68.5L31 71L26.5 73.5L22 75.5L17.5 77L9 79.5L0.5 81L54.5 97.5L81.5 71.5Z" fill="#111" stroke="#111"/>
<path d="M98.5605 118.696L122.51 142.609L132.809 131.968L135.377 129.556L138.447 127.156L142.017 124.769L145.074 122.865L149.145 120.491L153.717 118.13L158.277 116.265L162.824 114.894L171.404 112.636L179.958 111.369L126.275 93.6318L98.5605 118.696Z" fill="#111" stroke="#111"/>
<path d="M179.5 111V79.5L173.5 79L168.5 78L161.5 76L156 74L152 72L146.5 69L143.5 67L140 64.5L137 62L132.5 58L129 54.5L123.5 48L118.5 40.5L114.5 33L111 23.5L109 15L108 8H76.5L78 19L80 29.5L82.5 39.5L86 48.5L91 58L96 65.5L102 73.5L109 81L116.5 87.5L124.5 93L133 98L142 102L151 105.5L160.5 108L170 110L179.5 111Z" fill="#555" stroke="#555"/>
<path d="M1 81.207L1.36912 112.705L7.37457 113.134L12.3859 114.076L19.4089 115.994L24.9319 117.929L28.9551 119.882L34.4899 122.817L37.5131 124.782L41.0422 127.241L44.0713 129.706L48.6178 133.653L52.1586 137.111L57.7344 143.546L62.8219 150.987L66.9095 158.44L70.5206 167.898L72.6201 176.374L73.7021 183.362L105.2 182.993L103.571 172.011L101.448 161.535L98.8312 151.565L95.226 142.607L90.115 133.166L85.0274 125.725L78.9341 117.796L71.8467 110.379L64.271 103.967L56.2071 98.5612L47.6491 93.6612L38.6029 89.7669L29.5625 86.3726L20.0338 83.9841L10.511 82.0956L1 81.207Z" fill="#555" stroke="#555"/>
<path d="M220.97 189.78C218.477 189.78 216.38 188.93 214.68 187.23C213.093 185.643 212.3 183.603 212.3 181.11V103.59C212.413 94.6372 214.51 86.5905 218.59 79.4505C222.67 72.3105 228.223 66.7005 235.25 62.6205C242.277 58.4272 250.21 56.3305 259.05 56.3305C268.003 56.3305 275.993 58.4272 283.02 62.6205C290.047 66.7005 295.6 72.3105 299.68 79.4505C303.873 86.5905 305.97 94.6372 305.97 103.59C305.97 112.543 304.043 120.59 300.19 127.73C296.45 134.757 291.293 140.367 284.72 144.56C278.147 148.64 270.723 150.68 262.45 150.68C255.763 150.68 249.587 149.32 243.92 146.6C238.367 143.767 233.607 139.97 229.64 135.21V181.11C229.64 183.603 228.847 185.643 227.26 187.23C225.673 188.93 223.577 189.78 220.97 189.78ZM259.05 135.38C264.83 135.38 269.987 134.02 274.52 131.3C279.053 128.467 282.623 124.67 285.23 119.91C287.95 115.037 289.31 109.597 289.31 103.59C289.31 97.4705 287.95 92.0305 285.23 87.2705C282.623 82.3972 279.053 78.6005 274.52 75.8805C269.987 73.0472 264.83 71.6305 259.05 71.6305C253.383 71.6305 248.227 73.0472 243.58 75.8805C239.047 78.6005 235.477 82.3972 232.87 87.2705C230.263 92.0305 228.96 97.4705 228.96 103.59C228.96 109.597 230.263 115.037 232.87 119.91C235.477 124.67 239.047 128.467 243.58 131.3C248.227 134.02 253.383 135.38 259.05 135.38ZM353.931 150C348.945 150 344.525 148.64 340.671 145.92C336.818 143.2 333.815 139.517 331.661 134.87C329.508 130.11 328.431 124.67 328.431 118.55V25.7305C328.431 23.2372 329.225 21.1972 330.811 19.6105C332.398 18.0238 334.438 17.2305 336.931 17.2305C339.425 17.2305 341.465 18.0238 343.051 19.6105C344.638 21.1972 345.431 23.2372 345.431 25.7305V118.55C345.431 122.743 346.225 126.2 347.811 128.92C349.398 131.64 351.438 133 353.931 133H358.181C360.448 133 362.261 133.793 363.621 135.38C365.095 136.967 365.831 139.007 365.831 141.5C365.831 143.993 364.755 146.033 362.601 147.62C360.448 149.207 357.671 150 354.271 150H353.931ZM416.412 150.68C408.138 150.68 400.715 148.64 394.142 144.56C387.568 140.367 382.355 134.757 378.502 127.73C374.762 120.59 372.892 112.543 372.892 103.59C372.892 94.6372 374.932 86.5905 379.012 79.4505C383.205 72.3105 388.815 66.7005 395.842 62.6205C402.982 58.4272 410.972 56.3305 419.812 56.3305C428.652 56.3305 436.585 58.4272 443.612 62.6205C450.638 66.7005 456.192 72.3105 460.272 79.4505C464.465 86.5905 466.562 94.6372 466.562 103.59H459.932C459.932 112.543 458.005 120.59 454.152 127.73C450.412 134.757 445.255 140.367 438.682 144.56C432.108 148.64 424.685 150.68 416.412 150.68ZM419.812 135.38C425.592 135.38 430.748 134.02 435.282 131.3C439.815 128.467 443.385 124.67 445.992 119.91C448.598 115.037 449.902 109.597 449.902 103.59C449.902 97.4705 448.598 92.0305 445.992 87.2705C443.385 82.3972 439.815 78.6005 435.282 75.8805C430.748 73.0472 425.592 71.6305 419.812 71.6305C414.145 71.6305 408.988 73.0472 404.342 75.8805C399.808 78.6005 396.182 82.3972 393.462 87.2705C390.855 92.0305 389.552 97.4705 389.552 103.59C389.552 109.597 390.855 115.037 393.462 119.91C396.182 124.67 399.808 128.467 404.342 131.3C408.988 134.02 414.145 135.38 419.812 135.38ZM457.892 150.17C455.398 150.17 453.302 149.377 451.602 147.79C450.015 146.09 449.222 143.993 449.222 141.5V115.49L452.452 97.4705L466.562 103.59V141.5C466.562 143.993 465.712 146.09 464.012 147.79C462.425 149.377 460.385 150.17 457.892 150.17ZM531.468 150.85C523.648 150.85 516.622 149.207 510.388 145.92C504.268 142.52 499.395 137.59 495.768 131.13C492.255 124.67 490.498 116.737 490.498 107.33V65.5105C490.498 63.0172 491.292 60.9772 492.878 59.3905C494.578 57.6905 496.675 56.8405 499.168 56.8405C501.662 56.8405 503.702 57.6905 505.288 59.3905C506.988 60.9772 507.838 63.0172 507.838 65.5105V107.33C507.838 113.677 509.028 118.947 511.408 123.14C513.788 127.22 517.018 130.28 521.098 132.32C525.178 134.247 529.768 135.21 534.868 135.21C539.742 135.21 544.048 134.247 547.788 132.32C551.642 130.393 554.702 127.787 556.968 124.5C559.235 121.213 560.368 117.53 560.368 113.45H571.078C571.078 120.477 569.322 126.823 565.808 132.49C562.408 138.157 557.705 142.633 551.698 145.92C545.805 149.207 539.062 150.85 531.468 150.85ZM569.038 150C566.545 150 564.448 149.207 562.748 147.62C561.162 145.92 560.368 143.823 560.368 141.33V65.5105C560.368 62.9038 561.162 60.8072 562.748 59.2205C564.448 57.6338 566.545 56.8405 569.038 56.8405C571.645 56.8405 573.742 57.6338 575.328 59.2205C576.915 60.8072 577.708 62.9038 577.708 65.5105V141.33C577.708 143.823 576.915 145.92 575.328 147.62C573.742 149.207 571.645 150 569.038 150ZM616.577 91.8605C616.577 85.0605 618.221 78.9972 621.507 73.6705C624.907 68.2305 629.441 63.9238 635.107 60.7505C640.774 57.5772 647.007 55.9905 653.807 55.9905C660.607 55.9905 665.651 57.1238 668.937 59.3905C672.337 61.5438 673.641 64.1505 672.847 67.2105C672.507 68.7972 671.827 70.0438 670.807 70.9505C669.901 71.7438 668.824 72.2538 667.577 72.4805C666.331 72.7072 664.971 72.6505 663.497 72.3105C656.244 70.8372 649.727 70.7238 643.947 71.9705C638.167 73.2172 633.577 75.5405 630.177 78.9405C626.891 82.3405 625.247 86.6472 625.247 91.8605H616.577ZM616.747 150C614.027 150 611.931 149.32 610.457 147.96C608.984 146.487 608.247 144.333 608.247 141.5V65.5105C608.247 62.7905 608.984 60.6938 610.457 59.2205C611.931 57.7472 614.027 57.0105 616.747 57.0105C619.581 57.0105 621.677 57.7472 623.037 59.2205C624.511 60.5805 625.247 62.6772 625.247 65.5105V141.5C625.247 144.22 624.511 146.317 623.037 147.79C621.677 149.263 619.581 150 616.747 150Z" fill="#555"/>
</svg>
