<svg width="103" height="48" viewBox="0 0 103 48" fill="none" xmlns="http://www.w3.org/2000/svg">
<path d="M0 16.0539V0.489177H2.62376V16.0539H0Z" fill="url(#paint0_linear_8989_877)"/>
<path d="M5.40213 16.0539V4.8473H7.82578V6.51494C8.47061 5.53659 9.82696 4.66941 11.6058 4.66941C14.0072 4.66941 15.7638 6.20365 15.7638 8.78294V16.0539H13.3401V9.31659C13.3401 7.71565 12.4063 6.804 10.9832 6.804C9.02649 6.804 7.82578 8.47165 7.82578 11.2066V16.0539H5.40213Z" fill="url(#paint1_linear_8989_877)"/>
<path d="M23.235 16.2318C19.8997 16.2318 17.7429 13.9415 17.7429 10.4506C17.7429 6.95965 19.8997 4.66941 23.235 4.66941C24.7915 4.66941 26.2368 5.35871 26.8594 6.40377V0.311295H29.3275V16.0539H26.8594V14.4752C26.2368 15.5202 24.7692 16.2318 23.235 16.2318ZM23.5463 14.1416C25.503 14.1416 26.8594 12.6074 26.8594 10.4506C26.8594 8.24929 25.503 6.75953 23.5463 6.75953C21.5896 6.75953 20.211 8.24929 20.211 10.4506C20.211 12.6296 21.5896 14.1416 23.5463 14.1416Z" fill="url(#paint2_linear_8989_877)"/>
<path d="M32.0237 16.0539V4.8473H34.4473V16.0539H32.0237ZM33.2466 3.15741C32.3127 3.15741 31.6235 2.49035 31.6235 1.57871C31.6235 0.667059 32.3127 0 33.2466 0C34.1805 0 34.892 0.667059 34.892 1.57871C34.892 2.49035 34.1805 3.15741 33.2466 3.15741Z" fill="url(#paint3_linear_8989_877)"/>
<path d="M40.5719 16.2318C38.1705 16.2318 36.6585 14.8309 36.6585 12.9854C36.6585 10.7619 38.1705 9.60565 41.6392 9.22765L43.9295 9.0053V8.71624C43.9295 7.40435 42.9734 6.62612 41.5503 6.62612C40.1939 6.62612 39.3045 7.29318 39.1266 8.694L36.7919 8.33824C37.1699 6.15918 39.0155 4.66941 41.5503 4.66941C44.3519 4.66941 46.3531 6.24812 46.3531 9.0053V16.0539H43.9295V14.4307C43.4403 15.4313 42.0839 16.2318 40.5719 16.2318ZM43.9295 10.8064L41.7504 11.0732C39.8826 11.2955 39.0822 11.7625 39.0822 12.8742C39.0822 13.8304 39.8159 14.364 40.9722 14.364C42.7288 14.364 43.9295 12.8965 43.9295 11.1176V10.8064Z" fill="url(#paint4_linear_8989_877)"/>
<path d="M53.8728 16.0539V0.489177H58.9202C63.1894 0.489177 66.7693 3.20188 66.7693 8.27153C66.7693 13.3189 63.1894 16.0539 58.9202 16.0539H53.8728ZM56.4966 13.8081H58.6312C61.6774 13.8081 64.1455 11.9626 64.1455 8.27153C64.1455 4.58047 61.6774 2.73494 58.6312 2.73494H56.4966V13.8081Z" fill="url(#paint5_linear_8989_877)"/>
<path d="M72.2746 16.2318C69.8732 16.2318 68.3612 14.8309 68.3612 12.9854C68.3612 10.7619 69.8732 9.60565 73.3419 9.22765L75.6321 9.0053V8.71624C75.6321 7.40435 74.676 6.62612 73.253 6.62612C71.8966 6.62612 71.0072 7.29318 70.8293 8.694L68.4946 8.33824C68.8726 6.15918 70.7181 4.66941 73.253 4.66941C76.0546 4.66941 78.0558 6.24812 78.0558 9.0053V16.0539H75.6321V14.4307C75.143 15.4313 73.7866 16.2318 72.2746 16.2318ZM75.6321 10.8064L73.4531 11.0732C71.5853 11.2955 70.7848 11.7625 70.7848 12.8742C70.7848 13.8304 71.5186 14.364 72.6748 14.364C74.4314 14.364 75.6321 12.8965 75.6321 11.1176V10.8064Z" fill="url(#paint6_linear_8989_877)"/>
<path d="M84.8711 16.2318C82.7587 16.2318 81.18 14.9199 81.18 12.4962V6.84847H79.3345V4.8473H81.18V2.06788H83.6259V4.8473H86.3386V6.84847H83.6259V12.2961C83.6259 13.4968 84.2263 14.0972 85.1824 14.0972C85.5826 14.0972 85.9606 14.0082 86.3386 13.8748L86.5165 15.9427C86.0495 16.1428 85.427 16.2318 84.8711 16.2318Z" fill="url(#paint7_linear_8989_877)"/>
<path d="M91.6219 16.2318C89.2205 16.2318 87.7085 14.8309 87.7085 12.9854C87.7085 10.7619 89.2205 9.60565 92.6892 9.22765L94.9794 9.0053V8.71624C94.9794 7.40435 94.0233 6.62612 92.6003 6.62612C91.2439 6.62612 90.3545 7.29318 90.1766 8.694L87.8419 8.33824C88.2199 6.15918 90.0654 4.66941 92.6003 4.66941C95.4019 4.66941 97.4031 6.24812 97.4031 9.0053V16.0539H94.9794V14.4307C94.4903 15.4313 93.1339 16.2318 91.6219 16.2318ZM94.9794 10.8064L92.8004 11.0732C90.9326 11.2955 90.1322 11.7625 90.1322 12.8742C90.1322 13.8304 90.8659 14.364 92.0222 14.364C93.7787 14.364 94.9794 12.8965 94.9794 11.1176V10.8064Z" fill="url(#paint8_linear_8989_877)"/>
<path d="M0.727421 43.0539V27.4892H6.68648C9.55483 27.4892 11.5115 29.2902 11.5115 31.9585C11.5115 33.7818 10.4665 35.3382 8.75436 36.0275L13.0458 43.0539H9.99954L6.10836 36.4278H3.35119V43.0539H0.727421ZM3.35119 34.182H6.24177C7.86495 34.182 8.91001 33.2704 8.91001 31.9585C8.91001 30.6244 7.86495 29.7349 6.24177 29.7349H3.35119V34.182Z" fill="url(#paint9_linear_8989_877)"/>
<path d="M18.885 43.2318C15.5052 43.2318 13.215 40.8304 13.215 37.4506C13.215 34.0708 15.5274 31.6694 18.796 31.6694C22.3537 31.6694 24.5327 34.4266 24.088 37.8953H15.6609C15.8387 39.8742 17.0617 41.1861 18.885 41.1861C20.2858 41.1861 21.4643 40.3634 21.7311 39.2739L23.9991 39.8742C23.4432 41.8754 21.442 43.2318 18.885 43.2318ZM15.7943 36.0498H21.5754C21.531 34.56 20.4192 33.6261 18.796 33.6261C17.284 33.6261 16.1723 34.4933 15.7943 36.0498Z" fill="url(#paint10_linear_8989_877)"/>
<path d="M30.1063 43.2318C27.5048 43.2318 25.7704 41.742 25.3257 39.8965L27.4381 39.2072C27.7271 40.5191 28.661 41.2751 30.1063 41.2751C31.2848 41.2751 32.0853 40.7414 32.0853 39.8075C32.0853 37.4061 25.8594 38.9404 25.8594 34.7601C25.8594 33.048 27.4159 31.6694 29.7728 31.6694C32.0186 31.6694 33.7307 32.7589 34.2199 34.4266L32.1297 35.2048C31.7962 33.9819 30.8623 33.5594 29.7728 33.5594C28.8389 33.5594 28.1496 33.9596 28.1496 34.6934C28.1496 36.8947 34.42 35.2493 34.42 39.7408C34.42 41.7865 32.5967 43.2318 30.1063 43.2318Z" fill="url(#paint11_linear_8989_877)"/>
<path d="M36.4642 43.0539V31.8473H38.8879V43.0539H36.4642ZM37.6872 30.1574C36.7533 30.1574 36.064 29.4904 36.064 28.5787C36.064 27.6671 36.7533 27 37.6872 27C38.6211 27 39.3326 27.6671 39.3326 28.5787C39.3326 29.4904 38.6211 30.1574 37.6872 30.1574Z" fill="url(#paint12_linear_8989_877)"/>
<path d="M46.48 43.2318C43.1447 43.2318 40.9879 40.9415 40.9879 37.4506C40.9879 33.9596 43.1447 31.6694 46.48 31.6694C48.0365 31.6694 49.4818 32.3587 50.1044 33.4038V27.3113H52.5725V43.0539H50.1044V41.4752C49.4818 42.5202 48.0142 43.2318 46.48 43.2318ZM46.7913 41.1416C48.748 41.1416 50.1044 39.6074 50.1044 37.4506C50.1044 35.2493 48.748 33.7595 46.7913 33.7595C44.8346 33.7595 43.456 35.2493 43.456 37.4506C43.456 39.6296 44.8346 41.1416 46.7913 41.1416Z" fill="url(#paint13_linear_8989_877)"/>
<path d="M60.2939 43.2318C56.9141 43.2318 54.6239 40.8304 54.6239 37.4506C54.6239 34.0708 56.9363 31.6694 60.2049 31.6694C63.7626 31.6694 65.9416 34.4266 65.4969 37.8953H57.0697C57.2476 39.8742 58.4706 41.1861 60.2939 41.1861C61.6947 41.1861 62.8732 40.3634 63.14 39.2739L65.408 39.8742C64.8521 41.8754 62.8509 43.2318 60.2939 43.2318ZM57.2032 36.0498H62.9843C62.9399 34.56 61.8281 33.6261 60.2049 33.6261C58.6929 33.6261 57.5812 34.4933 57.2032 36.0498Z" fill="url(#paint14_linear_8989_877)"/>
<path d="M67.624 43.0539V31.8473H70.0477V33.5149C70.6925 32.5366 72.0489 31.6694 73.8277 31.6694C76.2291 31.6694 77.9857 33.2036 77.9857 35.7829V43.0539H75.562V36.3166C75.562 34.7156 74.6282 33.804 73.2051 33.804C71.2484 33.804 70.0477 35.4716 70.0477 38.2066V43.0539H67.624Z" fill="url(#paint15_linear_8989_877)"/>
<path d="M85.5903 43.2318C82.2995 43.2318 79.9426 40.7859 79.9426 37.4284C79.9426 34.0931 82.2995 31.6694 85.5903 31.6694C88.3253 31.6694 90.4154 33.1369 90.8156 35.6051L88.3697 35.9608C88.1252 34.5822 87.1023 33.7595 85.5903 33.7595C83.7893 33.7595 82.4107 35.2715 82.4107 37.4284C82.4107 39.6074 83.7893 41.1416 85.5903 41.1416C87.169 41.1416 88.1919 40.2745 88.4142 38.9626L90.9268 39.2739C90.5933 41.6086 88.4809 43.2318 85.5903 43.2318Z" fill="url(#paint16_linear_8989_877)"/>
<path d="M93.9527 47.1007L95.7093 42.8982L91.329 31.8473H93.9527L96.9767 39.7853L99.9785 31.8473H102.536L96.5098 47.1007H93.9527Z" fill="url(#paint17_linear_8989_877)"/>
<defs>
<linearGradient id="paint0_linear_8989_877" x1="50.9062" y1="49.0547" x2="50.9062" y2="-4.94531" gradientUnits="userSpaceOnUse">
<stop/>
<stop offset="1" stop-color="#666666"/>
</linearGradient>
<linearGradient id="paint1_linear_8989_877" x1="50.9062" y1="49.0547" x2="50.9062" y2="-4.94531" gradientUnits="userSpaceOnUse">
<stop/>
<stop offset="1" stop-color="#666666"/>
</linearGradient>
<linearGradient id="paint2_linear_8989_877" x1="50.9062" y1="49.0547" x2="50.9062" y2="-4.94531" gradientUnits="userSpaceOnUse">
<stop/>
<stop offset="1" stop-color="#666666"/>
</linearGradient>
<linearGradient id="paint3_linear_8989_877" x1="50.9062" y1="49.0547" x2="50.9062" y2="-4.94531" gradientUnits="userSpaceOnUse">
<stop/>
<stop offset="1" stop-color="#666666"/>
</linearGradient>
<linearGradient id="paint4_linear_8989_877" x1="50.9062" y1="49.0547" x2="50.9062" y2="-4.94531" gradientUnits="userSpaceOnUse">
<stop/>
<stop offset="1" stop-color="#666666"/>
</linearGradient>
<linearGradient id="paint5_linear_8989_877" x1="50.9062" y1="49.0547" x2="50.9062" y2="-4.94531" gradientUnits="userSpaceOnUse">
<stop/>
<stop offset="1" stop-color="#666666"/>
</linearGradient>
<linearGradient id="paint6_linear_8989_877" x1="50.9062" y1="49.0547" x2="50.9062" y2="-4.94531" gradientUnits="userSpaceOnUse">
<stop/>
<stop offset="1" stop-color="#666666"/>
</linearGradient>
<linearGradient id="paint7_linear_8989_877" x1="50.9062" y1="49.0547" x2="50.9062" y2="-4.94531" gradientUnits="userSpaceOnUse">
<stop/>
<stop offset="1" stop-color="#666666"/>
</linearGradient>
<linearGradient id="paint8_linear_8989_877" x1="50.9062" y1="49.0547" x2="50.9062" y2="-4.94531" gradientUnits="userSpaceOnUse">
<stop/>
<stop offset="1" stop-color="#666666"/>
</linearGradient>
<linearGradient id="paint9_linear_8989_877" x1="50.9062" y1="49.0547" x2="50.9062" y2="-4.94531" gradientUnits="userSpaceOnUse">
<stop/>
<stop offset="1" stop-color="#666666"/>
</linearGradient>
<linearGradient id="paint10_linear_8989_877" x1="50.9062" y1="49.0547" x2="50.9062" y2="-4.94531" gradientUnits="userSpaceOnUse">
<stop/>
<stop offset="1" stop-color="#666666"/>
</linearGradient>
<linearGradient id="paint11_linear_8989_877" x1="50.9062" y1="49.0547" x2="50.9062" y2="-4.94531" gradientUnits="userSpaceOnUse">
<stop/>
<stop offset="1" stop-color="#666666"/>
</linearGradient>
<linearGradient id="paint12_linear_8989_877" x1="50.9062" y1="49.0547" x2="50.9062" y2="-4.94531" gradientUnits="userSpaceOnUse">
<stop/>
<stop offset="1" stop-color="#666666"/>
</linearGradient>
<linearGradient id="paint13_linear_8989_877" x1="50.9062" y1="49.0547" x2="50.9062" y2="-4.94531" gradientUnits="userSpaceOnUse">
<stop/>
<stop offset="1" stop-color="#666666"/>
</linearGradient>
<linearGradient id="paint14_linear_8989_877" x1="50.9062" y1="49.0547" x2="50.9062" y2="-4.94531" gradientUnits="userSpaceOnUse">
<stop/>
<stop offset="1" stop-color="#666666"/>
</linearGradient>
<linearGradient id="paint15_linear_8989_877" x1="50.9062" y1="49.0547" x2="50.9062" y2="-4.94531" gradientUnits="userSpaceOnUse">
<stop/>
<stop offset="1" stop-color="#666666"/>
</linearGradient>
<linearGradient id="paint16_linear_8989_877" x1="50.9062" y1="49.0547" x2="50.9062" y2="-4.94531" gradientUnits="userSpaceOnUse">
<stop/>
<stop offset="1" stop-color="#666666"/>
</linearGradient>
<linearGradient id="paint17_linear_8989_877" x1="50.9062" y1="49.0547" x2="50.9062" y2="-4.94531" gradientUnits="userSpaceOnUse">
<stop/>
<stop offset="1" stop-color="#666666"/>
</linearGradient>
</defs>
</svg>
