<svg width="92" height="55" viewBox="0 0 92 55" fill="none" xmlns="http://www.w3.org/2000/svg">
<path d="M16.2431 22.7216L14.4279 17.182H5.8837L4.06861 22.7216H0L7.66771 0.500837H13.3951L21.0941 22.7216H16.2431ZM6.91666 14.1151H13.3951L10.1714 4.22512L6.91666 14.1151ZM28.2855 0.500837V22.7216H23.7474V0.500837H28.2855ZM42.1951 23.1911C35.5287 23.1911 31.7418 18.0898 31.7418 11.6111C31.7418 5.07006 35.5287 0 42.2266 0C47.0774 0 50.9576 2.94195 51.4912 6.97926H46.8904C46.1698 4.44423 44.4787 3.03586 42.1006 3.03586C38.5645 3.03586 36.3425 6.50974 36.3425 11.6111C36.3425 16.6501 38.5645 20.1553 42.1006 20.1553C44.4787 20.1553 46.2644 18.5904 46.9829 15.8675H51.5206C51.1466 20.0614 47.1719 23.1911 42.1951 23.1911ZM64.0686 0.500837C68.6379 0.500837 71.579 3.12977 71.579 7.35489C71.579 11.5798 68.6379 14.1777 64.0686 14.1777H58.8734V22.7216H54.3356V0.500837H64.0686ZM58.8419 3.50539V11.1731H63.5371C65.6653 11.1731 67.1043 9.85862 67.1043 7.35489C67.1043 4.81986 65.6653 3.50539 63.5371 3.50539H58.8419ZM86.8728 22.7216L85.0577 17.182H76.5138L74.6987 22.7216H70.6294L78.2974 0.500837H84.0241L91.7235 22.7216H86.8728ZM77.5453 14.1151H84.0241L80.8015 4.22512L77.5453 14.1151ZM10.3351 31.512C14.5602 31.512 18.5662 33.7655 18.7225 37.8339H14.3098C14.2472 35.831 12.5884 34.4539 10.116 34.4539C7.70615 34.4539 6.45427 35.9875 6.45427 37.615C6.45427 39.6179 8.23806 40.2752 11.8374 41.0263C17.0326 42.1216 19.3486 44.0934 19.3486 47.849C19.3486 51.9802 16.0936 54.7344 10.7418 54.7344C5.17111 54.7344 1.69702 52.1367 1.44681 47.7864H6.01606C6.26647 50.478 8.61369 51.7611 10.9296 51.7611C13.3394 51.7611 15.0608 50.3214 15.0608 48.162C15.0608 45.7833 12.9953 45.1888 9.55253 44.4375C3.76273 43.1857 2.19785 41.2141 2.19785 37.9278C2.19785 34.3287 5.20242 31.512 10.3351 31.512ZM32.3754 31.512C39.0416 31.512 43.0481 36.5194 43.0481 43.1231C43.0481 49.7267 39.0416 54.7344 32.3754 54.7344C25.7404 54.7344 21.6718 49.7267 21.6718 43.1231C21.6718 36.5194 25.7404 31.512 32.3754 31.512ZM32.3754 34.5478C28.745 34.5478 26.3352 37.9278 26.3352 43.1231C26.3352 48.3185 28.745 51.6985 32.3754 51.6985C36.0684 51.6985 38.3843 48.3809 38.3843 43.1231C38.3843 37.8652 36.0684 34.5478 32.3754 34.5478ZM55.7642 54.7031C49.0984 54.7031 45.3127 49.6017 45.3127 43.1231C45.3127 36.582 49.0984 31.512 55.7957 31.512C60.6464 31.512 64.5287 34.4539 65.0602 38.4912H60.4595C59.7389 35.9562 58.0499 34.5478 55.6718 34.5478C52.134 34.5478 49.9135 38.0217 49.9135 43.1231C49.9135 48.162 52.134 51.6672 55.6718 51.6672C58.0499 51.6672 59.8334 50.1023 60.554 47.3795H65.0917C64.7157 51.5733 60.741 54.7031 55.7642 54.7031ZM80.6733 51.0099H89.9379V54.2335H74.5705V51.4794L80.3288 45.8772C82.9884 43.3109 85.4296 40.7758 85.4296 38.053C85.4296 35.7997 84.1775 34.4539 82.3015 34.4539C80.2658 34.4539 78.7952 36.3005 78.6692 38.6164H74.289C74.3815 34.7669 77.8247 31.5746 82.3015 31.5746C87.3707 31.5746 89.7803 34.5791 89.7803 38.053C89.7803 42.059 86.8392 45.0323 83.396 48.3809L80.6733 51.0099Z" fill="url(#paint0_linear_8989_876)"/>
<defs>
<linearGradient id="paint0_linear_8989_876" x1="45.8618" y1="54.7344" x2="45.8618" y2="0" gradientUnits="userSpaceOnUse">
<stop/>
<stop offset="1" stop-color="#666666"/>
</linearGradient>
</defs>
</svg>
