<svg xmlns="http://www.w3.org/2000/svg" width="500" height="500" fill="none" viewBox="0 0 500 500"><g fill="#FCFCFC" clip-path="url(#clip0_1347_146)"><path d="M498.015 211.262c-.959-1.665-1.96-3.33-3.132-5.159-7.819-12.393-17.035-23.824-27.39-33.96l-.171-.165-3.208-3.089a182.684 182.684 0 0 0-23.852-18.847c-.254-.163-.509-.326-.722-.49-.636-.406-1.231-.814-1.867-1.221-.213-.164-.467-.284-.68-.448l-.015-.633-.021-.886-.021-.886c-.408-9.996-1.65-19.971-3.594-29.592l-.237-1.177a253.48 253.48 0 0 0-.706-3.276l-.004-.169c-3.454-15.072-8.692-29.638-15.666-43.36-.791-1.627-1.709-3.336-2.758-5.253l-1.049-1.917-2.064-.71a97.282 97.282 0 0 0-5.602-1.85c-6.822-2.2-13.842-3.974-20.769-5.327a181.33 181.33 0 0 0-21.504-2.903 126.562 126.562 0 0 0-4.646-.31c-10.793-.543-21.731-.154-32.519 1.245-.625.057-1.291.158-1.916.257-.129-.166-.258-.332-.428-.454a187.618 187.618 0 0 0-22.323-21.29c-1.235-.984-2.47-1.967-3.62-2.868l-.086-.083C285.144 17.027 271.709 9.117 257.481 3a209.32 209.32 0 0 0-5.528-2.274L249.97-.07l-1.987.765c-1.532.586-3.561 1.352-5.505 2.2-13.361 5.599-26.101 12.744-37.763 21.256l-1.888 1.397c-.657.48-1.272.96-1.846 1.437-9.108 6.974-17.61 14.861-25.301 23.405a183.224 183.224 0 0 0-31.133-1.912c-1.503.036-3.09.075-4.675.197-15.443.709-30.796 3.4-45.686 7.979-1.825.55-3.732 1.187-5.68 1.867l-1.988.723-1.042 1.84c-.922 1.627-1.84 3.38-2.84 5.261a190.638 190.638 0 0 0-15.553 41.367 248.83 248.83 0 0 0-1.058 4.627 189.569 189.569 0 0 0-4.37 33.794c-8.932 5.618-17.47 11.987-25.283 18.972a228.787 228.787 0 0 0-3.517 3.166 188.34 188.34 0 0 0-29.606 35.54l-.121.172a106.442 106.442 0 0 0-3.058 4.928l-1.083 1.842.385 2.143c.385 2.102.807 4.034 1.187 5.924a190.8 190.8 0 0 0 14.636 42.246l.088.167c.702 1.418 1.404 2.794 2.106 4.171l1.008 1.96a189.005 189.005 0 0 0 16.84 26.15c-3.346 10.296-5.848 20.953-7.39 31.586l.003.085c-.213 1.567-.428 3.092-.642 4.617-1.849 15.2-1.855 30.61.015 45.847.257 1.978.514 3.998.81 5.891l.344 2.145 1.663 1.395a168.489 168.489 0 0 0 4.644 3.73l.213.164a184.93 184.93 0 0 0 38.533 22.969l.507.242c.549.24 1.056.481 1.647.72l2.195.918c10.044 4.15 20.485 7.445 31.112 9.765a187.106 187.106 0 0 0 14.748 29.535l.608.957 1.956 3.119c8.2 12.637 17.881 24.267 28.824 34.559a171.973 171.973 0 0 0 4.4 3.989l1.623 1.481 2.172-.052 5.929-.143a182.497 182.497 0 0 0 20.883-2.105 182.367 182.367 0 0 0 20.782-4.552l2.739-.784c1.493-.458 2.946-.873 4.438-1.373a188.417 188.417 0 0 0 29.989-12.668c.211.122.423.243.634.323.169.08.381.202.55.282 9.438 5.008 19.275 9.247 29.299 12.552.758.236 1.474.472 2.233.749l2.273.705a183.981 183.981 0 0 0 43.721 7.647l2.97.139c.962.02 1.966.08 2.969.098l2.174.032 1.637-1.432a151.402 151.402 0 0 0 4.418-3.948c10.3-9.535 19.57-20.228 27.522-31.859l1.572-2.36-.002-.085a77.192 77.192 0 0 0 2.539-3.902c3.218-5.186 6.184-10.45 8.815-15.706l.995-2.05a188.272 188.272 0 0 0 4.601-10.243c.119-.256.238-.554.357-.81s.196-.512.316-.768a.918.918 0 0 0 .333-.05.918.918 0 0 0 .333-.05c.291-.049.623-.142.914-.191.749-.145 1.455-.33 2.162-.474a187.577 187.577 0 0 0 27.95-8.819l2.151-.896c.744-.314 1.447-.626 2.192-.939a186.183 186.183 0 0 0 38.4-22.538l2.38-1.83 3.974-3.262.327-2.076c.185-.976.329-1.95.472-2.967l.43-2.965a192.716 192.716 0 0 0 .562-44.426c-.166-1.685-.374-3.411-.531-4.716a181.923 181.923 0 0 0-2.952-16.773 214.855 214.855 0 0 0-3.407-13.132c-.091-.294-.18-.545-.271-.838-.09-.294-.18-.545-.271-.838-.137-.503-.316-1.006-.454-1.509l1.217-1.549c.162-.215.364-.473.526-.688.162-.215.365-.473.527-.688a188.597 188.597 0 0 0 14.541-22.598l1.04-1.925c.719-1.368 1.437-2.778 2.156-4.189 6.737-13.502 11.907-27.853 15.27-42.668l.64-2.928c.19-.807.337-1.613.485-2.418l.521-2.672-1.09-1.874-.087-.167Zm-76.976-54.384 1.396.684.128.124.009.38-.104.889-.394 4.484.012.464c-.625 10.527-2.17 20.992-4.602 31.098l-.647 2.633a140.588 140.588 0 0 1-1.653 5.992c-1.159 3.912-2.445 7.785-3.9 11.577-10.964-9.404-22.983-17.517-35.721-24.219l-.084.002a32.968 32.968 0 0 0-1.99-1.092l-1.226-.604s-.212-.121-.296-.161a29.227 29.227 0 0 0-.254-.121l-3.001-1.448.216-3.171c.124-1.776.215-3.214.266-4.566a196.693 196.693 0 0 0-2.215-41.784c4.908.811 9.781 1.876 14.532 3.113l.883.232c2.186.581 3.996 1.128 5.763 1.635 9.807 2.973 19.471 6.962 28.738 11.806l3.34 1.608.803.403.001.042Zm-46.451 110.078-9.897 10.665 7.269 17.346c5.015 12.207 8.662 24.868 10.848 37.608l.146.883c.099.631.199 1.304.341 2.018-.869.359-1.697.674-2.526.947-11.971 4.341-24.517 7.344-37.222 8.958l-1.042.109c-.708.102-1.499.205-2.334.267l-16.091 1.527-4.086 14.283-1.2 3.955-.467 1.446a180.959 180.959 0 0 1-14.694 33.62l-.28.513a48.799 48.799 0 0 1-1.686 2.87l-2.235-.833a173.926 173.926 0 0 1-35.107-17.775c-.593-.365-1.104-.733-1.656-1.1l-1.486-.977-12.621-8.816-12.246 8.526c-.904.655-1.933 1.313-3.249 2.189-10.781 6.929-22.217 12.65-34.062 17.03l-.125.003c-1.117.449-2.277.899-3.396 1.263-.261-.416-.48-.832-.74-1.248l-.568-1.042c-6.415-11.329-11.595-23.49-15.452-36.189l-.226-.712c-.182-.629-.41-1.426-.683-2.348l-4.174-15.478-11.142-1.125a247.334 247.334 0 0 1-5.529-.585c-.712-.067-1.425-.177-2.137-.244-6.329-.819-12.668-2.06-18.889-3.599a175.616 175.616 0 0 1-17.551-5.32l-.885-.317c-1.011-.355-2.024-.753-3.078-1.15.145-.932.329-1.95.551-3.137l.485-2.461c2.305-11.876 5.91-23.572 10.653-34.831.237-.597.674-1.536 1.03-2.347l.08-.171c.95-2.176 1.692-4.346 2.356-6.262l3.477-10.089-7.488-7.293-1.926-1.938c-.986-1.031-1.886-1.981-2.746-2.973a194.006 194.006 0 0 1-12.443-15.322c-3.588-4.98-6.928-10.092-9.85-15.214l-.743-1.334-1.179-2.124c-.002-.085-.087-.167-.131-.25l.41-.348 2.62-2.216c9.054-7.521 18.964-14.134 29.485-19.706l2.518-1.285a70.118 70.118 0 0 1 3.221-1.597l12.765-6.09-.342-14.219-.024-1.013-.029-1.181a28.17 28.17 0 0 1-.185-2.486l-.011-.465c-.551-12.525.191-25.123 2.236-37.373l.552-3.137c.071-.509.184-1.018.297-1.527a85.789 85.789 0 0 1 4.346.022l2.382.027c11.583.355 23.277 1.89 34.748 4.569 1.471.345 2.69.653 3.783.923l14.637 3.996 9.451-13.567s.324-.43.485-.687l1.419-1.807c7.576-9.892 16.132-18.963 25.384-26.911l2.13-1.782c.368-.347.779-.652 1.147-.957l.299.246c.852.698 1.705 1.437 2.687 2.3l.384.329c9.347 8.176 17.884 17.428 25.44 27.589l.82 1.078.086.083c.474.622.95 1.286 1.426 1.992l8.356 12.127 14.209-3.339c.624-.142 1.247-.283 1.828-.466.789-.188 1.62-.377 2.493-.567 13.175-2.934 26.678-4.356 39.802-4.206l.334-.008c.459-.012.919-.023 1.379.009.236 1.134.435 2.438.723 3.993a178.438 178.438 0 0 1 2 38.074l.017.675-.039.127c-.019.93-.118 2.03-.21 3.425l-1.103 14.971 13.145 6.27s.381.202.593.324l3.215 1.654c10.791 5.651 21.025 12.497 30.446 20.292l2.346 2.013c.554.451 1.067.903 1.579 1.355-.48.898-1.042 1.84-1.683 2.995-9.185 15.968-21.562 29.479-22.947 30.99-1.18 1.295-2.159 2.289-2.77 2.937l-.123.13-.125.003Zm-244.672-88.309.003.126c.025 1.055.054 2.237.17 3.585l.005.211.004.168.006.254.01.422.073 3.037-2.727 1.29c-1.239.579-2.519 1.243-3.922 1.952l-2.436 1.241c-10.933 5.793-21.298 12.627-30.807 20.328-1.301-3.726-2.521-7.538-3.574-11.355l-.183-.671a146.012 146.012 0 0 1-1.526-6.127 170.773 170.773 0 0 1-4.21-30.928l-.402-6.281 5.492-2.707.083-.002c9.988-5.137 20.503-9.231 31.335-12.278a117.161 117.161 0 0 1 6.022-1.538c2.991-.705 5.984-1.368 8.979-1.904-2.266 13.522-3.063 27.303-2.439 41.093l.044.084ZM357.453 66.753c1.465.091 2.803.143 4.102.281l.125-.003c6.572.518 13.153 1.373 19.577 2.654 6.296 1.2 12.645 2.862 18.876 4.823l.125-.002c.296.12.549.24.844.317.132.292.264.585.44.918 6.271 12.346 11.016 25.488 14.141 39.049l.096.504.846 3.906.717 3.782c.819 4.54 1.433 9.211 1.879 13.845a187.297 187.297 0 0 0-26.152-10.264c-1.979-.628-4.082-1.211-6.564-1.869l-.673-.195-.125.003a178.184 178.184 0 0 0-20.49-4.152 176.91 176.91 0 0 0-6.259-17.032l-.003-.126c-.881-1.921-1.767-4.01-2.868-6.348a192.23 192.23 0 0 0-17.517-29.976c6.3-.404 12.608-.43 18.883-.115ZM319.285 69.4l.086.083.125-.003 3.246 4.65.258.331a172.063 172.063 0 0 1 17.677 29.677l.003.126a72.172 72.172 0 0 1 2.206 4.844l.353.794c1.331 3.219 2.62 6.438 3.743 9.704-14.25-.08-28.669 1.491-42.759 4.616l-2.991.705c-.457.138-.956.234-1.454.373l-3.033.706-1.775-2.575c-.908-1.287-1.73-2.449-2.593-3.568l-.002-.085c-8.116-10.866-17.298-20.862-27.329-29.697 3.626-2.114 7.338-4.145 11.055-5.965l2.726-1.29a198.072 198.072 0 0 1 5.664-2.542l.786-.315a168.54 168.54 0 0 1 28.154-9.035l5.939-1.494-.085-.04ZM211.17 40.63l.081-.087c.492-.391.984-.783 1.519-1.134l1.848-1.353c10.594-7.727 22.138-14.21 34.299-19.315l.126-.003c.288-.175.537-.266.826-.4.295.12.633.28.929.4 12.792 5.52 24.912 12.574 36.021 21.046l.255.205c1.193.942 2.384 1.842 3.408 2.704a173.453 173.453 0 0 1 14.009 12.667 179.445 179.445 0 0 0-26.69 9.084l-.165.088a168.86 168.86 0 0 0-6.118 2.765l-2.891 1.378-.455.222a183.044 183.044 0 0 0-16.325 9.173 191.729 191.729 0 0 0-15.381-8.876l-.423-.243c-1.861-.926-3.849-1.934-6.216-3.06l-.169-.08a188.15 188.15 0 0 0-33.838-11.894c4.858-4.76 9.975-9.19 15.349-13.33l.001.043Zm-30.54 33.198 3.68-5.07 5.719 1.51.294.077c11.137 2.645 22.007 6.395 32.317 11.213l.888.401c1.057.523 2.071 1.006 3.001 1.448l1.777.928a147.632 147.632 0 0 1 8.002 4.367l-.655.565a194.573 194.573 0 0 0-28.358 30.106l-1.013 1.291c-.324.43-.608.817-.891 1.203l-2.667 3.78-3.112-.854c-1.43-.388-2.817-.735-4.33-1.078-12.605-2.948-25.473-4.624-38.184-4.994l-.877.021c1.605-4.513 3.462-8.948 5.447-13.302a142.458 142.458 0 0 1 2.745-5.723l.2-.385c4.549-8.932 9.942-17.505 15.975-25.503h.042Zm-98.054 42.208c.303-1.274.602-2.758.985-4.203A172.523 172.523 0 0 1 97.7 74.216l.48-.898c.331-.093.664-.185.953-.319 13.521-4.166 27.46-6.612 41.484-7.244l.292-.007a132.84 132.84 0 0 1 4.007-.18c6.681-.161 13.373.1 20.074.741-5.865 8.078-11.09 16.69-15.598 25.579l.002.084a120.702 120.702 0 0 0-2.986 6.15 176.357 176.357 0 0 0-8.186 21.01l.002.085c-.584.056-1.166.155-1.749.253a176.632 176.632 0 0 0-16.844 3.233c-2.286.519-4.528 1.122-6.686 1.723a186.73 186.73 0 0 0-33.574 13.007 165.593 165.593 0 0 1 3.37-21.443l-.165.046ZM33.41 259.235l-.965-1.877c-.481-.917-.963-1.834-1.404-2.794l-.484-1.002c-5.934-12.227-10.466-25.205-13.378-38.603-.05-.294-.14-.63-.232-.965l1.974-3.045c7.34-11.026 15.87-21.152 25.434-30.078 1.103-1.04 2.166-1.994 3.23-2.949a169.538 169.538 0 0 1 16.403-12.89c.637 10.835 2.149 21.606 4.573 32.06a155.791 155.791 0 0 0 1.663 6.63l.002.084a200.116 200.116 0 0 0 6.489 19.644c.09.251.222.544.311.795.045.126.133.292.178.46a6.506 6.506 0 0 0-.487.561c-.162.215-.366.431-.57.647-4.07 4.53-7.964 9.394-11.644 14.464l-1.98 2.792a68.68 68.68 0 0 0-1.979 2.876 192.146 192.146 0 0 0-16.61 30.373 168.28 168.28 0 0 1-10.525-17.183Zm50.754 138.646-2.069-.879c-.464-.2-.886-.359-1.351-.601l-.55-.24a170.258 170.258 0 0 1-35.184-21.024l-.767-.614-.15-1.052a171.58 171.58 0 0 1-.04-41.667l-.004-.127c.174-1.482.389-2.964.567-4.235l-.008-.338a183.26 183.26 0 0 1 4.283-19.987c7.724 8.427 16.265 16.116 25.329 22.949l2.807 2.043c.935.695 1.87 1.348 2.847 2a191.562 191.562 0 0 0 16.16 10.04c.509.283 1.059.566 1.567.849l.013.548c-.254 6.803-.173 13.683.326 20.51.136 2.192.359 4.509.582 6.867a193.98 193.98 0 0 0 6.113 31.812 167.168 167.168 0 0 1-20.474-6.939l.002.085Zm26.334-110.861A196.562 196.562 0 0 0 98.8 325.296l-.109.678a148.691 148.691 0 0 1-9.168-5.943c-.935-.653-1.742-1.225-2.507-1.756l-2.68-1.962c-8.467-6.34-16.37-13.58-23.579-21.428l-4.287-4.541 2.418-5.462.119-.256a171.006 171.006 0 0 1 15.602-28.871 217.93 217.93 0 0 0 1.694-2.532l1.94-2.706a155.25 155.25 0 0 1 6.445-8.261c3.05 5.204 6.434 10.4 10.063 15.379a198.11 198.11 0 0 0 13.649 16.77c1.03 1.157 2.059 2.23 3.087 3.303l1.499 1.526.471.453c-.546 1.618-1.133 3.278-1.767 4.729-.396.896-.872 1.963-1.148 2.645l-.043-.041Zm12.995 121.779-1.462-5.2-.229-.839a176.094 176.094 0 0 1-6.311-31.384l-.002-.085c-.22-2.19-.397-4.338-.57-6.318a176.976 176.976 0 0 1-.382-12.445 193.535 193.535 0 0 0 17.466 5.237c6.809 1.694 13.818 3.004 20.777 3.934.755.109 1.508.175 2.305.282 1.801.211 3.561.422 5.32.59l.964 3.608s.004.169.047.21l.092.335c.32 1.133.595 2.181.956 3.27 4.086 13.538 9.58 26.578 16.347 38.701-3.412.588-6.828 1.008-10.287 1.386-2.209.222-4.21.397-6.254.531-2.253.138-4.591.237-6.888.292a170.008 170.008 0 0 1-25.729-1.366l-6.158-.655-.002-.084Zm89.174 62.999c-1.285.411-2.612.822-3.857 1.19l-2.655.782a156.7 156.7 0 0 1-18.872 4.084 168.739 168.739 0 0 1-19.006 1.934l-1.003.024c-.255-.205-.47-.453-.769-.7a171.991 171.991 0 0 1-26.199-31.371c-.607-.914-1.172-1.829-1.737-2.744l-.565-.915c-3.435-5.575-6.542-11.411-9.36-17.422 11.524 1.412 23.232 1.764 34.704 1.024 2.17-.137 4.463-.319 6.922-.589a184.07 184.07 0 0 0 19.564-3.087c4.315 5.68 8.958 11.141 13.843 16.174a181.327 181.327 0 0 0 4.838 4.866 189.005 189.005 0 0 0 23.275 19.198 166.425 166.425 0 0 1-19.207 7.512l.084.04Zm42.372-19.002c-1.645 1.095-3.248 2.231-4.81 3.281l-4.802-3.346-.34-.245a168.561 168.561 0 0 1-24.755-19.923 111.385 111.385 0 0 1-4.368-4.412 171.66 171.66 0 0 1-9.277-10.501c12.339-4.686 24.31-10.758 35.584-18.037a283.208 283.208 0 0 0 3.701-2.453l2.589-1.835 2.72 1.919c.254.163.467.326.722.489l.042-.001c.936.695 1.869 1.306 2.889 1.999a190.358 190.358 0 0 0 38.196 19.389 174.984 174.984 0 0 1-6.917 7.766l-2.732 2.809a112.2 112.2 0 0 1-2.245 2.207 170.588 170.588 0 0 1-25.953 20.634l-.329.219.085.041Zm111.91-23.712-.956 1.922a182.351 182.351 0 0 1-8.015 14.251 286.568 286.568 0 0 0-2.336 3.645l-1.41 2.144a169.786 169.786 0 0 1-25.002 28.928c-.246.217-.449.433-.695.65l-1.13-.057c-13.388-.734-26.73-3.031-39.567-6.902l-2.231-.706a53.111 53.111 0 0 1-1.937-.629 166.514 166.514 0 0 1-16.957-6.643c9.417-6.306 18.313-13.443 26.396-21.32.816-.822 1.633-1.602 2.449-2.423l2.448-2.466c4.443-4.623 8.71-9.623 12.764-14.829a192.12 192.12 0 0 0 20.43 3.393l3.35.342c1.131.1 2.262.199 3.391.256 9.669.697 19.569.586 29.326-.24l-.358.769.04-.085Zm19.585-66.583-.183 2.833a228.463 228.463 0 0 1-.562 6.178c-1.198 11.005-3.484 21.909-6.7 32.414l-1.499 5.44-.114.467-.121.172-2.335.225-3.336.291-.459.011a162.08 162.08 0 0 1-31.987.768l-.668.016c-.88-.105-1.634-.171-2.304-.24l-3.267-.301a160.482 160.482 0 0 1-14.217-2.192 195.375 195.375 0 0 0 16.346-37.923l-.003-.127c.467-1.404.893-2.808 1.318-4.253l.847-3.018 3.293-.332.417-.01.334-.008c1.208-.156 2.376-.269 3.417-.42l.125-.003a190.46 190.46 0 0 0 41.711-9.952c.084-.002.166-.046.249-.09-.003 3.377-.09 6.714-.261 10.011l-.041.043Zm1.142-74.202-2.969-7.064 2.159-2.331c.611-.648 1.712-1.772 3.056-3.24 2.484-2.677 15.347-16.875 25.254-34.084l.241-.386a173.85 173.85 0 0 1 7.414 9.447l1.513 2.117a132.676 132.676 0 0 1 3.464 5.067l1.302 1.995a178.162 178.162 0 0 1 13.801 26.603l1.72 3.801.354.793.353.794.132.292-.122.13-.408.39-.612.605-.612.648-2.284 2.293-.409.389a173.87 173.87 0 0 1-24.67 21.87c-1.643 1.18-3.327 2.402-5.096 3.542-3.783 2.54-7.735 4.999-11.777 7.207a197.194 197.194 0 0 0-11.848-41.004l.044.126Zm64.999 86.292-.246 1.948-.862.654c-10.751 8.153-22.493 15.063-34.858 20.426l-.125.003c-.618.352-1.156.576-1.694.8l-2.11.853c-5.255 2.153-10.684 4.014-16.202 5.624 2.929-10.244 4.973-20.805 6.139-31.43.238-2.243.475-4.571.627-6.939l.18-2.959c.325-5.581.397-11.282.177-16.976 5.817-3.094 11.584-6.526 17.011-10.202a133.58 133.58 0 0 0 5.588-3.934 189.079 189.079 0 0 0 22.925-19.717c.231.923.421 1.847.652 2.77 1.126 5.124 2.043 10.252 2.665 15.303.15 1.01.307 2.315.42 3.536l.018.76c1.442 13.095 1.301 26.354-.348 39.439l.043.041Zm28.186-157.26c-3.103 13.458-7.762 26.488-13.861 38.709-.639 1.239-1.156 2.307-1.636 3.205l-1.32 2.438a173.234 173.234 0 0 1-7.758 12.767c-4.103-9.062-8.868-17.813-14.247-26.043l-.217-.333c-1.084-1.662-2.253-3.365-3.509-5.193l-.13-.208c-3.979-5.603-8.33-11.071-12.927-16.323a187.094 187.094 0 0 0 6.257-17.839c.735-2.424 1.31-4.591 1.846-6.63l.686-2.76c2.277-9.554 3.88-19.387 4.687-29.243a176.332 176.332 0 0 1 13.943 11.655l2.994 2.883 1.883 1.855c8.651 8.742 16.448 18.518 23.052 29.04.174.291.39.582.564.873l-.224 1.103-.083.044Z"/><path fill-rule="evenodd" d="M267.613 267.11a116.757 116.757 0 0 1-17.205 14.342 116.762 116.762 0 0 1-17.21-14.346A117.32 117.32 0 0 1 219 249.727a117.388 117.388 0 0 1 14.201-17.385A116.747 116.747 0 0 1 250.406 218a116.64 116.64 0 0 1 17.21 14.345 117.38 117.38 0 0 1 14.198 17.38 117.388 117.388 0 0 1-14.201 17.385Z" clip-rule="evenodd"/></g><defs><clipPath id="clip0_1347_146"><path fill="#fff" d="M0 0h500v500H0z"/></clipPath></defs></svg>