<svg width="187" height="204" viewBox="0 0 187 204" fill="none" xmlns="http://www.w3.org/2000/svg">
<path d="M155.727 182.511H179V186.761L164.352 196.886V197.057H179V201.977H155.727V197.659L170.364 187.614V187.409H155.727V182.511ZM179 174.435V179.707L155.727 171.673V165.332L179 157.31V162.582L161.045 168.412V168.594L179 174.435ZM169.852 174.764V162.31H173.693V174.764H169.852ZM155.727 153.21L173.409 147.585V147.369L155.727 141.733V136.278L179 144.301V150.642L155.727 158.676V153.21ZM163.875 114.256V119.233C163.231 119.324 162.659 119.509 162.159 119.79C161.652 120.07 161.22 120.43 160.864 120.869C160.508 121.309 160.235 121.816 160.045 122.392C159.856 122.96 159.761 123.578 159.761 124.244C159.761 125.449 160.061 126.498 160.659 127.392C161.25 128.286 162.114 128.979 163.25 129.472C164.379 129.964 165.75 130.21 167.364 130.21C169.023 130.21 170.417 129.964 171.545 129.472C172.674 128.972 173.527 128.275 174.102 127.381C174.678 126.487 174.966 125.453 174.966 124.278C174.966 123.619 174.879 123.009 174.705 122.449C174.53 121.881 174.277 121.377 173.943 120.938C173.602 120.498 173.189 120.134 172.705 119.847C172.22 119.551 171.667 119.347 171.045 119.233L171.068 114.256C172.136 114.384 173.167 114.706 174.159 115.222C175.144 115.729 176.027 116.415 176.807 117.278C177.58 118.134 178.193 119.157 178.648 120.347C179.095 121.528 179.318 122.866 179.318 124.358C179.318 126.434 178.848 128.29 177.909 129.926C176.97 131.555 175.61 132.843 173.83 133.79C172.049 134.729 169.894 135.199 167.364 135.199C164.826 135.199 162.667 134.722 160.886 133.767C159.106 132.812 157.75 131.517 156.818 129.881C155.879 128.244 155.409 126.403 155.409 124.358C155.409 123.009 155.598 121.759 155.977 120.608C156.356 119.449 156.909 118.422 157.636 117.528C158.356 116.634 159.239 115.907 160.284 115.347C161.33 114.778 162.527 114.415 163.875 114.256ZM179 110.727H155.727V105.807H165.33V95.8182H155.727V90.9091H179V95.8182H169.386V105.807H179V110.727ZM179 86.8523H155.727V71.1705H159.784V81.9318H165.33V71.9773H169.386V81.9318H174.943V71.125H179V86.8523ZM159.784 68.1449H155.727V49.0312H159.784V56.1562H179V61.0199H159.784V68.1449ZM155.727 26.4176H179V30.6676L164.352 40.7926V40.9631H179V45.8835H155.727V41.5653L170.364 31.5199V31.3153H155.727V26.4176ZM179 18.3409V23.6136L155.727 15.5795V9.23864L179 1.21591V6.48864L161.045 12.3182V12.5L179 18.3409ZM169.852 18.6705V6.21591H173.693V18.6705H169.852Z" fill="white"/>
<rect x="112" y="4" width="33" height="200" rx="2" fill="white"/>
<rect y="26" width="36" height="139" rx="2" fill="white"/>
<rect x="8" y="45.2483" width="33" height="188.647" transform="rotate(-33.5717 8 45.2483)" fill="white"/>
</svg>
