<svg width="315" height="310" viewBox="0 0 315 310" fill="none" xmlns="http://www.w3.org/2000/svg">
<path d="M160.081 90.8691C195.454 90.8691 224.13 119.545 224.13 154.918C224.13 190.291 195.454 218.968 160.081 218.968C124.708 218.968 96.0322 190.291 96.0322 154.918C96.0325 119.545 124.708 90.8692 160.081 90.8691Z" stroke="#C1C1C1"/>
<path d="M160.081 50.8484C217.557 50.8484 264.15 97.4426 264.15 154.919C264.15 212.395 217.557 258.988 160.081 258.988C102.605 258.988 56.012 212.395 56.0117 154.919C56.0117 97.4426 102.605 50.8485 160.081 50.8484Z" stroke="#C1C1C1"/>
<path d="M160.083 0.5C245.365 0.500165 314.5 69.6353 314.5 154.918C314.5 240.201 245.365 309.337 160.083 309.337C74.8005 309.337 5.66504 240.201 5.66504 154.918C5.66524 69.6352 74.8006 0.5 160.083 0.5Z" stroke="#C1C1C1"/>
<path d="M220.502 146.003C230.921 146.003 239.367 154.45 239.367 164.869C239.367 175.287 230.92 183.733 220.502 183.733C210.084 183.733 201.638 175.287 201.638 164.869C201.638 154.45 210.083 146.004 220.502 146.003Z" fill="#F1F1F1" stroke="#D1D1D1"/>
<path d="M225.932 163.036C226.44 162.655 226.815 162.124 227.005 161.518C227.194 160.911 227.188 160.261 226.987 159.659C226.786 159.056 226.401 158.532 225.886 158.161C225.371 157.789 224.752 157.59 224.117 157.59H218.67C218.035 157.59 217.416 157.789 216.901 158.161C216.386 158.532 216.001 159.056 215.8 159.659C215.599 160.261 215.593 160.911 215.782 161.518C215.971 162.124 216.347 162.655 216.855 163.036C216.47 163.324 216.16 163.7 215.949 164.132C215.739 164.564 215.634 165.04 215.644 165.521C215.654 166.002 215.779 166.473 216.007 166.896C216.236 167.319 216.562 167.681 216.958 167.953C216.507 168.296 216.151 168.748 215.924 169.267C215.697 169.786 215.606 170.354 215.659 170.918C215.713 171.482 215.91 172.023 216.231 172.489C216.552 172.956 216.987 173.333 217.495 173.585C218.003 173.836 218.566 173.954 219.132 173.927C219.698 173.9 220.247 173.729 220.728 173.43C221.21 173.131 221.607 172.714 221.882 172.219C222.157 171.724 222.301 171.167 222.301 170.6V167.877C222.943 168.359 223.75 168.565 224.544 168.452C225.339 168.338 226.056 167.914 226.537 167.272C227.019 166.63 227.225 165.823 227.112 165.029C226.998 164.234 226.574 163.517 225.932 163.036ZM225.932 160.615C225.932 161.097 225.741 161.559 225.4 161.899C225.06 162.24 224.598 162.431 224.117 162.431H222.301V158.8H224.117C224.598 158.8 225.06 158.991 225.4 159.332C225.741 159.672 225.932 160.134 225.932 160.615ZM216.855 160.615C216.855 160.134 217.046 159.672 217.386 159.332C217.727 158.991 218.189 158.8 218.67 158.8H221.091V162.431H218.67C218.189 162.431 217.727 162.24 217.386 161.899C217.046 161.559 216.855 161.097 216.855 160.615ZM218.67 167.272C218.189 167.272 217.727 167.081 217.386 166.74C217.046 166.4 216.855 165.938 216.855 165.457C216.855 164.975 217.046 164.513 217.386 164.173C217.727 163.832 218.189 163.641 218.67 163.641H221.091V167.272H218.67ZM221.091 170.6C221.091 171.019 220.967 171.429 220.734 171.777C220.501 172.125 220.17 172.397 219.783 172.557C219.396 172.717 218.97 172.759 218.56 172.678C218.149 172.596 217.771 172.394 217.475 172.098C217.179 171.802 216.977 171.424 216.895 171.014C216.814 170.603 216.856 170.177 217.016 169.79C217.176 169.403 217.448 169.072 217.796 168.839C218.144 168.607 218.554 168.482 218.973 168.482H221.091V170.6ZM224.117 167.272C223.757 167.272 223.406 167.166 223.108 166.966C222.809 166.767 222.577 166.483 222.439 166.151C222.302 165.82 222.266 165.455 222.336 165.102C222.406 164.75 222.579 164.427 222.833 164.173C223.087 163.919 223.41 163.746 223.762 163.676C224.114 163.606 224.48 163.642 224.811 163.779C225.143 163.917 225.427 164.149 225.626 164.448C225.825 164.746 225.932 165.097 225.932 165.457C225.932 165.938 225.741 166.4 225.4 166.74C225.06 167.081 224.598 167.272 224.117 167.272Z" fill="#D16F2E"/>
<path d="M166.536 35.3566C176.955 35.3566 185.401 43.8031 185.401 54.2219C185.401 64.6404 176.955 73.0861 166.536 73.0861C156.118 73.0859 147.672 64.6402 147.672 54.2219C147.672 43.8033 156.118 35.3569 166.536 35.3566Z" fill="#F1F1F1" stroke="#D1D1D1"/>
<path d="M173.962 46.8607H159.84C159.499 46.8607 159.172 46.9959 158.932 47.2367C158.691 47.4775 158.556 47.804 158.556 48.1445V59.6992C158.556 60.0397 158.691 60.3662 158.932 60.607C159.172 60.8478 159.499 60.983 159.84 60.983H173.962C174.302 60.983 174.629 60.8478 174.87 60.607C175.111 60.3662 175.246 60.0397 175.246 59.6992V48.1445C175.246 47.804 175.111 47.4775 174.87 47.2367C174.629 46.9959 174.302 46.8607 173.962 46.8607ZM173.962 59.6992H159.84V48.1445H173.962V59.6992ZM163.049 50.3913C163.049 50.5817 162.993 50.7679 162.887 50.9262C162.781 51.0846 162.631 51.208 162.455 51.2808C162.279 51.3537 162.085 51.3728 161.898 51.3356C161.712 51.2985 161.54 51.2068 161.405 51.0721C161.271 50.9375 161.179 50.7659 161.142 50.5791C161.105 50.3923 161.124 50.1987 161.197 50.0228C161.27 49.8468 161.393 49.6964 161.551 49.5906C161.71 49.4848 161.896 49.4284 162.086 49.4284C162.342 49.4284 162.587 49.5298 162.767 49.7104C162.948 49.891 163.049 50.1359 163.049 50.3913ZM166.259 50.3913C166.259 50.5817 166.202 50.7679 166.097 50.9262C165.991 51.0846 165.84 51.208 165.664 51.2808C165.488 51.3537 165.295 51.3728 165.108 51.3356C164.921 51.2985 164.75 51.2068 164.615 51.0721C164.48 50.9375 164.389 50.7659 164.352 50.5791C164.314 50.3923 164.333 50.1987 164.406 50.0228C164.479 49.8468 164.603 49.6964 164.761 49.5906C164.919 49.4848 165.105 49.4284 165.296 49.4284C165.551 49.4284 165.796 49.5298 165.977 49.7104C166.157 49.891 166.259 50.1359 166.259 50.3913Z" fill="#795CE1"/>
<path d="M19.3643 71.5042C29.7829 71.5042 38.2295 79.9507 38.2295 90.3694C38.2293 100.788 29.7828 109.234 19.3643 109.234C8.94592 109.233 0.500239 100.788 0.5 90.3694C0.5 79.9509 8.94578 71.5045 19.3643 71.5042Z" fill="#F1F1F1" stroke="#D1D1D1"/>
<path d="M23.2379 91.9827C23.2379 92.1742 23.1811 92.3614 23.0748 92.5207C22.9684 92.6799 22.8171 92.804 22.6402 92.8773C22.4633 92.9506 22.2686 92.9697 22.0808 92.9324C21.893 92.895 21.7205 92.8028 21.5851 92.6674C21.4496 92.532 21.3574 92.3595 21.3201 92.1716C21.2827 91.9838 21.3019 91.7891 21.3752 91.6122C21.4484 91.4353 21.5725 91.2841 21.7318 91.1777C21.891 91.0713 22.0782 91.0145 22.2697 91.0145C22.5265 91.0145 22.7728 91.1165 22.9543 91.2981C23.1359 91.4797 23.2379 91.726 23.2379 91.9827ZM16.4603 91.0145C16.2688 91.0145 16.0816 91.0713 15.9224 91.1777C15.7631 91.2841 15.639 91.4353 15.5658 91.6122C15.4925 91.7891 15.4733 91.9838 15.5107 92.1716C15.548 92.3595 15.6402 92.532 15.7756 92.6674C15.9111 92.8028 16.0836 92.895 16.2714 92.9324C16.4592 92.9697 16.6539 92.9506 16.8308 92.8773C17.0077 92.804 17.159 92.6799 17.2653 92.5207C17.3717 92.3614 17.4285 92.1742 17.4285 91.9827C17.4285 91.726 17.3265 91.4797 17.1449 91.2981C16.9634 91.1165 16.7171 91.0145 16.4603 91.0145ZM28.4019 92.951V94.8875C28.4019 95.2299 28.2658 95.5582 28.0237 95.8003C27.7816 96.0424 27.4533 96.1784 27.1109 96.1784H11.6191C11.2767 96.1784 10.9484 96.0424 10.7062 95.8003C10.4641 95.5582 10.3281 95.2299 10.3281 94.8875V93.0422C10.327 91.7978 10.5797 90.5663 11.0708 89.423C11.5619 88.2797 12.2811 87.2486 13.1844 86.3928L11.1624 84.3708C11.0413 84.2496 10.9733 84.0854 10.9733 83.9141C10.9733 83.7428 11.0413 83.5785 11.1624 83.4574C11.2835 83.3363 11.4478 83.2682 11.6191 83.2682C11.7904 83.2682 11.9547 83.3363 12.0758 83.4574L14.1865 85.5682C15.7021 84.4946 17.513 83.9167 19.3702 83.914C21.2275 83.9113 23.04 84.4838 24.5588 85.5528L26.6566 83.455C26.7777 83.3339 26.942 83.2658 27.1133 83.2658C27.2846 83.2658 27.4489 83.3339 27.57 83.455C27.6911 83.5761 27.7591 83.7404 27.7591 83.9117C27.7591 84.083 27.6911 84.2472 27.57 84.3683L25.5633 86.375C25.6238 86.4323 25.6843 86.4904 25.744 86.5501C26.5892 87.3876 27.2594 88.3848 27.7156 89.4837C28.1719 90.5826 28.4052 91.7612 28.4019 92.951ZM27.1109 92.951C27.1109 90.8966 26.2948 88.9264 24.8422 87.4738C23.3895 86.0212 21.4193 85.2051 19.365 85.2051H19.3376C15.0814 85.2196 11.6191 88.7351 11.6191 93.0422V94.8875H27.1109V92.951Z" fill="#4DB029"/>
</svg>
