<svg width="487" height="93" viewBox="0 0 487 93" fill="none" xmlns="http://www.w3.org/2000/svg">
<path d="M14 91H1.1875C0.520833 91 0.1875 90.7083 0.1875 90.125L0.0625 2.9375C0.0625 2.27083 0.395833 1.9375 1.0625 1.9375H12.625L34.25 52.375L33.625 2.9375C33.625 2.27083 34 1.9375 34.75 1.9375H47.4375C47.9375 1.9375 48.1875 2.27083 48.1875 2.9375L48.3125 90.25C48.3125 90.75 48.1042 91 47.6875 91H36.4375L14.25 43.875L15.1875 90C15.1875 90.6667 14.7917 91 14 91ZM55.125 90.375L71 2.4375C71.0833 2.10417 71.2917 1.9375 71.625 1.9375H90.1875C90.5208 1.9375 90.7292 2.10417 90.8125 2.4375L106.062 90.375C106.104 90.7917 105.938 91 105.562 91H91.375C90.9583 91 90.7292 90.7917 90.6875 90.375L89.3125 81H71.875L70.5 90.375C70.4583 90.7917 70.25 91 69.875 91H55.625C55.2917 91 55.125 90.7917 55.125 90.375ZM80.1875 31.375L74.4375 67.3125H86.75L81.5 31.375L80.75 26.625L80.1875 31.375ZM133.688 91H118.188C117.812 91 117.604 90.7917 117.562 90.375L99.875 2.4375C99.7917 2.10417 99.9583 1.9375 100.375 1.9375H114.875C115.208 1.9375 115.417 2.10417 115.5 2.4375L126 61.0625L136.25 2.4375C136.333 2.10417 136.542 1.9375 136.875 1.9375H151.188C151.646 1.9375 151.812 2.10417 151.688 2.4375L134.312 90.375C134.271 90.7917 134.062 91 133.688 91ZM180.125 92.25C175.5 92.25 171.271 91.0833 167.438 88.75C163.646 86.4167 160.625 83.2917 158.375 79.375C156.167 75.4167 155.062 71.0208 155.062 66.1875L155.188 26.25C155.188 21.5 156.271 17.2083 158.438 13.375C160.604 9.5 163.583 6.39583 167.375 4.0625C171.208 1.6875 175.458 0.5 180.125 0.5C184.875 0.5 189.104 1.64583 192.812 3.9375C196.562 6.22917 199.542 9.33333 201.75 13.25C204 17.125 205.125 21.4583 205.125 26.25V32.125C205.125 32.4583 204.958 32.625 204.625 32.625H190.25C189.917 32.625 189.75 32.4583 189.75 32.125V26.25C189.75 23.4167 188.833 20.9792 187 18.9375C185.167 16.8958 182.875 15.875 180.125 15.875C177.083 15.875 174.75 16.9167 173.125 19C171.5 21.0833 170.688 23.5 170.688 26.25V66.1875C170.688 69.3125 171.604 71.875 173.438 73.875C175.271 75.8333 177.5 76.8125 180.125 76.8125C182.875 76.8125 185.167 75.7292 187 73.5625C188.833 71.3542 189.75 68.8958 189.75 66.1875V60.25C189.75 59.9167 189.917 59.75 190.25 59.75H204.75C205.083 59.75 205.25 59.9167 205.25 60.25V66.1875C205.25 70.9792 204.125 75.3542 201.875 79.3125C199.583 83.2292 196.562 86.375 192.812 88.75C189.062 91.0833 184.833 92.25 180.125 92.25ZM229.562 91H215.062C214.729 91 214.562 90.7917 214.562 90.375L214.688 2.4375C214.688 2.10417 214.896 1.9375 215.312 1.9375H229.562C229.979 1.9375 230.188 2.10417 230.188 2.4375L230.062 37.25H249.25V2.4375C249.25 2.10417 249.417 1.9375 249.75 1.9375H264C264.417 1.9375 264.625 2.10417 264.625 2.4375L264.875 90.375C264.875 90.7917 264.667 91 264.25 91H249.875C249.458 91 249.25 90.7917 249.25 90.375V52.75H230.062V90.375C230.062 90.7917 229.896 91 229.562 91ZM317.188 91H275.812C275.479 91 275.312 90.7917 275.312 90.375L275.438 2.4375C275.438 2.10417 275.604 1.9375 275.938 1.9375H317.062C317.396 1.9375 317.562 2.14583 317.562 2.5625V16.875C317.562 17.2083 317.396 17.375 317.062 17.375H290.812V37.375H317.062C317.396 37.375 317.562 37.5417 317.562 37.875L317.688 52.375C317.688 52.7083 317.521 52.875 317.188 52.875H290.812V75.25H317.188C317.521 75.25 317.688 75.4583 317.688 75.875V90.5C317.688 90.8333 317.521 91 317.188 91ZM356.375 91H341.938C341.562 91 341.375 90.7917 341.375 90.375V17.375H324.75C324.333 17.375 324.125 17.1667 324.125 16.75L324.25 2.4375C324.25 2.10417 324.417 1.9375 324.75 1.9375H373.375C373.833 1.9375 374.062 2.10417 374.062 2.4375V16.75C374.062 17.1667 373.896 17.375 373.562 17.375H356.75L356.875 90.375C356.875 90.7917 356.708 91 356.375 91ZM394.25 91H381.438C380.771 91 380.438 90.7083 380.438 90.125L380.312 2.9375C380.312 2.27083 380.646 1.9375 381.312 1.9375H392.875L414.5 52.375L413.875 2.9375C413.875 2.27083 414.25 1.9375 415 1.9375H427.688C428.188 1.9375 428.438 2.27083 428.438 2.9375L428.562 90.25C428.562 90.75 428.354 91 427.938 91H416.688L394.5 43.875L395.438 90C395.438 90.6667 395.042 91 394.25 91ZM435.375 90.375L451.25 2.4375C451.333 2.10417 451.542 1.9375 451.875 1.9375H470.438C470.771 1.9375 470.979 2.10417 471.062 2.4375L486.312 90.375C486.354 90.7917 486.188 91 485.812 91H471.625C471.208 91 470.979 90.7917 470.938 90.375L469.562 81H452.125L450.75 90.375C450.708 90.7917 450.5 91 450.125 91H435.875C435.542 91 435.375 90.7917 435.375 90.375ZM460.438 31.375L454.688 67.3125H467L461.75 31.375L461 26.625L460.438 31.375Z" fill="white"/>
</svg>
