<svg width="450" height="99" viewBox="0 0 450 99" fill="none" xmlns="http://www.w3.org/2000/svg">
<path d="M2.14 98H0.450001V6.99999H4.87L58.95 91.11V6.99999H60.64V98H51.15L2.14 22.6V98ZM83.1005 66.28C83.1005 77.0267 84.9639 84.9133 88.6905 89.94C92.5039 94.9667 97.4872 97.48 103.641 97.48C112.307 97.48 120.021 96.18 126.781 93.58L127.171 94.49C120.237 97.1767 112.394 98.52 103.641 98.52C94.9739 98.52 87.9105 95.92 82.4505 90.72C76.9905 85.52 74.2605 77.5033 74.2605 66.67C74.2605 55.8367 77.1205 47.43 82.8405 41.45C88.5605 35.47 95.8405 32.48 104.681 32.48C111.787 32.48 117.767 34.6033 122.621 38.85C127.474 43.0967 129.901 49.38 129.901 57.7C129.901 58.1333 129.901 58.5667 129.901 59H83.4905C83.2305 61.34 83.1005 63.7667 83.1005 66.28ZM121.061 57.96C120.974 49.64 119.371 43.4867 116.251 39.5C113.131 35.5133 109.101 33.52 104.161 33.52C99.2205 33.52 94.8005 35.6867 90.9005 40.02C87.0872 44.3533 84.6605 50.3333 83.6205 57.96H121.061ZM135.945 98V96.96C137.765 96.96 139.585 96.2667 141.405 94.88C143.311 93.4933 144.741 92.1067 145.695 90.72L161.945 66.8L138.805 33H148.295L168.185 61.99L187.425 33H188.725L168.705 62.9L192.885 98H183.395L162.465 67.58L148.425 88.64C148.251 88.9 148.035 89.2467 147.775 89.68C147.515 90.1133 146.951 90.85 146.085 91.89C145.218 92.93 144.308 93.84 143.355 94.62C140.755 96.8733 138.285 98 135.945 98ZM234.59 98H223.8V8.29999H201.31V6.99999H257.21V8.29999H234.59V98ZM268.706 66.28C268.706 77.0267 270.569 84.9133 274.296 89.94C278.109 94.9667 283.093 97.48 289.246 97.48C297.913 97.48 305.626 96.18 312.386 93.58L312.776 94.49C305.843 97.1767 297.999 98.52 289.246 98.52C280.579 98.52 273.516 95.92 268.056 90.72C262.596 85.52 259.866 77.5033 259.866 66.67C259.866 55.8367 262.726 47.43 268.446 41.45C274.166 35.47 281.446 32.48 290.286 32.48C297.393 32.48 303.373 34.6033 308.226 38.85C313.079 43.0967 315.506 49.38 315.506 57.7C315.506 58.1333 315.506 58.5667 315.506 59H269.096C268.836 61.34 268.706 63.7667 268.706 66.28ZM306.666 57.96C306.579 49.64 304.976 43.4867 301.856 39.5C298.736 35.5133 294.706 33.52 289.766 33.52C284.826 33.52 280.406 35.6867 276.506 40.02C272.693 44.3533 270.266 50.3333 269.226 57.96H306.666ZM355.159 33.52C349.006 33.52 343.849 36.4667 339.689 42.36C335.616 48.2533 333.579 56.4 333.579 66.8C333.579 77.2 335.442 84.9133 339.169 89.94C342.982 94.9667 347.966 97.48 354.119 97.48C361.832 97.48 368.679 96.18 374.659 93.58L375.049 94.49C368.896 97.1767 361.702 98.52 353.469 98.52C345.236 98.52 338.389 95.92 332.929 90.72C327.469 85.52 324.739 77.5033 324.739 66.67C324.739 55.8367 327.599 47.43 333.319 41.45C339.039 35.47 346.319 32.48 355.159 32.48C360.099 32.48 364.649 33.6067 368.809 35.86C373.056 38.1133 376.176 41.5367 378.169 46.13H369.849C368.549 41.8833 366.556 38.72 363.869 36.64C361.269 34.56 358.366 33.52 355.159 33.52ZM441.927 98C438.374 98 435.644 97.22 433.737 95.66C431.917 94.1 430.964 92.54 430.877 90.98L430.747 88.77V47.95C430.747 41.1033 428.927 36.7267 425.287 34.82C423.554 33.9533 421.344 33.52 418.657 33.52C413.284 33.52 408.43 35.73 404.097 40.15C399.85 44.4833 397.727 48.3833 397.727 51.85V98H388.627V0.629998H397.727V47.82C399.114 44.0933 401.757 40.6267 405.657 37.42C409.557 34.1267 413.934 32.48 418.787 32.48C427.194 32.48 432.784 33.9533 435.557 36.9C438.417 39.76 439.847 43.4867 439.847 48.08V88.77C439.847 91.2833 440.324 93.2333 441.277 94.62C442.317 95.92 443.314 96.6133 444.267 96.7L445.827 96.96H449.857V98H441.927Z" fill="black"/>
</svg>
