<svg width="756" height="287" viewBox="0 0 756 287" fill="none" xmlns="http://www.w3.org/2000/svg">
<rect x="3" y="3" width="750" height="200" stroke="#fff" stroke-width="6"/>
<rect x="27" y="20" width="566" height="163" fill="#fff"/>
<path d="M644.294 75.0909V126H632.014V86.5753H631.716L620.331 93.5355V82.8963L632.884 75.0909H644.294ZM675.037 126.696C671.325 126.696 668.027 126.025 665.144 124.683C662.26 123.34 659.981 121.492 658.308 119.139C656.651 116.786 655.789 114.085 655.722 111.036H667.654C667.754 112.908 668.516 114.416 669.941 115.56C671.366 116.687 673.065 117.25 675.037 117.25C676.578 117.25 677.945 116.91 679.139 116.231C680.332 115.551 681.268 114.598 681.948 113.372C682.627 112.129 682.959 110.704 682.942 109.097C682.959 107.456 682.619 106.022 681.923 104.796C681.243 103.57 680.299 102.617 679.089 101.938C677.896 101.241 676.52 100.893 674.963 100.893C673.488 100.877 672.087 101.2 670.762 101.863C669.452 102.526 668.458 103.429 667.779 104.572L656.916 102.534L659.128 75.0909H691.791V85.0092H669.245L668.077 97.0156H668.375C669.22 95.607 670.579 94.447 672.452 93.5355C674.341 92.6075 676.487 92.1435 678.89 92.1435C681.939 92.1435 684.657 92.8561 687.044 94.2812C689.446 95.6899 691.336 97.6454 692.711 100.148C694.103 102.65 694.799 105.517 694.799 108.749C694.799 112.245 693.971 115.344 692.313 118.045C690.673 120.747 688.369 122.868 685.403 124.409C682.453 125.934 678.998 126.696 675.037 126.696ZM700.734 100.545V94.5298L712.989 85.0589C713.834 84.3961 714.58 83.7912 715.226 83.2443C715.873 82.6809 716.378 82.1091 716.743 81.5291C717.124 80.9491 717.314 80.2945 717.314 79.5653C717.314 78.4716 716.85 77.643 715.922 77.0795C715.011 76.4995 713.909 76.2095 712.616 76.2095C711.224 76.2095 710.105 76.5327 709.26 77.179C708.415 77.8253 707.993 78.803 707.993 80.1122H699.963C699.963 76.7978 701.157 74.2209 703.543 72.3814C705.946 70.5419 709.003 69.6222 712.716 69.6222C715.268 69.6222 717.48 70.0613 719.353 70.9396C721.242 71.8179 722.7 73.0028 723.728 74.4943C724.755 75.9858 725.269 77.643 725.269 79.4659C725.269 80.9574 724.954 82.3411 724.324 83.6172C723.711 84.8932 722.758 86.1278 721.466 87.321C720.19 88.5142 718.549 89.724 716.544 90.9503L712.765 93.4361V93.7095H725.443V100.545H700.734Z" fill="#fff"/>
<path d="M139.523 268V221.455H158.75C162.235 221.455 165.242 222.136 167.773 223.5C170.318 224.848 172.28 226.735 173.659 229.159C175.038 231.568 175.727 234.371 175.727 237.568C175.727 240.78 175.023 243.591 173.614 246C172.22 248.394 170.227 250.25 167.636 251.568C165.045 252.886 161.97 253.545 158.409 253.545H146.545V244.682H156.318C158.015 244.682 159.432 244.386 160.568 243.795C161.72 243.205 162.591 242.379 163.182 241.318C163.773 240.242 164.068 238.992 164.068 237.568C164.068 236.129 163.773 234.886 163.182 233.841C162.591 232.78 161.72 231.962 160.568 231.386C159.417 230.811 158 230.523 156.318 230.523H150.773V268H139.523ZM196.881 268.659C193.214 268.659 190.063 267.909 187.426 266.409C184.805 264.894 182.782 262.788 181.358 260.091C179.949 257.379 179.244 254.235 179.244 250.659C179.244 247.068 179.949 243.924 181.358 241.227C182.782 238.515 184.805 236.409 187.426 234.909C190.063 233.394 193.214 232.636 196.881 232.636C200.547 232.636 203.691 233.394 206.312 234.909C208.949 236.409 210.972 238.515 212.381 241.227C213.805 243.924 214.517 247.068 214.517 250.659C214.517 254.235 213.805 257.379 212.381 260.091C210.972 262.788 208.949 264.894 206.312 266.409C203.691 267.909 200.547 268.659 196.881 268.659ZM196.949 260.273C198.282 260.273 199.411 259.864 200.335 259.045C201.259 258.227 201.964 257.091 202.449 255.636C202.949 254.182 203.199 252.5 203.199 250.591C203.199 248.652 202.949 246.955 202.449 245.5C201.964 244.045 201.259 242.909 200.335 242.091C199.411 241.273 198.282 240.864 196.949 240.864C195.57 240.864 194.403 241.273 193.449 242.091C192.509 242.909 191.79 244.045 191.29 245.5C190.805 246.955 190.562 248.652 190.562 250.591C190.562 252.5 190.805 254.182 191.29 255.636C191.79 257.091 192.509 258.227 193.449 259.045C194.403 259.864 195.57 260.273 196.949 260.273ZM225.983 268L216.892 233.091H228.051L232.756 255.455H233.051L238.097 233.091H248.983L254.165 255.295H254.46L259.028 233.091H270.188L261.074 268H249.188L243.733 247.659H243.347L237.892 268H225.983ZM290.216 268.659C286.564 268.659 283.413 267.939 280.761 266.5C278.125 265.045 276.095 262.977 274.67 260.295C273.261 257.598 272.557 254.394 272.557 250.682C272.557 247.076 273.269 243.924 274.693 241.227C276.117 238.515 278.125 236.409 280.716 234.909C283.307 233.394 286.36 232.636 289.875 232.636C292.36 232.636 294.633 233.023 296.693 233.795C298.754 234.568 300.534 235.712 302.034 237.227C303.534 238.742 304.701 240.614 305.534 242.841C306.367 245.053 306.784 247.591 306.784 250.455V253.227H276.443V246.773H296.443C296.428 245.591 296.148 244.538 295.602 243.614C295.057 242.689 294.307 241.97 293.352 241.455C292.413 240.924 291.33 240.659 290.102 240.659C288.86 240.659 287.746 240.939 286.761 241.5C285.777 242.045 284.996 242.795 284.42 243.75C283.845 244.689 283.542 245.758 283.511 246.955V253.523C283.511 254.947 283.792 256.197 284.352 257.273C284.913 258.333 285.708 259.159 286.739 259.75C287.769 260.341 288.996 260.636 290.42 260.636C291.405 260.636 292.299 260.5 293.102 260.227C293.905 259.955 294.595 259.553 295.17 259.023C295.746 258.492 296.178 257.841 296.466 257.068L306.67 257.364C306.246 259.652 305.314 261.644 303.875 263.341C302.451 265.023 300.58 266.333 298.261 267.273C295.943 268.197 293.261 268.659 290.216 268.659ZM312.46 268V233.091H323.256V239.455H323.619C324.256 237.152 325.294 235.439 326.733 234.318C328.172 233.182 329.847 232.614 331.756 232.614C332.271 232.614 332.801 232.652 333.347 232.727C333.892 232.788 334.4 232.886 334.869 233.023V242.682C334.339 242.5 333.642 242.356 332.778 242.25C331.93 242.144 331.172 242.091 330.506 242.091C329.188 242.091 327.998 242.386 326.938 242.977C325.892 243.553 325.066 244.364 324.46 245.409C323.869 246.439 323.574 247.652 323.574 249.045V268H312.46Z" fill="#888"/>
<path d="M366.682 225.455H377.909V255.477C377.909 258.947 377.083 261.97 375.432 264.545C373.78 267.106 371.477 269.091 368.523 270.5C365.568 271.894 362.136 272.591 358.227 272.591C354.273 272.591 350.818 271.894 347.864 270.5C344.909 269.091 342.614 267.106 340.977 264.545C339.341 261.97 338.523 258.947 338.523 255.477V225.455H349.773V254.5C349.773 256.106 350.121 257.538 350.818 258.795C351.53 260.053 352.523 261.038 353.795 261.75C355.068 262.462 356.545 262.818 358.227 262.818C359.909 262.818 361.379 262.462 362.636 261.75C363.909 261.038 364.902 260.053 365.614 258.795C366.326 257.538 366.682 256.106 366.682 254.5V225.455ZM396.074 252.091V272H384.96V237.091H395.528V243.5H395.915C396.688 241.364 398.006 239.689 399.869 238.477C401.733 237.25 403.953 236.636 406.528 236.636C408.983 236.636 411.112 237.189 412.915 238.295C414.733 239.386 416.142 240.917 417.142 242.886C418.157 244.841 418.657 247.129 418.642 249.75V272H407.528V251.932C407.544 249.992 407.051 248.477 406.051 247.386C405.066 246.295 403.695 245.75 401.938 245.75C400.771 245.75 399.741 246.008 398.847 246.523C397.968 247.023 397.286 247.742 396.801 248.682C396.331 249.621 396.089 250.758 396.074 252.091ZM436.636 225.455V272H425.523V225.455H436.636ZM460.028 272.659C456.377 272.659 453.225 271.939 450.574 270.5C447.938 269.045 445.907 266.977 444.483 264.295C443.074 261.598 442.369 258.394 442.369 254.682C442.369 251.076 443.081 247.924 444.506 245.227C445.93 242.515 447.938 240.409 450.528 238.909C453.119 237.394 456.172 236.636 459.688 236.636C462.172 236.636 464.445 237.023 466.506 237.795C468.566 238.568 470.347 239.712 471.847 241.227C473.347 242.742 474.513 244.614 475.347 246.841C476.18 249.053 476.597 251.591 476.597 254.455V257.227H446.256V250.773H466.256C466.241 249.591 465.96 248.538 465.415 247.614C464.869 246.689 464.119 245.97 463.165 245.455C462.225 244.924 461.142 244.659 459.915 244.659C458.672 244.659 457.559 244.939 456.574 245.5C455.589 246.045 454.809 246.795 454.233 247.75C453.657 248.689 453.354 249.758 453.324 250.955V257.523C453.324 258.947 453.604 260.197 454.165 261.273C454.725 262.333 455.521 263.159 456.551 263.75C457.581 264.341 458.809 264.636 460.233 264.636C461.218 264.636 462.112 264.5 462.915 264.227C463.718 263.955 464.407 263.553 464.983 263.023C465.559 262.492 465.991 261.841 466.278 261.068L476.483 261.364C476.059 263.652 475.127 265.644 473.688 267.341C472.263 269.023 470.392 270.333 468.074 271.273C465.756 272.197 463.074 272.659 460.028 272.659ZM492.114 272.591C489.886 272.591 487.909 272.22 486.182 271.477C484.47 270.72 483.114 269.583 482.114 268.068C481.129 266.538 480.636 264.621 480.636 262.318C480.636 260.379 480.977 258.742 481.659 257.409C482.341 256.076 483.28 254.992 484.477 254.159C485.674 253.326 487.053 252.697 488.614 252.273C490.174 251.833 491.841 251.538 493.614 251.386C495.598 251.205 497.197 251.015 498.409 250.818C499.621 250.606 500.5 250.311 501.045 249.932C501.606 249.538 501.886 248.985 501.886 248.273V248.159C501.886 246.992 501.485 246.091 500.682 245.455C499.879 244.818 498.795 244.5 497.432 244.5C495.962 244.5 494.78 244.818 493.886 245.455C492.992 246.091 492.424 246.97 492.182 248.091L481.932 247.727C482.235 245.606 483.015 243.712 484.273 242.045C485.545 240.364 487.288 239.045 489.5 238.091C491.727 237.121 494.402 236.636 497.523 236.636C499.75 236.636 501.803 236.902 503.682 237.432C505.561 237.947 507.197 238.705 508.591 239.705C509.985 240.689 511.061 241.902 511.818 243.341C512.591 244.78 512.977 246.424 512.977 248.273V272H502.523V267.136H502.25C501.629 268.318 500.833 269.318 499.864 270.136C498.909 270.955 497.78 271.568 496.477 271.977C495.189 272.386 493.735 272.591 492.114 272.591ZM495.545 265.318C496.742 265.318 497.818 265.076 498.773 264.591C499.742 264.106 500.515 263.439 501.091 262.591C501.667 261.727 501.955 260.727 501.955 259.591V256.273C501.636 256.439 501.25 256.591 500.795 256.727C500.356 256.864 499.871 256.992 499.341 257.114C498.811 257.235 498.265 257.341 497.705 257.432C497.144 257.523 496.606 257.606 496.091 257.682C495.045 257.848 494.152 258.106 493.409 258.455C492.682 258.803 492.121 259.258 491.727 259.818C491.348 260.364 491.159 261.015 491.159 261.773C491.159 262.924 491.568 263.803 492.386 264.409C493.22 265.015 494.273 265.318 495.545 265.318ZM550.25 247.75L540.045 248.023C539.939 247.295 539.652 246.652 539.182 246.091C538.712 245.515 538.098 245.068 537.341 244.75C536.598 244.417 535.735 244.25 534.75 244.25C533.462 244.25 532.364 244.508 531.455 245.023C530.561 245.538 530.121 246.235 530.136 247.114C530.121 247.795 530.394 248.386 530.955 248.886C531.53 249.386 532.553 249.788 534.023 250.091L540.75 251.364C544.235 252.03 546.826 253.136 548.523 254.682C550.235 256.227 551.098 258.273 551.114 260.818C551.098 263.212 550.386 265.295 548.977 267.068C547.583 268.841 545.674 270.22 543.25 271.205C540.826 272.174 538.053 272.659 534.932 272.659C529.947 272.659 526.015 271.636 523.136 269.591C520.273 267.53 518.636 264.773 518.227 261.318L529.205 261.045C529.447 262.318 530.076 263.288 531.091 263.955C532.106 264.621 533.402 264.955 534.977 264.955C536.402 264.955 537.561 264.689 538.455 264.159C539.348 263.629 539.803 262.924 539.818 262.045C539.803 261.258 539.455 260.629 538.773 260.159C538.091 259.674 537.023 259.295 535.568 259.023L529.477 257.864C525.977 257.227 523.371 256.053 521.659 254.341C519.947 252.614 519.098 250.417 519.114 247.75C519.098 245.417 519.72 243.424 520.977 241.773C522.235 240.106 524.023 238.833 526.341 237.955C528.659 237.076 531.394 236.636 534.545 236.636C539.273 236.636 543 237.629 545.727 239.614C548.455 241.583 549.962 244.295 550.25 247.75ZM572.903 272.659C569.252 272.659 566.1 271.939 563.449 270.5C560.813 269.045 558.782 266.977 557.358 264.295C555.949 261.598 555.244 258.394 555.244 254.682C555.244 251.076 555.956 247.924 557.381 245.227C558.805 242.515 560.812 240.409 563.403 238.909C565.994 237.394 569.047 236.636 572.562 236.636C575.047 236.636 577.32 237.023 579.381 237.795C581.441 238.568 583.222 239.712 584.722 241.227C586.222 242.742 587.388 244.614 588.222 246.841C589.055 249.053 589.472 251.591 589.472 254.455V257.227H559.131V250.773H579.131C579.116 249.591 578.835 248.538 578.29 247.614C577.744 246.689 576.994 245.97 576.04 245.455C575.1 244.924 574.017 244.659 572.79 244.659C571.547 244.659 570.434 244.939 569.449 245.5C568.464 246.045 567.684 246.795 567.108 247.75C566.532 248.689 566.229 249.758 566.199 250.955V257.523C566.199 258.947 566.479 260.197 567.04 261.273C567.6 262.333 568.396 263.159 569.426 263.75C570.456 264.341 571.684 264.636 573.108 264.636C574.093 264.636 574.987 264.5 575.79 264.227C576.593 263.955 577.282 263.553 577.858 263.023C578.434 262.492 578.866 261.841 579.153 261.068L589.358 261.364C588.934 263.652 588.002 265.644 586.562 267.341C585.138 269.023 583.267 270.333 580.949 271.273C578.631 272.197 575.949 272.659 572.903 272.659ZM607.898 272.5C605.322 272.5 602.981 271.833 600.875 270.5C598.769 269.167 597.087 267.167 595.83 264.5C594.572 261.833 593.943 258.523 593.943 254.568C593.943 250.462 594.595 247.083 595.898 244.432C597.201 241.78 598.905 239.818 601.011 238.545C603.133 237.273 605.413 236.636 607.852 236.636C609.686 236.636 611.254 236.955 612.557 237.591C613.86 238.212 614.936 239.015 615.784 240C616.633 240.985 617.277 242.008 617.716 243.068H617.943V225.455H629.057V272H618.057V266.341H617.716C617.246 267.417 616.58 268.424 615.716 269.364C614.852 270.303 613.769 271.061 612.466 271.636C611.178 272.212 609.655 272.5 607.898 272.5ZM611.761 263.841C613.11 263.841 614.261 263.462 615.216 262.705C616.17 261.932 616.905 260.848 617.42 259.455C617.936 258.061 618.193 256.424 618.193 254.545C618.193 252.636 617.936 250.992 617.42 249.614C616.92 248.235 616.186 247.174 615.216 246.432C614.261 245.689 613.11 245.318 611.761 245.318C610.383 245.318 609.216 245.697 608.261 246.455C607.307 247.212 606.58 248.28 606.08 249.659C605.595 251.038 605.352 252.667 605.352 254.545C605.352 256.424 605.602 258.061 606.102 259.455C606.602 260.848 607.322 261.932 608.261 262.705C609.216 263.462 610.383 263.841 611.761 263.841Z" fill="#fff"/>
<path d="M200.18 78.0909V129H189.74L169.481 99.6179H169.158V129H156.853V78.0909H167.442L187.478 107.423H187.901V78.0909H200.18ZM220.222 78.0909V129H207.917V78.0909H220.222ZM271.274 78.0909V129H260.834L240.575 99.6179H240.251V129H227.947V78.0909H238.536L258.572 107.423H258.994V78.0909H271.274ZM279.011 129V78.0909H314.508V88.0838H291.316V98.5241H312.694V108.542H291.316V119.007H314.508V129H279.011ZM370.265 103.545C370.265 109.147 369.188 113.895 367.033 117.789C364.879 121.683 361.962 124.642 358.283 126.663C354.621 128.685 350.511 129.696 345.954 129.696C341.38 129.696 337.262 128.677 333.599 126.638C329.937 124.6 327.028 121.642 324.874 117.764C322.736 113.87 321.667 109.13 321.667 103.545C321.667 97.9441 322.736 93.1963 324.874 89.3018C327.028 85.4074 329.937 82.4493 333.599 80.4276C337.262 78.4058 341.38 77.3949 345.954 77.3949C350.511 77.3949 354.621 78.4058 358.283 80.4276C361.962 82.4493 364.879 85.4074 367.033 89.3018C369.188 93.1963 370.265 97.9441 370.265 103.545ZM357.687 103.545C357.687 100.231 357.214 97.4304 356.27 95.1435C355.342 92.8565 353.999 91.1248 352.243 89.9482C350.503 88.7715 348.406 88.1832 345.954 88.1832C343.518 88.1832 341.421 88.7715 339.665 89.9482C337.908 91.1248 336.557 92.8565 335.613 95.1435C334.685 97.4304 334.221 100.231 334.221 103.545C334.221 106.86 334.685 109.661 335.613 111.947C336.557 114.234 337.908 115.966 339.665 117.143C341.421 118.319 343.518 118.908 345.954 118.908C348.406 118.908 350.503 118.319 352.243 117.143C353.999 115.966 355.342 114.234 356.27 111.947C357.214 109.661 357.687 106.86 357.687 103.545ZM420.776 78.0909V129H410.336L390.077 99.6179H389.753V129H377.449V78.0909H388.038L408.074 107.423H408.496V78.0909H420.776ZM428.513 129V78.0909H464.01V88.0838H440.818V98.5241H462.196V108.542H440.818V119.007H464.01V129H428.513Z" fill="#888"/>
</svg>
