<svg width="535" height="135" viewBox="0 0 535 135" fill="none" xmlns="http://www.w3.org/2000/svg">
<path d="M9.1 31.04C19.1533 30.3467 27.9933 30 35.62 30C57.1133 30 67.86 37.5833 67.86 52.75C67.86 59.77 66.04 65.9233 62.4 71.21C60.4933 74.07 57.5467 76.3667 53.56 78.1C49.5733 79.7467 44.7633 80.57 39.13 80.57H19.89V121H9.1V31.04ZM35.75 31.3C30.7233 31.3 25.4367 31.6033 19.89 32.21V79.27H39.13C51.35 78.75 57.46 69.9967 57.46 53.01C57.46 46.0767 55.64 40.7467 52 37.02C48.36 33.2067 42.9433 31.3 35.75 31.3ZM130.355 121H80.9555V30H91.7455V119.7H130.355V121ZM195.156 30V31.3H154.206V70.3H192.166V71.6H154.206V119.7H198.016V121H143.416V30H195.156ZM212.757 121H211.067V30H215.487L269.567 114.11V30H271.257V121H261.767L212.757 45.6V121ZM284.908 77.71C284.908 61.9367 288.722 49.9767 296.348 41.83C304.062 33.5967 313.942 29.48 325.988 29.48C338.035 29.48 347.612 33.0333 354.718 40.14C361.912 47.2467 365.508 58.6 365.508 74.2C365.508 89.8 361.695 101.587 354.068 109.56C346.442 117.533 336.258 121.52 323.518 121.52C312.512 121.52 303.498 118.357 296.478 112.03C292.838 108.737 289.978 104.187 287.898 98.38C285.905 92.4867 284.908 85.5967 284.908 77.71ZM325.598 30.78C316.845 30.78 309.652 34.68 304.018 42.48C298.472 50.28 295.698 61.72 295.698 76.8C295.698 91.88 298.342 102.887 303.628 109.82C308.915 116.753 315.935 120.22 324.688 120.22C333.528 120.22 340.722 116.32 346.268 108.52C351.902 100.633 354.718 89.2367 354.718 74.33C354.718 59.3367 352.032 48.33 346.658 41.31C341.372 34.29 334.352 30.78 325.598 30.78ZM379.803 31.04C389.856 30.3467 398.74 30 406.453 30C427.86 30 438.563 37.15 438.563 51.45C438.563 57.5167 437.09 62.9333 434.143 67.7C431.196 72.4667 426.126 75.63 418.933 77.19L444.933 121H432.843L407.363 77.97H390.593V121H379.803V31.04ZM406.453 31.3C401.426 31.3 396.14 31.6033 390.593 32.21V76.67H409.833C422.053 76.15 428.163 67.83 428.163 51.71C428.163 45.1233 426.343 40.0967 422.703 36.63C419.063 33.0767 413.646 31.3 406.453 31.3ZM454.239 121H452.679L491.549 30L492.979 29.35L525.739 121H514.689L504.549 92.4H466.589L454.239 121ZM487.519 44.04L467.109 91.1H504.159L487.519 44.04Z" fill="black"/>
</svg>
