<svg width="102" height="24" viewBox="0 0 102 24" fill="none" xmlns="http://www.w3.org/2000/svg" data-sentry-element="svg" data-sentry-source-file="logo.tsx" data-sentry-component="Logo"><g clip-path="url(#clip0_10661_3795)" data-sentry-element="g" data-sentry-source-file="logo.tsx"><path d="M14.3789 9.5369C16.2089 7.56262 18.0336 5.58406 19.8785 3.62366C19.9936 3.50087 20.3323 3.42185 20.4463 3.4998C20.7243 3.68986 20.5624 3.92583 20.3632 4.11269C18.8581 5.51146 17.354 6.91235 15.8489 8.31112C15.3834 8.74356 14.9158 9.1728 14.4492 9.60417L14.3789 9.53797V9.5369Z" fill="#323232" data-sentry-element="path" data-sentry-source-file="logo.tsx"></path><path d="M14.4748 14.3984C15.3994 15.258 16.324 16.1165 17.2475 16.976C18.2573 17.9156 19.2671 18.8542 20.2759 19.7949C20.4676 19.9743 20.7435 20.1686 20.4857 20.4505C20.2119 20.7505 19.9819 20.5028 19.7848 20.2914C18.0187 18.3844 16.2537 16.4763 14.4897 14.5671C14.4588 14.534 14.4471 14.4839 14.4258 14.4422C14.4418 14.4273 14.4577 14.4123 14.4727 14.3984H14.4748Z" fill="#323232" data-sentry-element="path" data-sentry-source-file="logo.tsx"></path><path d="M9.5933 14.466C8.73688 15.3982 7.88152 16.3336 7.0219 17.2636C6.07068 18.2918 5.12478 19.3254 4.15013 20.3302C4.02443 20.4594 3.65588 20.5416 3.54083 20.4562C3.27027 20.2533 3.47373 20.0248 3.66653 19.8465C5.57323 18.0697 7.47994 16.293 9.38771 14.5173C9.43352 14.4757 9.48784 14.4426 9.5379 14.4062C9.55601 14.4265 9.57519 14.4468 9.5933 14.4671V14.466Z" fill="#323232" data-sentry-element="path" data-sentry-source-file="logo.tsx"></path><path d="M9.47364 9.5212C7.52965 7.71562 5.5814 5.91538 3.65126 4.09485C3.52983 3.9806 3.55433 3.71046 3.51172 3.51292C3.71091 3.52894 3.99532 3.46381 4.09651 3.57165C5.92439 5.51817 7.73097 7.48605 9.54181 9.44966C9.51944 9.47315 9.49707 9.49664 9.4747 9.5212H9.47364Z" fill="#323232" data-sentry-element="path" data-sentry-source-file="logo.tsx"></path><path d="M14.0273 8.85377C14.1605 8.63702 14.2947 8.42026 14.4279 8.20351C15.5815 6.31998 16.7351 4.43646 17.8887 2.55293C17.9441 2.46217 17.9803 2.34259 18.0602 2.2892C18.237 2.16961 18.4905 1.95499 18.6162 2.00838C18.9635 2.15573 18.8101 2.42801 18.6418 2.65971C18.1326 3.36016 17.6245 4.06168 17.1175 4.76426C16.1759 6.06799 15.2363 7.37279 14.2936 8.67546C14.2361 8.75447 14.1648 8.82388 14.0998 8.89862C14.0763 8.88367 14.0529 8.86872 14.0284 8.85377H14.0273Z" fill="#323232" data-sentry-element="path" data-sentry-source-file="logo.tsx"></path><path d="M9.87863 8.89727C8.36498 6.80553 6.8524 4.71486 5.33875 2.62419C5.17897 2.40317 5.06499 2.13409 5.37603 2.01023C5.50918 1.95684 5.83087 2.12235 5.92781 2.2761C7.05585 4.07314 8.1562 5.88726 9.26507 7.69711C9.50048 8.08257 9.73909 8.4659 9.97663 8.85029C9.94361 8.86631 9.91165 8.88232 9.87863 8.89941V8.89727Z" fill="#323232" data-sentry-element="path" data-sentry-source-file="logo.tsx"></path><path d="M15.294 9.711C16.6351 8.73507 17.9773 7.75807 19.3194 6.78214C20.0054 6.28243 20.6839 5.77097 21.388 5.29902C21.5201 5.21147 21.7619 5.29048 21.9537 5.29155C21.91 5.47414 21.927 5.75282 21.8131 5.82436C19.6784 7.16653 17.5288 8.48415 15.3814 9.8071C15.3516 9.77507 15.3228 9.74303 15.293 9.711H15.294Z" fill="#323232" data-sentry-element="path" data-sentry-source-file="logo.tsx"></path><path d="M9.82576 15.2734C9.73628 15.4624 9.70326 15.5521 9.65426 15.6322C8.41757 17.6567 7.18513 19.6843 5.92713 21.696C5.83126 21.8487 5.49679 22.0067 5.36364 21.9501C5.04728 21.8156 5.19321 21.5454 5.3466 21.333C6.76651 19.3662 8.18855 17.4015 9.61166 15.4368C9.63829 15.3994 9.68728 15.3781 9.8247 15.2734H9.82576Z" fill="#323232" data-sentry-element="path" data-sentry-source-file="logo.tsx"></path><path d="M8.62767 9.80575C7.29085 8.98464 5.95402 8.16567 4.61826 7.3435C3.82043 6.85233 3.0162 6.37077 2.23648 5.85184C2.10759 5.76642 2.09161 5.51229 2.02344 5.33505C2.22369 5.31903 2.48893 5.21119 2.61356 5.30088C4.62998 6.73808 6.62936 8.19984 8.63087 9.65733C8.6575 9.67655 8.67241 9.71285 8.69265 9.74168C8.67135 9.76304 8.64898 9.78439 8.62767 9.80682V9.80575Z" fill="#323232" data-sentry-element="path" data-sentry-source-file="logo.tsx"></path><path d="M15.4673 14.2266C15.9562 14.5245 16.4462 14.8213 16.933 15.1213C18.4232 16.0385 19.9124 16.9558 21.4015 17.874C21.5368 17.9573 21.7136 18.016 21.7925 18.1378C21.8905 18.2862 21.9064 18.4891 21.9576 18.6684C21.7733 18.6802 21.5336 18.772 21.4133 18.6898C20.5664 18.1132 19.742 17.5024 18.9122 16.8992C17.7415 16.0482 16.5719 15.195 15.4023 14.3429C15.4236 14.3045 15.445 14.265 15.4663 14.2266H15.4673Z" fill="#323232" data-sentry-element="path" data-sentry-source-file="logo.tsx"></path><path d="M8.68378 14.2877C7.21806 15.3533 5.83543 16.3613 4.45067 17.3682C3.85097 17.8049 3.26085 18.2565 2.6409 18.6612C2.5003 18.753 2.24997 18.6772 2.05078 18.6794C2.1115 18.4882 2.11256 18.2021 2.24252 18.1209C4.30474 16.8247 6.38401 15.554 8.46008 14.2791C8.48352 14.2652 8.524 14.2802 8.68484 14.2877H8.68378Z" fill="#323232" data-sentry-element="path" data-sentry-source-file="logo.tsx"></path><path d="M14.3061 15.337C15.1018 16.4325 15.8975 17.527 16.6911 18.6225C17.3451 19.5258 17.9959 20.4313 18.6489 21.3346C18.8055 21.5514 18.9397 21.8098 18.6329 21.955C18.5104 22.0137 18.1856 21.8834 18.1003 21.7468C16.8157 19.6913 15.5545 17.6199 14.2901 15.5516C14.2592 15.5004 14.2496 15.4352 14.2305 15.3765L14.3061 15.3359V15.337Z" fill="#323232" data-sentry-element="path" data-sentry-source-file="logo.tsx"></path><path d="M8.3697 10.5297C7.46535 10.1987 6.56099 9.86872 5.65771 9.53665C4.30171 9.03801 2.94571 8.53723 1.59078 8.03645C1.49171 8.00014 1.39478 7.95637 1.29465 7.9222C1.04007 7.83357 0.811051 7.70117 0.938874 7.39046C1.06989 7.0712 1.32554 7.16516 1.56308 7.27621C2.87541 7.8859 4.18667 8.49452 5.50006 9.10207C6.46832 9.55053 7.43765 9.99578 8.40592 10.4421C8.3942 10.4709 8.38142 10.5008 8.3697 10.5297Z" fill="#323232" data-sentry-element="path" data-sentry-source-file="logo.tsx"></path><path d="M15.6094 10.4299C17.5342 9.53943 19.459 8.64892 21.3849 7.75948C21.7385 7.59611 22.0794 7.39217 22.449 7.2854C22.6312 7.23201 22.9837 7.29073 23.053 7.41353C23.2192 7.71036 22.9337 7.83636 22.6919 7.92498C20.8182 8.61689 18.9434 9.30666 17.0687 9.9975C16.5936 10.1726 16.1185 10.3499 15.6435 10.525C15.6317 10.4929 15.6211 10.4609 15.6094 10.4289V10.4299Z" fill="#323232" data-sentry-element="path" data-sentry-source-file="logo.tsx"></path><path d="M13.4805 8.28635C13.8469 7.27946 14.2112 6.27149 14.5808 5.26566C15.0644 3.95339 15.5533 2.64432 16.038 1.33204C16.1307 1.08112 16.2084 0.759726 16.5621 0.888925C16.953 1.032 16.7932 1.34272 16.6739 1.60219C15.6897 3.73984 14.7012 5.87749 13.7137 8.01301C13.6658 8.11658 13.6062 8.21481 13.5518 8.31518C13.5284 8.30557 13.5039 8.29489 13.4805 8.28528V8.28635Z" fill="#323232" data-sentry-element="path" data-sentry-source-file="logo.tsx"></path><path d="M10.4332 8.31899C9.86227 7.08894 9.29025 5.85888 8.72144 4.62882C8.26127 3.63367 7.80537 2.63638 7.34733 1.64017C7.22909 1.38284 7.04055 1.07746 7.40166 0.903413C7.78832 0.715487 7.87034 1.07959 7.96621 1.33799C8.79387 3.57708 9.61834 5.81724 10.4417 8.05739C10.4694 8.1332 10.4843 8.21435 10.5056 8.2923C10.4811 8.30084 10.4577 8.30938 10.4332 8.31899Z" fill="#323232" data-sentry-element="path" data-sentry-source-file="logo.tsx"></path><path d="M10.4229 15.9608C9.7305 17.8518 9.03812 19.7417 8.34467 21.6327C8.22857 21.9477 8.11139 22.2627 7.98996 22.5755C7.88451 22.8499 7.80994 23.2525 7.4041 23.0667C7.01104 22.8862 7.24965 22.5467 7.37001 22.284C7.86959 21.1896 8.37982 20.0994 8.88473 19.0071C9.3662 17.966 9.84554 16.9239 10.3259 15.8828C10.3579 15.9084 10.3899 15.9341 10.4229 15.9597V15.9608Z" fill="#323232" data-sentry-element="path" data-sentry-source-file="logo.tsx"></path><path d="M16.0138 13.5859C16.702 13.8401 17.389 14.0931 18.0771 14.3472C19.5993 14.9089 21.1204 15.4716 22.6426 16.0322C22.8982 16.1261 23.1912 16.2158 23.0665 16.5714C22.9344 16.9472 22.649 16.801 22.4072 16.6899C20.2629 15.698 18.1197 14.7028 15.9766 13.7087C15.9883 13.6682 16.0011 13.6265 16.0128 13.5859H16.0138Z" fill="#323232" data-sentry-element="path" data-sentry-source-file="logo.tsx"></path><path d="M13.6444 15.8214C14.5029 17.6793 15.3189 19.4432 16.1337 21.2093C16.334 21.6428 16.5619 22.0678 16.7121 22.5184C16.7654 22.6785 16.6269 22.9017 16.5769 23.096C16.4139 22.9989 16.155 22.938 16.1018 22.7981C15.2528 20.5473 14.4305 18.2858 13.6039 16.0264C13.5943 15.9986 13.6156 15.9602 13.6444 15.8203V15.8214Z" fill="#323232" data-sentry-element="path" data-sentry-source-file="logo.tsx"></path><path d="M8.04345 13.7013C6.69703 14.3216 5.35169 14.9431 4.00528 15.5634C3.15418 15.9564 2.30841 16.36 1.4456 16.7273C1.31884 16.7817 1.11646 16.6611 0.949219 16.6205C1.02165 16.4475 1.05148 16.1635 1.17185 16.1176C3.43113 15.257 5.70107 14.4252 7.96782 13.5859C7.99232 13.6233 8.01682 13.6617 8.04132 13.6991L8.04345 13.7013Z" fill="#323232" data-sentry-element="path" data-sentry-source-file="logo.tsx"></path><path d="M16.2539 11.0901C18.5473 10.5327 20.8396 9.96677 23.1383 9.43076C23.3172 9.38912 23.6666 9.50016 23.7241 9.63257C23.8605 9.94542 23.5676 10.0522 23.313 10.0917C21.0303 10.4494 18.7475 10.8007 16.4648 11.152C16.3966 11.1627 16.3263 11.1531 16.2571 11.1531C16.2571 11.1317 16.255 11.1103 16.2539 11.089V11.0901Z" fill="#323232" data-sentry-element="path" data-sentry-source-file="logo.tsx"></path><path d="M7.71101 11.1712C6.71931 11.0249 5.72654 10.8818 4.73591 10.7302C3.4108 10.5262 2.08676 10.3148 0.76165 10.1066C0.709455 10.0981 0.637022 10.1077 0.608261 10.0767C0.480438 9.9379 0.365396 9.78735 0.246094 9.64107C0.414395 9.55351 0.606131 9.36131 0.746737 9.39441C3.07739 9.94324 5.40059 10.5209 7.72592 11.0921L7.71101 11.1712Z" fill="#323232" data-sentry-element="path" data-sentry-source-file="logo.tsx"></path><path d="M7.79681 12.8673C6.36092 13.2218 4.92504 13.5774 3.48915 13.9308C2.63273 14.1412 1.77631 14.3515 0.917757 14.5523C0.667435 14.611 0.347876 14.7274 0.261594 14.3483C0.165727 13.9276 0.535351 13.9105 0.798455 13.87C3.11526 13.5059 5.43314 13.1535 7.75101 12.7969C7.76699 12.8214 7.7819 12.8449 7.79788 12.8695L7.79681 12.8673Z" fill="#323232" data-sentry-element="path" data-sentry-source-file="logo.tsx"></path><path d="M12.8359 7.52303C12.9435 6.82898 13.0511 6.13601 13.1587 5.44197C13.4026 3.86702 13.6476 2.29208 13.8894 0.717137C13.931 0.442723 13.9682 0.135209 14.3432 0.216358C14.7043 0.295373 14.6308 0.577261 14.5637 0.855946C14.0492 2.96904 13.5443 5.08427 13.0341 7.19843C13.0064 7.31481 12.9478 7.42479 12.903 7.53691C12.8807 7.53264 12.8583 7.5273 12.8359 7.52303Z" fill="#323232" data-sentry-element="path" data-sentry-source-file="logo.tsx"></path><path d="M11.0677 7.53486C10.6703 5.90759 10.2719 4.28033 9.87569 2.652C9.7255 2.03377 9.59342 1.41126 9.42725 0.798372C9.35162 0.517551 9.35588 0.279441 9.67011 0.214308C10.0046 0.145971 10.0653 0.402233 10.1068 0.672376C10.4179 2.70112 10.7374 4.72879 11.0527 6.75753C11.0922 7.01059 11.1241 7.26471 11.1593 7.51777C11.1294 7.52311 11.0985 7.52952 11.0687 7.53486H11.0677Z" fill="#323232" data-sentry-element="path" data-sentry-source-file="logo.tsx"></path><path d="M16.6001 12.8526C17.6451 13.0096 18.6901 13.1633 19.734 13.3235C20.8503 13.4944 21.9666 13.6705 23.0819 13.8456C23.1863 13.8617 23.3141 13.8617 23.3865 13.9215C23.5261 14.0389 23.6347 14.1948 23.7561 14.3336C23.59 14.419 23.4046 14.6016 23.2619 14.5728C22.3629 14.3891 21.4734 14.1596 20.5819 13.9417C19.2482 13.6171 17.9157 13.2893 16.582 12.9626C16.5884 12.9252 16.5937 12.8879 16.6001 12.8516V12.8526Z" fill="#323232" data-sentry-element="path" data-sentry-source-file="logo.tsx"></path><path d="M11.1632 16.472C10.9779 17.6946 10.7957 18.9182 10.6072 20.1398C10.4442 21.1904 10.2706 22.239 10.1087 23.2896C10.0682 23.5512 10.0266 23.8203 9.68151 23.7595C9.30443 23.6933 9.37154 23.4178 9.43971 23.1391C9.98403 20.9085 10.522 18.6769 11.0609 16.4453C11.095 16.4539 11.1291 16.4624 11.1632 16.4709V16.472Z" fill="#323232" data-sentry-element="path" data-sentry-source-file="logo.tsx"></path><path d="M12.9339 16.4219C13.3675 18.2008 13.8021 19.9796 14.2345 21.7585C14.356 22.2561 14.4976 22.7505 14.5754 23.2545C14.5988 23.4082 14.4412 23.5897 14.3666 23.7584C14.2143 23.6324 13.9533 23.5257 13.9278 23.3773C13.6519 21.7756 13.4122 20.1665 13.163 18.5606C13.0532 17.8537 12.9446 17.1469 12.8359 16.44C12.869 16.4336 12.9009 16.4283 12.9339 16.4219Z" fill="#323232" data-sentry-element="path" data-sentry-source-file="logo.tsx"></path><path d="M17.4034 11.9477C18.9 11.8676 20.3956 11.7875 21.8922 11.7063C22.4216 11.6775 22.952 11.6188 23.4804 11.6359C23.6583 11.6423 23.8298 11.8441 24.0034 11.9562C23.8479 12.0833 23.6881 12.3256 23.5379 12.3192C21.4916 12.2413 19.4465 12.1292 17.4023 12.0245C17.4023 11.9989 17.4045 11.9722 17.4045 11.9466L17.4034 11.9477Z" fill="#323232" data-sentry-element="path" data-sentry-source-file="logo.tsx"></path><path d="M6.58719 12.0294C4.55799 12.133 2.52878 12.244 0.498513 12.3231C0.336603 12.3295 0.166171 12.1042 0 11.9867C0.183214 11.8661 0.370689 11.6343 0.548578 11.6408C2.5618 11.723 4.57397 11.8415 6.58613 11.9515C6.58613 11.9782 6.58613 12.0038 6.58719 12.0305V12.0294Z" fill="#323232" data-sentry-element="path" data-sentry-source-file="logo.tsx"></path><path d="M12.1503 17.5323C12.1503 18.2135 12.1301 18.8969 12.1545 19.5771C12.2014 20.8488 12.276 22.1194 12.3367 23.3911C12.3495 23.6591 12.3814 23.988 12.0118 23.9976C11.6422 24.0072 11.6518 23.6837 11.6646 23.4114C11.7551 21.4542 11.8488 19.497 11.9404 17.5387C12.0107 17.5366 12.08 17.5345 12.1503 17.5312V17.5323Z" fill="#323232" data-sentry-element="path" data-sentry-source-file="logo.tsx"></path><path d="M11.9527 6.4269C11.908 5.64209 11.8568 4.85729 11.8195 4.07142C11.762 2.88728 11.712 1.70313 11.663 0.518991C11.6523 0.264865 11.6544 -0.0447852 12.0049 0.00539938C12.138 0.024619 12.3351 0.317185 12.3298 0.479484C12.2595 2.45804 12.1583 4.4366 12.0645 6.41408C12.0273 6.41835 11.991 6.42263 11.9538 6.4269H11.9527Z" fill="#323232" data-sentry-element="path" data-sentry-source-file="logo.tsx"></path></g><path d="M36.6465 13.8869C36.7388 14.4957 36.9818 14.8929 37.3768 15.0784C37.7718 15.264 38.2455 15.3568 38.798 15.3568C39.4563 15.3568 39.9232 15.2776 40.2 15.118C40.4892 14.946 40.6344 14.6744 40.6344 14.3044C40.6344 14.0397 40.5421 13.8077 40.3575 13.6097C40.1865 13.4116 39.8511 13.2725 39.3504 13.1932L37.9293 12.9545C36.6792 12.7564 35.7441 12.4181 35.1252 11.9417C34.5199 11.4517 34.2172 10.7174 34.2172 9.73742C34.2172 9.23387 34.3229 8.78463 34.5334 8.38746C34.7573 7.99028 35.0667 7.65307 35.4617 7.37471C35.8566 7.09634 36.3236 6.88473 36.8637 6.73876C37.4162 6.58035 38.0216 6.5 38.6798 6.5C39.4956 6.5 40.1809 6.586 40.7334 6.75801C41.2858 6.91642 41.7337 7.13481 42.0758 7.41318C42.4313 7.69154 42.6946 8.02196 42.8656 8.40556C43.0502 8.78916 43.1819 9.19992 43.2606 9.63671L40.793 9.95468C40.6748 9.47829 40.4644 9.1275 40.1617 8.90232C39.8726 8.67714 39.3988 8.56512 38.7405 8.56512C38.3715 8.56512 38.0631 8.59793 37.8122 8.66469C37.5748 8.71788 37.3847 8.7903 37.2395 8.88309C37.1078 8.97587 37.0088 9.08111 36.9436 9.20105C36.8907 9.31987 36.8648 9.43303 36.8648 9.53826C36.8648 9.86867 36.9639 10.1142 37.1607 10.2726C37.3712 10.4186 37.7728 10.5442 38.3648 10.6495L39.6677 10.8679C40.3913 10.9867 40.991 11.1394 41.4647 11.325C41.9385 11.5106 42.3143 11.7414 42.5899 12.0198C42.8792 12.2846 43.0772 12.6026 43.1819 12.9726C43.3 13.3437 43.3596 13.7737 43.3596 14.2637C43.3596 15.2436 42.9906 16.0312 42.2535 16.6264C41.5165 17.2092 40.3778 17.5 38.8373 17.5C38.2184 17.5 37.6266 17.44 37.0606 17.3212C36.5081 17.2148 36.0074 17.0235 35.5596 16.7452C35.1252 16.4668 34.7629 16.0968 34.4737 15.6329C34.1969 15.1701 34.0394 14.5873 34 13.8857H36.6454L36.6465 13.8869Z" fill="#323232" data-sentry-element="path" data-sentry-source-file="logo.tsx"></path><path d="M51.3793 15.8728C50.9709 16.3356 50.5107 16.7135 49.9977 17.0043C49.4969 17.2952 48.8454 17.4412 48.0431 17.4412C47.5829 17.4412 47.1418 17.3812 46.7198 17.2623C46.3113 17.1435 45.9502 16.958 45.634 16.7067C45.3313 16.4555 45.0883 16.1376 44.9037 15.7539C44.7192 15.3568 44.6269 14.8872 44.6269 14.344C44.6269 13.6289 44.7845 13.0473 45.1006 12.5969C45.4168 12.1466 45.8309 11.7957 46.344 11.5445C46.8571 11.2934 47.4298 11.1145 48.0623 11.0082C48.707 10.9018 49.3585 10.8362 50.0168 10.8102L51.34 10.7502V10.2342C51.34 9.59936 51.1622 9.16145 50.8066 8.92382C50.4646 8.68506 50.0561 8.56624 49.5824 8.56624C48.4898 8.56624 47.8642 8.98266 47.7067 9.81662L45.1794 9.57787C45.3639 8.4927 45.8376 7.71191 46.6006 7.23439C47.3634 6.74442 48.3908 6.5 49.6803 6.5C50.4702 6.5 51.1408 6.59958 51.6944 6.79761C52.247 6.98319 52.688 7.25476 53.0177 7.6112C53.3598 7.96878 53.604 8.40556 53.748 8.92156C53.9055 9.4251 53.9854 9.99428 53.9854 10.629V17.1809H51.3793V15.8705V15.8728ZM51.3209 12.5573L50.0967 12.6173C49.5171 12.6433 49.0501 12.7033 48.6946 12.796C48.339 12.8888 48.0623 13.0076 47.8653 13.1536C47.6807 13.286 47.5559 13.4445 47.4906 13.63C47.4242 13.8155 47.3916 14.0204 47.3916 14.2456C47.3916 14.5896 47.5097 14.8612 47.7472 15.0592C47.9846 15.2572 48.3132 15.3568 48.734 15.3568C49.4451 15.3568 50.0235 15.1916 50.4714 14.86C50.7211 14.6744 50.9259 14.4436 51.0835 14.1652C51.241 13.8744 51.3209 13.5168 51.3209 13.0925V12.5561V12.5573Z" fill="#323232" data-sentry-element="path" data-sentry-source-file="logo.tsx"></path><path d="M56.3264 6.81906H59.0112V8.2686C59.3533 7.72545 59.7685 7.32261 60.2546 7.05783C60.7418 6.77946 61.255 6.64141 61.795 6.64141C62.0583 6.64141 62.2755 6.65499 62.4465 6.68101C62.6175 6.69459 62.7694 6.71383 62.9011 6.74098L62.5658 9.26211C62.2496 9.18291 61.8614 9.1433 61.4012 9.1433C61.0985 9.1433 60.8094 9.18291 60.5325 9.26211C60.2558 9.32888 60.0059 9.46014 59.782 9.6593C59.5446 9.8709 59.3679 10.1097 59.2487 10.3744C59.1429 10.6393 59.0911 10.9108 59.0911 11.188V17.1842H56.3264V6.81906Z" fill="#323232" data-sentry-element="path" data-sentry-source-file="logo.tsx"></path><path d="M63.9178 6.81866H67.1168L69.4269 14.0267L71.737 6.81866H74.7976L70.7299 17.1839H67.9652L63.9178 6.81866Z" fill="#323232" data-sentry-element="path" data-sentry-source-file="logo.tsx"></path><path d="M82.0742 15.8728C81.6658 16.3356 81.2056 16.7135 80.6925 17.0043C80.1917 17.2952 79.5403 17.4412 78.7379 17.4412C78.2777 17.4412 77.8367 17.3812 77.4147 17.2623C77.0062 17.1435 76.645 16.958 76.3289 16.7067C76.0262 16.4555 75.7832 16.1376 75.5986 15.7539C75.414 15.3568 75.3217 14.8872 75.3217 14.344C75.3217 13.6289 75.4793 13.0473 75.7955 12.5969C76.1117 12.1466 76.5258 11.7957 77.0389 11.5445C77.5519 11.2934 78.1247 11.1145 78.7571 11.0082C79.4019 10.9018 80.0533 10.8362 80.7116 10.8102L82.0348 10.7502V10.2342C82.0348 9.59936 81.8571 9.16145 81.5015 8.92382C81.1594 8.68506 80.751 8.56624 80.2773 8.56624C79.1847 8.56624 78.559 8.98266 78.4015 9.81662L75.8743 9.57787C76.0588 8.4927 76.5325 7.71191 77.2954 7.23439C78.0583 6.74442 79.0856 6.5 80.3751 6.5C81.1651 6.5 81.8368 6.59958 82.3893 6.79761C82.9418 6.98319 83.3829 7.25476 83.7126 7.6112C84.0546 7.96878 84.2977 8.40556 84.4429 8.92156C84.6004 9.4251 84.6791 9.99428 84.6791 10.629V17.1809H82.0732V15.8705L82.0742 15.8728ZM82.0157 12.5573L80.7915 12.6173C80.212 12.6433 79.745 12.7033 79.3895 12.796C79.0339 12.8888 78.7582 13.0076 78.5602 13.1536C78.3756 13.286 78.2508 13.4445 78.1855 13.63C78.1203 13.8155 78.0865 14.0204 78.0865 14.2456C78.0865 14.5896 78.2046 14.8612 78.442 15.0592C78.6794 15.2572 79.0081 15.3568 79.4289 15.3568C80.14 15.3568 80.7184 15.1916 81.1662 14.86C81.416 14.6744 81.6208 14.4436 81.7783 14.1652C81.9358 13.8744 82.0146 13.5168 82.0146 13.0925V12.5561L82.0157 12.5573Z" fill="#323232" data-sentry-element="path" data-sentry-source-file="logo.tsx"></path><path d="M89.706 6.81911V8.20867C90.0874 7.62591 90.5352 7.19592 91.0484 6.91756C91.5615 6.63919 92.1004 6.50114 92.6676 6.50114C93.4181 6.50114 94.0303 6.6539 94.504 6.95829C94.9777 7.26268 95.3129 7.70625 95.511 8.28901C95.9848 7.65307 96.4855 7.19705 97.0109 6.91868C97.5376 6.64032 98.117 6.50227 98.7483 6.50227C99.815 6.50227 100.611 6.79987 101.137 7.3962C101.677 7.97896 101.946 8.93175 101.946 10.2557V17.1853H99.1815V10.6336C99.1815 10.2625 99.1489 9.96486 99.0825 9.73968C99.0172 9.50092 98.9249 9.31647 98.8068 9.18408C98.701 9.05169 98.5705 8.9589 98.4118 8.90571C98.2543 8.85253 98.0889 8.82651 97.9179 8.82651C97.6422 8.82651 97.3845 8.8729 97.1483 8.96569C96.9243 9.05847 96.7004 9.2169 96.4764 9.44208C96.292 9.62765 96.1411 9.83926 96.0218 10.078C95.9161 10.3168 95.8643 10.568 95.8643 10.8328V17.1865H93.1008V10.6348C93.1008 10.2636 93.0681 9.96599 93.0018 9.74081C92.9365 9.50205 92.8443 9.3176 92.7249 9.18521C92.6203 9.05282 92.4887 8.96003 92.33 8.90685C92.1725 8.85366 92.0081 8.82764 91.8361 8.82764C91.5592 8.82764 91.3027 8.87403 91.0664 8.96682C90.8424 9.05961 90.6186 9.21803 90.3957 9.44321C90.2112 9.62879 90.0593 9.85397 89.9412 10.1188C89.8354 10.37 89.7836 10.6483 89.7836 10.9527V17.1876H87.019V6.81911H89.706Z" fill="#323232" data-sentry-element="path" data-sentry-source-file="logo.tsx"></path><defs data-sentry-element="defs" data-sentry-source-file="logo.tsx"><clipPath id="clip0_10661_3795" data-sentry-element="clipPath" data-sentry-source-file="logo.tsx"><rect width="24" height="24" fill="white" data-sentry-element="rect" data-sentry-source-file="logo.tsx"></rect></clipPath></defs></svg>