<svg width="191" height="69" viewBox="0 0 191 69" fill="none" xmlns="http://www.w3.org/2000/svg">
<path d="M49.25 9.33673L45.7124 6.39796L41.164 3.94898L37.6263 2.47959L34.0887 1.9898L30.5511 1.5H23.4758L18.422 2.47959L13.8737 3.94898L9.83065 6.39796L6.29301 9.33673L4.27151 12.2755L2.75538 15.7041L2.25 19.1327V23.051L2.75538 26.4796L3.26075 29.4184L4.77688 32.8469L7.80914 36.2755L10.8414 38.2347L14.379 40.1939L18.9274 41.1735H26.3152H30.5511L31.5618 41.6633L32.0672 43.6224V45.0918V46.5612L31.0565 48.5204L29.0349 49.5L23.4758 50H20L17 49.5L14.379 48.5204" stroke="#555" stroke-width="3"/>
<path d="M2.94135 59.0567L6.43884 61.9772L10.9045 64.3754L14.3675 65.7962L17.8076 66.2174L21.2477 66.6385L28.105 66.4811L32.9801 65.3689L37.3539 63.7681L41.2149 61.1788L44.5747 58.1009L46.4651 55.0567L47.8541 51.5239L48.2636 48.0135L48.1718 44.0146L47.6016 40.5268L47.043 37.5388L45.4932 34.0734L42.4741 30.6418L39.4893 28.7098L36.0148 26.7891L31.5836 25.8906L24.4235 26.055L20.3181 26.1492L19.327 25.6718L18.7913 23.6836L18.7569 22.184L18.7225 20.6844L19.6562 18.6624L21.5924 17.6177L25.5 17L30 17L32.5 17.6177L35 18.5" stroke="#555" stroke-width="3"/>
<path d="M10.4987 52.4993L13 53.5L16.4989 54.4993L20 55L24 55L27.5 55L31 54.5L34 52.4993L35.5 50.5L36.5 47L36.5 45L36.5 43.5L36.5 42.5L35.9993 41L35.5 39.5L34 38L32.4989 36.9993L25.9989 36.9993" stroke="#555" stroke-width="3"/>
<path d="M39.5 15.5L36 13L32.5 12L28.5 12H25L21.2773 12.847L17.749 13.7308L14.911 16.0245L13.6103 18.1475L13 21.6802L13.2369 23.6344L13.4147 25.1001L13.5331 26.0772L14.2241 27.4863L14.9136 28.8955L16.6288 30.1918L18.2859 31H20.5" stroke="#555" stroke-width="3"/>
<path d="M44 12.9259L41.2903 10.7037L37.8065 8.85185L35.0968 7.74074L32.3871 7.37037L29.6774 7H24.2581L20.3871 7.74074L16.9032 8.85185L13.8065 10.7037L11.0968 12.9259L9.54839 15.1481L8.3871 17.7407L8 20.3333V23.2963L8.3871 25.8889L8.77419 28.1111L9.93548 30.7037L12.2581 33.2963L14.5806 34.7778L17.2903 36.2593L20.7742 37H26.4329M26.4329 37H29.6774H30.4516H21.5484H23.0968H25.0323H29.2903H26.4329Z" stroke="#555" stroke-width="3"/>
<path d="M5.98867 54.1618L8.61919 56.4164L12.0322 58.3336L14.6969 59.5034L17.3844 59.9501L20.0719 60.3967L25.4697 60.5668L29.3481 59.9652L32.8523 58.9898L35.9937 57.2791L38.761 55.1946L40.3716 53.0738L41.608 50.5791L42.0733 48.0602L42.1645 45.1676L41.8587 42.6243L41.5415 40.4427L40.4646 37.8752L38.231 35.2712L35.9633 33.752L33.31 32.2206L29.8627 31.3881L24.2265 31.2105M24.2265 31.2105L20.9949 31.1086L20.2238 31.0843L29.0916 31.3638L27.5494 31.3152L25.6216 31.2544L21.3805 31.1208L24.2265 31.2105Z" stroke="#555" stroke-width="3"/>
<path d="M101.262 9.83673L97.7241 6.89796L93.1757 4.44898L89.6381 2.97959L86.1004 2.4898L82.5628 2H75.4875L70.4338 2.97959L65.8854 4.44898L61.8424 6.89796L58.3047 9.83673L56.2832 12.7755L54.7671 16.2041L54.2617 19.6327V23.551L54.7671 26.9796L55.2725 29.9184L56.7886 33.3469L59.8209 36.7755L62.8531 38.7347L66.3908 40.6939L70.9391 41.6735H78.3269H82.5628L83.5735 42.1633L84.0789 44.1224V45.5918V47.0612L83.0682 49.0204L81.0467 50L75.4875 50.5H72.0117L69.0117 50L66.3908 49.0204" stroke="#555" stroke-width="3"/>
<path d="M54.9531 59.5567L58.4506 62.4772L62.9162 64.8754L66.3792 66.2962L69.8193 66.7174L73.2594 67.1385L80.1167 66.9811L84.9918 65.8689L89.3656 64.2681L93.2266 61.6788L96.5864 58.6009L98.4768 55.5567L99.8659 52.0239L100.275 48.5135L100.184 44.5146L99.6134 41.0268L99.0547 38.0388L97.505 34.5734L94.4858 31.1418L91.5011 29.2098L88.0265 27.2891L83.5953 26.3906L76.4352 26.555L72.3298 26.6492L71.3388 26.1718L70.803 24.1836L70.7686 22.684L70.7342 21.1844L71.6679 19.1624L73.6042 18.1177L77.5117 17.5L82.0117 17.5L84.5117 18.1177L87.0117 19" stroke="#555" stroke-width="3"/>
<path d="M62.5104 52.9993L65.0117 54L68.5106 54.9993L72.0117 55.5L76.0117 55.5L79.5117 55.5L83.0117 55L86.0117 52.9993L87.5117 51L88.5117 47.5L88.5117 45.5L88.5117 44L88.5117 43L88.011 41.5L87.5117 40L86.0117 38.5L84.5106 37.4993L78.0106 37.4993" stroke="#555" stroke-width="3"/>
<path d="M91.5117 16L88.0117 13.5L84.5117 12.5L80.5117 12.5H77.0117L73.289 13.347L69.7607 14.2308L66.9227 16.5245L65.6221 18.6475L65.0117 22.1802L65.2487 24.1344L65.4264 25.6001L65.5449 26.5772L66.2358 27.9863L66.9253 29.3955L68.6405 30.6918L70.2977 31.5H72.5117" stroke="#555" stroke-width="3"/>
<path d="M96.0117 13.4259L93.302 11.2037L89.8182 9.35185L87.1085 8.24074L84.3988 7.87037L81.6891 7.5H76.2698L72.3988 8.24074L68.9149 9.35185L65.8182 11.2037L63.1085 13.4259L61.5601 15.6481L60.3988 18.2407L60.0117 20.8333V23.7963L60.3988 26.3889L60.7859 28.6111L61.9472 31.2037L64.2698 33.7963L66.5924 35.2778L69.302 36.7593L72.7859 37.5H78.4447M78.4447 37.5H81.6891H82.4633H73.5601H75.1085H77.044H81.302H78.4447Z" stroke="#555" stroke-width="3"/>
<path d="M58.0004 54.6618L60.6309 56.9164L64.0439 58.8336L66.7086 60.0034L69.3962 60.4501L72.0836 60.8967L77.4814 61.0668L81.3598 60.4652L84.864 59.4898L88.0054 57.7791L90.7727 55.6946L92.3833 53.5738L93.6197 51.0791L94.085 48.5602L94.1762 45.6676L93.8704 43.1243L93.5532 40.9427L92.4763 38.3752L90.2427 35.7712L87.975 34.252L85.3217 32.7206L81.8745 31.8881L76.2382 31.7105M76.2382 31.7105L73.0067 31.6086L72.2356 31.5843L81.1033 31.8638L79.5611 31.8152L77.6333 31.7544L73.3922 31.6208L76.2382 31.7105Z" stroke="#555" stroke-width="3"/>
<path d="M108 3.99993L108.5 65" stroke="#555" stroke-width="3"/>
<path d="M113.5 3.99967L113.5 64.9996" stroke="#555" stroke-width="3"/>
<path d="M118 3.99993L118.501 65" stroke="#555" stroke-width="3"/>
<path d="M123 3.99993L123.5 65" stroke="#555" stroke-width="3"/>
<path d="M133.001 3.99993L133.501 65" stroke="#555" stroke-width="3"/>
<path d="M139 9L139 65" stroke="#555" stroke-width="3"/>
<path d="M144 14L144 65" stroke="#555" stroke-width="3"/>
<path d="M150 19V65" stroke="#555" stroke-width="3"/>
<path d="M131.5 5L153.5 5H165L168 5H171L173.5 5.5L176.5 6.5L179.5 8L182 10L184.5 12.5L187 16L189 19.5L189.5 23V26.5L189 30.5L188 35L186.5 38L184.5 41L182 43L179 45L176.5 46.5L173.5 47.5L153 47.5" stroke="#555" stroke-width="3"/>
<path d="M137.5 9.75L155.435 9.75H164.56H166.941H169.321L171.305 10.1323L173.685 10.8968L176.065 12.0436L178.049 13.5726L180.033 15.4839L182.016 18.1598L183.603 20.8356L184 23.5114V26.1873L183.603 29.2454L182.81 32.6857L181.62 34.9793L180.033 37.2729L178.049 38.8019L175.669 40.331L173.685 41.4778L171.305 42.2423L169.5 42.5H167.5H162.5H153" stroke="#555" stroke-width="3"/>
<path d="M142.5 15L157 15L164.11 15H165.933H167.756L169.276 15.2568L171.099 15.7704L172.922 16.5407L174.442 17.5679L175.961 18.8518L177.481 20.6493L178.696 22.4468L179 24.2443V26.0418L178.696 28.0961L178.088 30.4072L177.177 31.9479L175.961 33.4887L174.442 34.5158L172.619 35.543L171.099 36.3133L169.276 36.8269L167.894 37H166.362H162.532L153 37" stroke="#555" stroke-width="3"/>
<path d="M148.5 20L158.932 20L163.801 20H165.05H166.299L167.34 20.1284L168.588 20.3852L169.837 20.7704L170.878 21.2839L171.919 21.9259L172.959 22.8247L173.792 23.7234L174 24.6222V25.5209L173.792 26.5481L173.5 28L173 29L171.919 30.2715L171.5 30.5L170.878 31L169.629 31.5H168L166.5 31.5H165.05H162.5L153 31.5" stroke="#555" stroke-width="3"/>
</svg>
