<svg width="380" height="92" viewBox="0 0 380 92" fill="none" xmlns="http://www.w3.org/2000/svg">
<path d="M34.18 91H23.39V1.29999H0.9V-6.19888e-06H56.8V1.29999H34.18V91ZM119.62 91C113.727 91 109.697 89.8733 107.53 87.62C105.537 85.7133 104.54 84.0667 104.54 82.68V79.95C100.294 87.6633 93.4905 91.52 84.1305 91.52C73.2105 91.52 67.0138 86.58 65.5405 76.7C65.3671 75.66 65.2805 74.62 65.2805 73.58C65.2805 72.4533 65.4538 71.24 65.8005 69.94C66.1471 68.64 67.1438 67.21 68.7905 65.65C72.0838 62.53 79.3205 60.6233 90.5005 59.93C93.2738 59.67 95.8305 59.54 98.1705 59.54C100.51 59.54 102.634 59.6267 104.54 59.8V38.22C104.367 38.1333 104.367 37.7433 104.54 37.05C104.714 36.27 104.54 35.3167 104.02 34.19C103.587 32.9767 102.98 31.8067 102.2 30.68C101.42 29.5533 100.034 28.6 98.0405 27.82C96.0471 26.9533 93.4471 26.52 90.2405 26.52C87.0338 26.52 83.2638 27.1267 78.9305 28.34C74.6838 29.4667 71.5638 30.5933 69.5705 31.72L69.0505 30.81C76.7638 27.2567 84.6071 25.48 92.5805 25.48C101.507 25.48 107.4 27.0833 110.26 30.29C112.514 32.8033 113.64 35.4467 113.64 38.22V81.77C113.64 84.2833 114.117 86.2333 115.07 87.62C116.11 88.92 117.15 89.6133 118.19 89.7L119.62 89.96H123.65V91H119.62ZM86.2105 90.48C90.8038 90.48 94.9205 88.92 98.5605 85.8C102.287 82.5933 104.28 79.5167 104.54 76.57V60.84C102.2 60.6667 99.8171 60.58 97.3905 60.58C95.0505 60.58 92.7105 60.71 90.3705 60.97C83.7838 61.75 79.4938 63.2233 77.5005 65.39C75.5071 67.5567 74.5105 70.5467 74.5105 74.36C74.5105 75.0533 74.5538 75.8333 74.6405 76.7C75.4205 85.8867 79.2771 90.48 86.2105 90.48ZM184.754 91C181.2 91 178.47 90.22 176.564 88.66C174.744 87.1 173.79 85.54 173.704 83.98L173.574 81.77V40.95C173.574 34.1033 171.797 29.7267 168.244 27.82C166.424 26.9533 164.17 26.52 161.484 26.52C155.937 26.52 150.954 28.73 146.534 33.15C142.114 37.4833 139.904 41.3833 139.904 44.85V91H130.804V26H139.904V40.82C141.377 37.0933 144.107 33.6267 148.094 30.42C152.08 27.1267 156.457 25.48 161.224 25.48C165.99 25.48 169.847 25.9567 172.794 26.91C175.827 27.7767 178.037 29.0333 179.424 30.68C181.59 33.3667 182.674 36.8333 182.674 41.08V81.77C182.674 84.2833 183.15 86.2333 184.104 87.62C185.144 88.92 186.184 89.6133 187.224 89.7L188.654 89.96H192.684V91H184.754ZM198.581 27.04V26H201.311V13H210.411V26H230.301V27.04H210.411V74.36C210.411 79.9933 211.018 84.0667 212.231 86.58C213.531 89.0933 216.175 90.35 220.161 90.35C224.235 90.35 228.351 89.5267 232.511 87.88L232.901 88.92C228.568 90.5667 223.585 91.39 217.951 91.39C212.405 91.39 208.245 90.2633 205.471 88.01C202.698 85.67 201.311 81.0767 201.311 74.23V27.04H198.581ZM263.544 31.59V28.86C259.644 30.42 256.09 33.5833 252.884 38.35C249.677 43.03 247.987 47.45 247.814 51.61V91H238.714V26H247.814V46.67C249.2 41.6433 251.844 36.92 255.744 32.5C259.644 27.9933 264.064 25.6533 269.004 25.48H269.524C271.257 25.48 272.687 26.0867 273.814 27.3C275.027 28.4267 275.634 29.8567 275.634 31.59C275.634 33.3233 275.027 34.7533 273.814 35.88C272.687 37.0067 271.257 37.57 269.524 37.57C267.79 37.57 266.36 37.0067 265.234 35.88C264.107 34.7533 263.544 33.3233 263.544 31.59ZM298.692 91C295.139 91 292.409 90.22 290.502 88.66C288.682 87.1 287.729 85.54 287.642 83.98L287.512 81.77V26H296.612V81.77C296.612 84.2833 297.089 86.2333 298.042 87.62C299.082 88.92 300.079 89.6133 301.032 89.7L302.592 89.96H306.622V91H298.692ZM288.292 11.44C287.252 10.4 286.732 9.1 286.732 7.54C286.732 5.98 287.252 4.68 288.292 3.63999C289.332 2.51333 290.632 1.94999 292.192 1.94999C293.752 1.94999 295.052 2.51333 296.092 3.63999C297.219 4.68 297.782 5.98 297.782 7.54C297.782 9.1 297.219 10.4 296.092 11.44C295.052 12.48 293.752 13 292.192 13C290.632 13 289.332 12.48 288.292 11.44ZM319.644 91H317.954L341.484 44.46L315.744 -6.19888e-06H326.664L349.024 38.48L368.524 -6.19888e-06H370.084L349.934 40.04L379.574 91H368.654L342.394 45.89L319.644 91Z" fill="black"/>
</svg>
