<svg width="80" height="64" viewBox="0 0 80 64" fill="none" xmlns="http://www.w3.org/2000/svg">
<mask id="path-1-inside-1_8989_875" fill="white">
<path d="M0 26.1094H2.46899V38.1993H0V26.1094Z"/>
<path d="M9.42182 25.8398C11.7208 25.8398 13.9003 27.0659 13.9855 29.2794H11.5846C11.5505 28.1897 10.648 27.4404 9.30266 27.4404C7.99154 27.4404 7.31042 28.2749 7.31042 29.1602C7.31042 30.2501 8.2811 30.6077 10.2393 31.0163C13.0659 31.6122 14.3261 32.685 14.3261 34.7285C14.3261 36.9761 12.555 38.4745 9.64322 38.4745C6.61226 38.4745 4.72214 37.0613 4.58594 34.6944H7.07198C7.2083 36.1588 8.48535 36.8568 9.74547 36.8568C11.0566 36.8568 11.9932 36.0736 11.9932 34.8988C11.9932 33.6046 10.8693 33.281 8.99618 32.8724C5.84606 32.1913 4.99454 31.1185 4.99454 29.3305C4.99454 27.3724 6.6293 25.8398 9.42182 25.8398Z"/>
<path d="M21.8431 25.8398C25.47 25.8398 27.6497 28.5642 27.6497 32.1571C27.6497 35.75 25.47 38.4745 21.8431 38.4745C18.2332 38.4745 16.0195 35.75 16.0195 32.1571C16.0195 28.5642 18.2332 25.8398 21.8431 25.8398ZM21.8431 27.4914C19.8678 27.4914 18.5567 29.3305 18.5567 32.1571C18.5567 34.9838 19.8678 36.8227 21.8431 36.8227C23.8524 36.8227 25.1125 35.0178 25.1125 32.1571C25.1125 29.2964 23.8524 27.4914 21.8431 27.4914Z"/>
<path d="M29.8125 29.6367H32.2985V31.8333H29.8125V29.6367ZM29.8125 36.0051H32.2985V38.2017H29.8125V36.0051Z"/>
<path d="M39.5683 35.015L38.0875 36.4454H43.1275V38.1992H34.7666V36.7008L37.9003 33.6528C39.3475 32.2564 40.6759 30.8772 40.6759 29.3958C40.6759 28.1697 39.9943 27.4376 38.9731 27.4376C37.8655 27.4376 37.0651 28.4423 36.9979 29.7023H34.6133C34.6644 27.6078 36.5371 25.8711 38.9731 25.8711C41.7307 25.8711 43.0423 27.5057 43.0423 29.3958C43.0423 31.5753 41.4415 33.193 39.5683 35.015Z"/>
<path d="M44.6172 27.8633V26.1094H52.722V27.5568C50.7636 30.0258 48.8736 34.4191 48.618 38.1993H45.9792C46.3884 34.4362 48.5676 30.4687 50.628 27.8633H44.6172Z"/>
<path d="M58.4464 38.4717C55.2783 38.4717 54.0352 35.594 54.0352 32.1713C54.0352 28.6977 55.33 25.8711 58.4464 25.8711C61.5964 25.8711 62.8564 28.7317 62.8564 32.1713C62.8564 35.6792 61.5616 38.4717 58.4464 38.4717ZM58.4464 36.9051C60.0292 36.9051 60.472 34.8277 60.472 32.1713C60.472 29.515 59.9956 27.4376 58.4464 27.4376C56.8959 27.4376 56.4532 29.5321 56.4532 32.1713C56.4532 34.8107 56.8959 36.9051 58.4464 36.9051Z"/>
<path d="M68.7381 38.4717C65.5701 38.4717 64.3281 35.594 64.3281 32.1713C64.3281 28.6977 65.6217 25.8711 68.7381 25.8711C71.8881 25.8711 73.1481 28.7317 73.1481 32.1713C73.1481 35.6792 71.8545 38.4717 68.7381 38.4717ZM68.7381 36.9051C70.3221 36.9051 70.7637 34.8277 70.7637 32.1713C70.7637 29.515 70.2873 27.4376 68.7381 27.4376C67.1889 27.4376 66.7461 29.5321 66.7461 32.1713C66.7461 34.8107 67.1889 36.9051 68.7381 36.9051Z"/>
<path d="M74.918 28.1359L77.5568 26.1094H79.3964V38.1993H77.0288V28.4934L74.918 30.0599V28.1359Z"/>
<path d="M60.5439 54.0464C58.3359 52.3136 55.9047 50.8887 53.3331 49.7709L54.1719 46.6971L51.9639 46.1661L51.2091 48.9605C44.5023 46.6691 37.2351 46.6691 30.5283 48.9605L29.7737 46.1661L27.5659 46.6971L28.4043 49.7709C25.8333 50.8607 23.4019 52.3136 21.194 54.0464C18.5948 51.7268 16.4151 48.9605 14.7661 45.8867L12.7539 46.9764C21.0543 62.5136 40.3935 68.354 55.9323 60.0548C61.4655 57.0644 66.0207 52.5092 68.9835 46.9486L66.9711 45.8867C65.3223 48.9605 63.1431 51.7268 60.5439 54.0464ZM25.6655 57.344C24.7432 56.7848 23.849 56.1704 22.9826 55.4996C24.8549 54.074 26.9231 52.8728 29.1029 51.9224C30.137 54.7172 31.3947 57.1208 32.82 58.9928C33.295 59.6348 33.826 60.2504 34.385 60.8084C31.3108 60.1388 28.3765 58.964 25.6655 57.344ZM40.8687 61.508C38.6607 61.508 36.5367 60.0824 34.6924 57.6236C33.4069 55.9184 32.261 53.7116 31.2829 51.1124C34.357 50.0504 37.5987 49.5195 40.8687 49.5195C44.1387 49.5195 47.3799 50.0504 50.4831 51.1124C49.5327 53.6828 48.3591 55.9184 47.0727 57.6236C45.2283 60.0824 43.0767 61.508 40.8687 61.508ZM56.0439 57.344C53.3607 58.964 50.3991 60.11 47.3247 60.8372C47.8839 60.278 48.4143 59.6636 48.8895 59.0204C50.3151 57.1208 51.5727 54.7448 52.6059 51.9512C54.7863 52.9004 56.8263 54.1028 58.7271 55.5272C57.8607 56.1704 56.9667 56.7848 56.0439 57.344Z"/>
<path d="M21.194 9.75451C23.4019 11.487 25.8052 12.9122 28.4043 14.0299L27.5659 17.1037L29.7737 17.6347L30.5283 14.8404C33.854 15.9861 37.3479 16.5729 40.8687 16.5729C44.3895 16.5729 47.8839 15.9861 51.2091 14.8404L51.9639 17.6347L54.1719 17.1037L53.3331 14.0299C55.9047 12.9402 58.3359 11.487 60.5439 9.75451C63.1431 12.0738 65.3223 14.8404 66.9711 17.9143L68.9835 16.8523C60.6831 1.31539 41.3715 -4.52501 25.8333 3.77443C20.2717 6.73663 15.7163 11.2913 12.7539 16.8523L14.7661 17.9143C16.4151 14.8404 18.5948 12.0738 21.194 9.75451ZM56.0439 6.48499C56.9943 7.04383 57.8883 7.63063 58.7271 8.30131C56.8539 9.72655 54.7863 10.9281 52.6059 11.8783C51.5727 9.11167 50.3151 6.70855 48.8895 4.83631C48.4143 4.19359 47.8839 3.57883 47.3247 3.01999C50.3991 3.69067 53.3331 4.86427 56.0439 6.48499ZM40.8687 2.29339C43.1043 2.29339 45.2283 3.71851 47.0727 6.17767C48.3591 7.88227 49.5039 10.0898 50.4831 12.6886C47.3799 13.7505 44.1387 14.2815 40.8687 14.2815C37.5987 14.3094 34.357 13.7505 31.255 12.6886C32.2052 10.0898 33.3789 7.88227 34.6645 6.17767C36.5091 3.71851 38.6331 2.29339 40.8687 2.29339ZM25.6655 6.48499C28.4043 4.86427 31.3387 3.69067 34.385 3.01999C33.826 3.57883 33.295 4.19359 32.82 4.83631C31.3947 6.70855 30.137 9.08383 29.1029 11.8783C26.9231 10.9562 24.883 9.75451 22.9826 8.30131C23.849 7.65871 24.7432 7.04383 25.6655 6.48499Z"/>
</mask>
<path d="M0 26.1094H2.46899V38.1993H0V26.1094Z" fill="url(#paint0_linear_8989_875)"/>
<path d="M9.42182 25.8398C11.7208 25.8398 13.9003 27.0659 13.9855 29.2794H11.5846C11.5505 28.1897 10.648 27.4404 9.30266 27.4404C7.99154 27.4404 7.31042 28.2749 7.31042 29.1602C7.31042 30.2501 8.2811 30.6077 10.2393 31.0163C13.0659 31.6122 14.3261 32.685 14.3261 34.7285C14.3261 36.9761 12.555 38.4745 9.64322 38.4745C6.61226 38.4745 4.72214 37.0613 4.58594 34.6944H7.07198C7.2083 36.1588 8.48535 36.8568 9.74547 36.8568C11.0566 36.8568 11.9932 36.0736 11.9932 34.8988C11.9932 33.6046 10.8693 33.281 8.99618 32.8724C5.84606 32.1913 4.99454 31.1185 4.99454 29.3305C4.99454 27.3724 6.6293 25.8398 9.42182 25.8398Z" fill="url(#paint1_linear_8989_875)"/>
<path d="M21.8431 25.8398C25.47 25.8398 27.6497 28.5642 27.6497 32.1571C27.6497 35.75 25.47 38.4745 21.8431 38.4745C18.2332 38.4745 16.0195 35.75 16.0195 32.1571C16.0195 28.5642 18.2332 25.8398 21.8431 25.8398ZM21.8431 27.4914C19.8678 27.4914 18.5567 29.3305 18.5567 32.1571C18.5567 34.9838 19.8678 36.8227 21.8431 36.8227C23.8524 36.8227 25.1125 35.0178 25.1125 32.1571C25.1125 29.2964 23.8524 27.4914 21.8431 27.4914Z" fill="url(#paint2_linear_8989_875)"/>
<path d="M29.8125 29.6367H32.2985V31.8333H29.8125V29.6367ZM29.8125 36.0051H32.2985V38.2017H29.8125V36.0051Z" fill="url(#paint3_linear_8989_875)"/>
<path d="M39.5683 35.015L38.0875 36.4454H43.1275V38.1992H34.7666V36.7008L37.9003 33.6528C39.3475 32.2564 40.6759 30.8772 40.6759 29.3958C40.6759 28.1697 39.9943 27.4376 38.9731 27.4376C37.8655 27.4376 37.0651 28.4423 36.9979 29.7023H34.6133C34.6644 27.6078 36.5371 25.8711 38.9731 25.8711C41.7307 25.8711 43.0423 27.5057 43.0423 29.3958C43.0423 31.5753 41.4415 33.193 39.5683 35.015Z" fill="url(#paint4_linear_8989_875)"/>
<path d="M44.6172 27.8633V26.1094H52.722V27.5568C50.7636 30.0258 48.8736 34.4191 48.618 38.1993H45.9792C46.3884 34.4362 48.5676 30.4687 50.628 27.8633H44.6172Z" fill="url(#paint5_linear_8989_875)"/>
<path d="M58.4464 38.4717C55.2783 38.4717 54.0352 35.594 54.0352 32.1713C54.0352 28.6977 55.33 25.8711 58.4464 25.8711C61.5964 25.8711 62.8564 28.7317 62.8564 32.1713C62.8564 35.6792 61.5616 38.4717 58.4464 38.4717ZM58.4464 36.9051C60.0292 36.9051 60.472 34.8277 60.472 32.1713C60.472 29.515 59.9956 27.4376 58.4464 27.4376C56.8959 27.4376 56.4532 29.5321 56.4532 32.1713C56.4532 34.8107 56.8959 36.9051 58.4464 36.9051Z" fill="url(#paint6_linear_8989_875)"/>
<path d="M68.7381 38.4717C65.5701 38.4717 64.3281 35.594 64.3281 32.1713C64.3281 28.6977 65.6217 25.8711 68.7381 25.8711C71.8881 25.8711 73.1481 28.7317 73.1481 32.1713C73.1481 35.6792 71.8545 38.4717 68.7381 38.4717ZM68.7381 36.9051C70.3221 36.9051 70.7637 34.8277 70.7637 32.1713C70.7637 29.515 70.2873 27.4376 68.7381 27.4376C67.1889 27.4376 66.7461 29.5321 66.7461 32.1713C66.7461 34.8107 67.1889 36.9051 68.7381 36.9051Z" fill="url(#paint7_linear_8989_875)"/>
<path d="M74.918 28.1359L77.5568 26.1094H79.3964V38.1993H77.0288V28.4934L74.918 30.0599V28.1359Z" fill="url(#paint8_linear_8989_875)"/>
<path d="M60.5439 54.0464C58.3359 52.3136 55.9047 50.8887 53.3331 49.7709L54.1719 46.6971L51.9639 46.1661L51.2091 48.9605C44.5023 46.6691 37.2351 46.6691 30.5283 48.9605L29.7737 46.1661L27.5659 46.6971L28.4043 49.7709C25.8333 50.8607 23.4019 52.3136 21.194 54.0464C18.5948 51.7268 16.4151 48.9605 14.7661 45.8867L12.7539 46.9764C21.0543 62.5136 40.3935 68.354 55.9323 60.0548C61.4655 57.0644 66.0207 52.5092 68.9835 46.9486L66.9711 45.8867C65.3223 48.9605 63.1431 51.7268 60.5439 54.0464ZM25.6655 57.344C24.7432 56.7848 23.849 56.1704 22.9826 55.4996C24.8549 54.074 26.9231 52.8728 29.1029 51.9224C30.137 54.7172 31.3947 57.1208 32.82 58.9928C33.295 59.6348 33.826 60.2504 34.385 60.8084C31.3108 60.1388 28.3765 58.964 25.6655 57.344ZM40.8687 61.508C38.6607 61.508 36.5367 60.0824 34.6924 57.6236C33.4069 55.9184 32.261 53.7116 31.2829 51.1124C34.357 50.0504 37.5987 49.5195 40.8687 49.5195C44.1387 49.5195 47.3799 50.0504 50.4831 51.1124C49.5327 53.6828 48.3591 55.9184 47.0727 57.6236C45.2283 60.0824 43.0767 61.508 40.8687 61.508ZM56.0439 57.344C53.3607 58.964 50.3991 60.11 47.3247 60.8372C47.8839 60.278 48.4143 59.6636 48.8895 59.0204C50.3151 57.1208 51.5727 54.7448 52.6059 51.9512C54.7863 52.9004 56.8263 54.1028 58.7271 55.5272C57.8607 56.1704 56.9667 56.7848 56.0439 57.344Z" fill="url(#paint9_linear_8989_875)"/>
<path d="M21.194 9.75451C23.4019 11.487 25.8052 12.9122 28.4043 14.0299L27.5659 17.1037L29.7737 17.6347L30.5283 14.8404C33.854 15.9861 37.3479 16.5729 40.8687 16.5729C44.3895 16.5729 47.8839 15.9861 51.2091 14.8404L51.9639 17.6347L54.1719 17.1037L53.3331 14.0299C55.9047 12.9402 58.3359 11.487 60.5439 9.75451C63.1431 12.0738 65.3223 14.8404 66.9711 17.9143L68.9835 16.8523C60.6831 1.31539 41.3715 -4.52501 25.8333 3.77443C20.2717 6.73663 15.7163 11.2913 12.7539 16.8523L14.7661 17.9143C16.4151 14.8404 18.5948 12.0738 21.194 9.75451ZM56.0439 6.48499C56.9943 7.04383 57.8883 7.63063 58.7271 8.30131C56.8539 9.72655 54.7863 10.9281 52.6059 11.8783C51.5727 9.11167 50.3151 6.70855 48.8895 4.83631C48.4143 4.19359 47.8839 3.57883 47.3247 3.01999C50.3991 3.69067 53.3331 4.86427 56.0439 6.48499ZM40.8687 2.29339C43.1043 2.29339 45.2283 3.71851 47.0727 6.17767C48.3591 7.88227 49.5039 10.0898 50.4831 12.6886C47.3799 13.7505 44.1387 14.2815 40.8687 14.2815C37.5987 14.3094 34.357 13.7505 31.255 12.6886C32.2052 10.0898 33.3789 7.88227 34.6645 6.17767C36.5091 3.71851 38.6331 2.29339 40.8687 2.29339ZM25.6655 6.48499C28.4043 4.86427 31.3387 3.69067 34.385 3.01999C33.826 3.57883 33.295 4.19359 32.82 4.83631C31.3947 6.70855 30.137 9.08383 29.1029 11.8783C26.9231 10.9562 24.883 9.75451 22.9826 8.30131C23.849 7.65871 24.7432 7.04383 25.6655 6.48499Z" fill="url(#paint10_linear_8989_875)"/>
<path d="M0 26.1094H2.46899V38.1993H0V26.1094Z" stroke="url(#paint11_linear_8989_875)" stroke-width="2.4" mask="url(#path-1-inside-1_8989_875)"/>
<path d="M9.42182 25.8398C11.7208 25.8398 13.9003 27.0659 13.9855 29.2794H11.5846C11.5505 28.1897 10.648 27.4404 9.30266 27.4404C7.99154 27.4404 7.31042 28.2749 7.31042 29.1602C7.31042 30.2501 8.2811 30.6077 10.2393 31.0163C13.0659 31.6122 14.3261 32.685 14.3261 34.7285C14.3261 36.9761 12.555 38.4745 9.64322 38.4745C6.61226 38.4745 4.72214 37.0613 4.58594 34.6944H7.07198C7.2083 36.1588 8.48535 36.8568 9.74547 36.8568C11.0566 36.8568 11.9932 36.0736 11.9932 34.8988C11.9932 33.6046 10.8693 33.281 8.99618 32.8724C5.84606 32.1913 4.99454 31.1185 4.99454 29.3305C4.99454 27.3724 6.6293 25.8398 9.42182 25.8398Z" stroke="url(#paint12_linear_8989_875)" stroke-width="2.4" mask="url(#path-1-inside-1_8989_875)"/>
<path d="M21.8431 25.8398C25.47 25.8398 27.6497 28.5642 27.6497 32.1571C27.6497 35.75 25.47 38.4745 21.8431 38.4745C18.2332 38.4745 16.0195 35.75 16.0195 32.1571C16.0195 28.5642 18.2332 25.8398 21.8431 25.8398ZM21.8431 27.4914C19.8678 27.4914 18.5567 29.3305 18.5567 32.1571C18.5567 34.9838 19.8678 36.8227 21.8431 36.8227C23.8524 36.8227 25.1125 35.0178 25.1125 32.1571C25.1125 29.2964 23.8524 27.4914 21.8431 27.4914Z" stroke="url(#paint13_linear_8989_875)" stroke-width="2.4" mask="url(#path-1-inside-1_8989_875)"/>
<path d="M29.8125 29.6367H32.2985V31.8333H29.8125V29.6367ZM29.8125 36.0051H32.2985V38.2017H29.8125V36.0051Z" stroke="url(#paint14_linear_8989_875)" stroke-width="2.4" mask="url(#path-1-inside-1_8989_875)"/>
<path d="M39.5683 35.015L38.0875 36.4454H43.1275V38.1992H34.7666V36.7008L37.9003 33.6528C39.3475 32.2564 40.6759 30.8772 40.6759 29.3958C40.6759 28.1697 39.9943 27.4376 38.9731 27.4376C37.8655 27.4376 37.0651 28.4423 36.9979 29.7023H34.6133C34.6644 27.6078 36.5371 25.8711 38.9731 25.8711C41.7307 25.8711 43.0423 27.5057 43.0423 29.3958C43.0423 31.5753 41.4415 33.193 39.5683 35.015Z" stroke="url(#paint15_linear_8989_875)" stroke-width="2.4" mask="url(#path-1-inside-1_8989_875)"/>
<path d="M44.6172 27.8633V26.1094H52.722V27.5568C50.7636 30.0258 48.8736 34.4191 48.618 38.1993H45.9792C46.3884 34.4362 48.5676 30.4687 50.628 27.8633H44.6172Z" stroke="url(#paint16_linear_8989_875)" stroke-width="2.4" mask="url(#path-1-inside-1_8989_875)"/>
<path d="M58.4464 38.4717C55.2783 38.4717 54.0352 35.594 54.0352 32.1713C54.0352 28.6977 55.33 25.8711 58.4464 25.8711C61.5964 25.8711 62.8564 28.7317 62.8564 32.1713C62.8564 35.6792 61.5616 38.4717 58.4464 38.4717ZM58.4464 36.9051C60.0292 36.9051 60.472 34.8277 60.472 32.1713C60.472 29.515 59.9956 27.4376 58.4464 27.4376C56.8959 27.4376 56.4532 29.5321 56.4532 32.1713C56.4532 34.8107 56.8959 36.9051 58.4464 36.9051Z" stroke="url(#paint17_linear_8989_875)" stroke-width="2.4" mask="url(#path-1-inside-1_8989_875)"/>
<path d="M68.7381 38.4717C65.5701 38.4717 64.3281 35.594 64.3281 32.1713C64.3281 28.6977 65.6217 25.8711 68.7381 25.8711C71.8881 25.8711 73.1481 28.7317 73.1481 32.1713C73.1481 35.6792 71.8545 38.4717 68.7381 38.4717ZM68.7381 36.9051C70.3221 36.9051 70.7637 34.8277 70.7637 32.1713C70.7637 29.515 70.2873 27.4376 68.7381 27.4376C67.1889 27.4376 66.7461 29.5321 66.7461 32.1713C66.7461 34.8107 67.1889 36.9051 68.7381 36.9051Z" stroke="url(#paint18_linear_8989_875)" stroke-width="2.4" mask="url(#path-1-inside-1_8989_875)"/>
<path d="M74.918 28.1359L77.5568 26.1094H79.3964V38.1993H77.0288V28.4934L74.918 30.0599V28.1359Z" stroke="url(#paint19_linear_8989_875)" stroke-width="2.4" mask="url(#path-1-inside-1_8989_875)"/>
<path d="M60.5439 54.0464C58.3359 52.3136 55.9047 50.8887 53.3331 49.7709L54.1719 46.6971L51.9639 46.1661L51.2091 48.9605C44.5023 46.6691 37.2351 46.6691 30.5283 48.9605L29.7737 46.1661L27.5659 46.6971L28.4043 49.7709C25.8333 50.8607 23.4019 52.3136 21.194 54.0464C18.5948 51.7268 16.4151 48.9605 14.7661 45.8867L12.7539 46.9764C21.0543 62.5136 40.3935 68.354 55.9323 60.0548C61.4655 57.0644 66.0207 52.5092 68.9835 46.9486L66.9711 45.8867C65.3223 48.9605 63.1431 51.7268 60.5439 54.0464ZM25.6655 57.344C24.7432 56.7848 23.849 56.1704 22.9826 55.4996C24.8549 54.074 26.9231 52.8728 29.1029 51.9224C30.137 54.7172 31.3947 57.1208 32.82 58.9928C33.295 59.6348 33.826 60.2504 34.385 60.8084C31.3108 60.1388 28.3765 58.964 25.6655 57.344ZM40.8687 61.508C38.6607 61.508 36.5367 60.0824 34.6924 57.6236C33.4069 55.9184 32.261 53.7116 31.2829 51.1124C34.357 50.0504 37.5987 49.5195 40.8687 49.5195C44.1387 49.5195 47.3799 50.0504 50.4831 51.1124C49.5327 53.6828 48.3591 55.9184 47.0727 57.6236C45.2283 60.0824 43.0767 61.508 40.8687 61.508ZM56.0439 57.344C53.3607 58.964 50.3991 60.11 47.3247 60.8372C47.8839 60.278 48.4143 59.6636 48.8895 59.0204C50.3151 57.1208 51.5727 54.7448 52.6059 51.9512C54.7863 52.9004 56.8263 54.1028 58.7271 55.5272C57.8607 56.1704 56.9667 56.7848 56.0439 57.344Z" stroke="url(#paint20_linear_8989_875)" stroke-width="2.4" mask="url(#path-1-inside-1_8989_875)"/>
<path d="M21.194 9.75451C23.4019 11.487 25.8052 12.9122 28.4043 14.0299L27.5659 17.1037L29.7737 17.6347L30.5283 14.8404C33.854 15.9861 37.3479 16.5729 40.8687 16.5729C44.3895 16.5729 47.8839 15.9861 51.2091 14.8404L51.9639 17.6347L54.1719 17.1037L53.3331 14.0299C55.9047 12.9402 58.3359 11.487 60.5439 9.75451C63.1431 12.0738 65.3223 14.8404 66.9711 17.9143L68.9835 16.8523C60.6831 1.31539 41.3715 -4.52501 25.8333 3.77443C20.2717 6.73663 15.7163 11.2913 12.7539 16.8523L14.7661 17.9143C16.4151 14.8404 18.5948 12.0738 21.194 9.75451ZM56.0439 6.48499C56.9943 7.04383 57.8883 7.63063 58.7271 8.30131C56.8539 9.72655 54.7863 10.9281 52.6059 11.8783C51.5727 9.11167 50.3151 6.70855 48.8895 4.83631C48.4143 4.19359 47.8839 3.57883 47.3247 3.01999C50.3991 3.69067 53.3331 4.86427 56.0439 6.48499ZM40.8687 2.29339C43.1043 2.29339 45.2283 3.71851 47.0727 6.17767C48.3591 7.88227 49.5039 10.0898 50.4831 12.6886C47.3799 13.7505 44.1387 14.2815 40.8687 14.2815C37.5987 14.3094 34.357 13.7505 31.255 12.6886C32.2052 10.0898 33.3789 7.88227 34.6645 6.17767C36.5091 3.71851 38.6331 2.29339 40.8687 2.29339ZM25.6655 6.48499C28.4043 4.86427 31.3387 3.69067 34.385 3.01999C33.826 3.57883 33.295 4.19359 32.82 4.83631C31.3947 6.70855 30.137 9.08383 29.1029 11.8783C26.9231 10.9562 24.883 9.75451 22.9826 8.30131C23.849 7.65871 24.7432 7.04383 25.6655 6.48499Z" stroke="url(#paint21_linear_8989_875)" stroke-width="2.4" mask="url(#path-1-inside-1_8989_875)"/>
<defs>
<linearGradient id="paint0_linear_8989_875" x1="40.8648" y1="0" x2="40.8648" y2="17.9143" gradientUnits="userSpaceOnUse">
<stop/>
<stop offset="1" stop-color="#666666"/>
</linearGradient>
<linearGradient id="paint1_linear_8989_875" x1="40.8648" y1="0" x2="40.8648" y2="17.9143" gradientUnits="userSpaceOnUse">
<stop/>
<stop offset="1" stop-color="#666666"/>
</linearGradient>
<linearGradient id="paint2_linear_8989_875" x1="40.8648" y1="0" x2="40.8648" y2="17.9143" gradientUnits="userSpaceOnUse">
<stop/>
<stop offset="1" stop-color="#666666"/>
</linearGradient>
<linearGradient id="paint3_linear_8989_875" x1="40.8648" y1="0" x2="40.8648" y2="17.9143" gradientUnits="userSpaceOnUse">
<stop/>
<stop offset="1" stop-color="#666666"/>
</linearGradient>
<linearGradient id="paint4_linear_8989_875" x1="40.8648" y1="0" x2="40.8648" y2="17.9143" gradientUnits="userSpaceOnUse">
<stop/>
<stop offset="1" stop-color="#666666"/>
</linearGradient>
<linearGradient id="paint5_linear_8989_875" x1="40.8648" y1="0" x2="40.8648" y2="17.9143" gradientUnits="userSpaceOnUse">
<stop/>
<stop offset="1" stop-color="#666666"/>
</linearGradient>
<linearGradient id="paint6_linear_8989_875" x1="40.8648" y1="0" x2="40.8648" y2="17.9143" gradientUnits="userSpaceOnUse">
<stop/>
<stop offset="1" stop-color="#666666"/>
</linearGradient>
<linearGradient id="paint7_linear_8989_875" x1="40.8648" y1="0" x2="40.8648" y2="17.9143" gradientUnits="userSpaceOnUse">
<stop/>
<stop offset="1" stop-color="#666666"/>
</linearGradient>
<linearGradient id="paint8_linear_8989_875" x1="40.8648" y1="0" x2="40.8648" y2="17.9143" gradientUnits="userSpaceOnUse">
<stop/>
<stop offset="1" stop-color="#666666"/>
</linearGradient>
<linearGradient id="paint9_linear_8989_875" x1="40.8648" y1="0" x2="40.8648" y2="17.9143" gradientUnits="userSpaceOnUse">
<stop/>
<stop offset="1" stop-color="#666666"/>
</linearGradient>
<linearGradient id="paint10_linear_8989_875" x1="40.8648" y1="0" x2="40.8648" y2="17.9143" gradientUnits="userSpaceOnUse">
<stop/>
<stop offset="1" stop-color="#666666"/>
</linearGradient>
<linearGradient id="paint11_linear_8989_875" x1="40.8648" y1="0" x2="40.8648" y2="17.9143" gradientUnits="userSpaceOnUse">
<stop/>
<stop offset="1" stop-color="#666666"/>
</linearGradient>
<linearGradient id="paint12_linear_8989_875" x1="40.8648" y1="0" x2="40.8648" y2="17.9143" gradientUnits="userSpaceOnUse">
<stop/>
<stop offset="1" stop-color="#666666"/>
</linearGradient>
<linearGradient id="paint13_linear_8989_875" x1="40.8648" y1="0" x2="40.8648" y2="17.9143" gradientUnits="userSpaceOnUse">
<stop/>
<stop offset="1" stop-color="#666666"/>
</linearGradient>
<linearGradient id="paint14_linear_8989_875" x1="40.8648" y1="0" x2="40.8648" y2="17.9143" gradientUnits="userSpaceOnUse">
<stop/>
<stop offset="1" stop-color="#666666"/>
</linearGradient>
<linearGradient id="paint15_linear_8989_875" x1="40.8648" y1="0" x2="40.8648" y2="17.9143" gradientUnits="userSpaceOnUse">
<stop/>
<stop offset="1" stop-color="#666666"/>
</linearGradient>
<linearGradient id="paint16_linear_8989_875" x1="40.8648" y1="0" x2="40.8648" y2="17.9143" gradientUnits="userSpaceOnUse">
<stop/>
<stop offset="1" stop-color="#666666"/>
</linearGradient>
<linearGradient id="paint17_linear_8989_875" x1="40.8648" y1="0" x2="40.8648" y2="17.9143" gradientUnits="userSpaceOnUse">
<stop/>
<stop offset="1" stop-color="#666666"/>
</linearGradient>
<linearGradient id="paint18_linear_8989_875" x1="40.8648" y1="0" x2="40.8648" y2="17.9143" gradientUnits="userSpaceOnUse">
<stop/>
<stop offset="1" stop-color="#666666"/>
</linearGradient>
<linearGradient id="paint19_linear_8989_875" x1="40.8648" y1="0" x2="40.8648" y2="17.9143" gradientUnits="userSpaceOnUse">
<stop/>
<stop offset="1" stop-color="#666666"/>
</linearGradient>
<linearGradient id="paint20_linear_8989_875" x1="40.8648" y1="0" x2="40.8648" y2="17.9143" gradientUnits="userSpaceOnUse">
<stop/>
<stop offset="1" stop-color="#666666"/>
</linearGradient>
<linearGradient id="paint21_linear_8989_875" x1="40.8648" y1="0" x2="40.8648" y2="17.9143" gradientUnits="userSpaceOnUse">
<stop/>
<stop offset="1" stop-color="#666666"/>
</linearGradient>
</defs>
</svg>
